GeoramaExtended-ThinItalic.ufo
<glyph name="exclam" format="2">
  <advance width="261.4"/>
  <unicode hex="0021"/>
  <outline>
    <contour>
      <point x="119.5" y="264.0" type="line"/>
      <point x="137.5" y="264.0" type="line"/>
      <point x="212.5" y="740.0" type="line"/>
      <point x="194.5" y="740.0" type="line"/>
    </contour>
    <contour>
      <point x="73.1" y="10.0" type="curve" smooth="yes"/>
      <point x="72.1" y="1.3"/>
      <point x="75.19999999999999" y="0.0"/>
      <point x="85.5" y="0.0" type="curve" smooth="yes"/>
      <point x="102.89999999999999" y="0.0"/>
      <point x="103.6" y="1.0"/>
      <point x="106.6" y="24.0" type="curve" smooth="yes"/>
      <point x="107.6" y="33.0"/>
      <point x="103.89999999999999" y="34.0"/>
      <point x="93.89999999999999" y="34.0" type="curve" smooth="yes"/>
      <point x="77.1" y="34.0"/>
      <point x="76.1" y="33.0"/>
    </contour>
  </outline>
</glyph>
<glyph name="numbersign" format="2">
  <advance width="798.8"/>
  <unicode hex="0023"/>
  <outline>
    <contour>
      <point x="193.39999999999998" y="478.7" type="line"/>
      <point x="330.7" y="478.7" type="line"/>
      <point x="233.1" y="210.7" type="line"/>
      <point x="104.6" y="210.7" type="line"/>
      <point x="102.0" y="193.4" type="line"/>
      <point x="226.7" y="193.4" type="line"/>
      <point x="156.6" y="0.0" type="line"/>
      <point x="176.89999999999998" y="0.0" type="line"/>
      <point x="246.0" y="193.4" type="line"/>
      <point x="466.29999999999995" y="193.4" type="line"/>
      <point x="397.2" y="0.0" type="line"/>
      <point x="417.2" y="0.0" type="line"/>
      <point x="486.29999999999995" y="193.4" type="line"/>
      <point x="625.3" y="193.4" type="line"/>
      <point x="627.5999999999999" y="210.7" type="line"/>
      <point x="493.4" y="210.7" type="line"/>
      <point x="590.3" y="478.7" type="line"/>
      <point x="716.4" y="478.7" type="line"/>
      <point x="719.4" y="496.0" type="line"/>
      <point x="597.4" y="496.0" type="line"/>
      <point x="672.0999999999999" y="700.0" type="line"/>
      <point x="652.0999999999999" y="700.0" type="line"/>
      <point x="577.4" y="496.0" type="line"/>
      <point x="357.1" y="496.0" type="line"/>
      <point x="431.79999999999995" y="700.0" type="line"/>
      <point x="411.79999999999995" y="700.0" type="line"/>
      <point x="337.1" y="496.0" type="line"/>
      <point x="196.39999999999998" y="496.0" type="line"/>
    </contour>
    <contour>
      <point x="350.7" y="478.7" type="line"/>
      <point x="571.0" y="478.7" type="line"/>
      <point x="473.4" y="210.7" type="line"/>
      <point x="253.1" y="210.7" type="line"/>
    </contour>
  </outline>
</glyph>
<glyph name="dollar" format="2">
  <advance width="798.8"/>
  <unicode hex="0024"/>
  <outline>
    <contour>
      <point x="711.2" y="671.5" type="line"/>
      <point x="679.5999999999999" y="682.7"/>
      <point x="601.0" y="708.3"/>
      <point x="493.59999999999997" y="710.0" type="curve"/>
      <point x="509.29999999999995" y="805.0" type="line"/>
      <point x="491.29999999999995" y="805.0" type="line"/>
      <point x="476.0" y="709.7" type="line"/>
      <point x="343.7" y="706.9"/>
      <point x="164.89999999999998" y="656.9"/>
      <point x="164.89999999999998" y="509.7" type="curve" smooth="yes"/>
      <point x="164.89999999999998" y="297.2"/>
      <point x="660.3" y="380.8"/>
      <point x="660.3" y="186.6" type="curve" smooth="yes"/>
      <point x="660.3" y="48.5"/>
      <point x="462.5" y="9.3"/>
      <point x="354.79999999999995" y="9.3" type="curve" smooth="yes"/>
      <point x="240.2" y="9.3"/>
      <point x="105.1" y="48.0"/>
      <point x="70.0" y="61.8" type="curve"/>
      <point x="61.099999999999994" y="42.4" type="line"/>
      <point x="111.89999999999999" y="26.0"/>
      <point x="226.89999999999998" y="-8.3"/>
      <point x="351.5" y="-10.0" type="curve"/>
      <point x="336.5" y="-105.0" type="line"/>
      <point x="354.5" y="-105.0" type="line"/>
      <point x="369.5" y="-9.7" type="line"/>
      <point x="506.09999999999997" y="-6.8999999999999995"/>
      <point x="680.3" y="42.0"/>
      <point x="680.3" y="190.2" type="curve" smooth="yes"/>
      <point x="680.3" y="399.6"/>
      <point x="184.2" y="316.8"/>
      <point x="184.2" y="513.1" type="curve" smooth="yes"/>
      <point x="184.2" y="650.2"/>
      <point x="377.5" y="691.3"/>
      <point x="479.09999999999997" y="691.3" type="curve" smooth="yes"/>
      <point x="587.7" y="691.3"/>
      <point x="656.8" y="669.8"/>
      <point x="702.5999999999999" y="652.7" type="curve"/>
    </contour>
  </outline>
</glyph>
<glyph name="ampersand" format="2">
  <advance width="835.6999999999999"/>
  <unicode hex="0026"/>
  <outline>
    <contour>
      <point x="317.9" y="-10.0" type="curve" smooth="yes"/>
      <point x="480.59999999999997" y="-10.0"/>
      <point x="632.2" y="81.0"/>
      <point x="679.5" y="283.5" type="curve"/>
      <point x="661.5" y="289.6" type="line"/>
      <point x="617.3" y="99.30000000000001"/>
      <point x="472.4" y="8.7"/>
      <point x="318.5" y="8.7" type="curve" smooth="yes"/>
      <point x="161.3" y="8.7"/>
      <point x="79.6" y="72.5"/>
      <point x="79.6" y="157.3" type="curve" smooth="yes"/>
      <point x="79.6" y="309.1"/>
      <point x="253.9" y="365.0"/>
      <point x="415.29999999999995" y="365.0" type="curve" smooth="yes"/>
      <point x="422.5" y="365.0" type="line"/>
      <point x="423.4" y="384.4" type="line"/>
      <point x="417.5" y="384.4" type="line" smooth="yes"/>
      <point x="291.9" y="384.4"/>
      <point x="200.3" y="438.5"/>
      <point x="200.3" y="536.9" type="curve" smooth="yes"/>
      <point x="200.3" y="614.0"/>
      <point x="264.2" y="694.1"/>
      <point x="395.4" y="694.1" type="curve" smooth="yes"/>
      <point x="469.7" y="694.1"/>
      <point x="547.9" y="664.0"/>
      <point x="590.8" y="619.5" type="curve"/>
      <point x="602.5999999999999" y="634.1" type="line"/>
      <point x="559.9" y="679.0"/>
      <point x="474.7" y="710.0"/>
      <point x="395.6" y="710.0" type="curve" smooth="yes"/>
      <point x="250.4" y="710.0"/>
      <point x="180.6" y="622.9"/>
      <point x="180.6" y="536.3" type="curve" smooth="yes"/>
      <point x="180.6" y="446.9"/>
      <point x="253.7" y="387.3"/>
      <point x="348.79999999999995" y="377.0" type="curve"/>
      <point x="186.2" y="366.4"/>
      <point x="59.9" y="293.6"/>
      <point x="59.9" y="157.0" type="curve" smooth="yes"/>
      <point x="59.9" y="62.2"/>
      <point x="141.6" y="-10.0"/>
    </contour>
    <contour>
      <point x="466.79999999999995" y="232.4" type="line"/>
      <point x="470.4" y="285.8"/>
      <point x="510.09999999999997" y="312.7"/>
      <point x="551.2" y="312.7" type="curve" smooth="yes"/>
      <point x="631.7" y="312.7"/>
      <point x="658.2" y="267.8"/>
      <point x="742.0999999999999" y="267.8" type="curve" smooth="yes"/>
      <point x="806.0" y="267.8"/>
      <point x="847.1999999999999" y="312.8"/>
      <point x="849.9" y="370.6" type="curve"/>
      <point x="831.8" y="373.3" type="line"/>
      <point x="829.6999999999999" y="324.0"/>
      <point x="795.3" y="286.2"/>
      <point x="741.9" y="286.2" type="curve" smooth="yes"/>
      <point x="666.0999999999999" y="286.2"/>
      <point x="631.9" y="331.1"/>
      <point x="551.3" y="331.1" type="curve" smooth="yes"/>
      <point x="501.79999999999995" y="331.1"/>
      <point x="455.29999999999995" y="297.7"/>
      <point x="450.5" y="240.4" type="curve"/>
    </contour>
  </outline>
</glyph>
<glyph name="parenleft" format="2">
  <advance width="370.6"/>
  <unicode hex="0028"/>
  <outline>
    <contour>
      <point x="106.3" y="80.1" type="curve" smooth="yes"/>
      <point x="106.3" y="-67.7"/>
      <point x="150.6" y="-190.4"/>
      <point x="259.1" y="-220.0" type="curve"/>
      <point x="265.1" y="-202.6" type="line"/>
      <point x="175.5" y="-179.9"/>
      <point x="125.0" y="-68.30000000000001"/>
      <point x="125.0" y="86.5" type="curve" smooth="yes"/>
      <point x="125.0" y="347.4"/>
      <point x="245.2" y="686.2"/>
      <point x="411.5" y="731.4" type="curve"/>
      <point x="411.5" y="749.7" type="line"/>
      <point x="192.0" y="687.6"/>
      <point x="106.3" y="307.8"/>
    </contour>
  </outline>
</glyph>
<glyph name="parenright" format="2">
  <advance width="370.6"/>
  <unicode hex="0029"/>
  <outline>
    <contour>
      <point x="261.6" y="448.5" type="curve" smooth="yes"/>
      <point x="261.6" y="600.5"/>
      <point x="216.2" y="720.4"/>
      <point x="107.0" y="750.0" type="curve"/>
      <point x="101.6" y="730.3" type="line"/>
      <point x="198.8" y="704.4"/>
      <point x="242.89999999999998" y="590.0"/>
      <point x="242.89999999999998" y="446.0" type="curve" smooth="yes"/>
      <point x="242.89999999999998" y="199.0"/>
      <point x="127.3" y="-151.5"/>
      <point x="-45.3" y="-200.6" type="curve"/>
      <point x="-45.0" y="-220.0" type="line"/>
      <point x="148.0" y="-161.0"/>
      <point x="261.6" y="187.10000000000002"/>
    </contour>
  </outline>
</glyph>
<glyph name="asterisk" format="2">
  <advance width="374.79999999999995"/>
  <unicode hex="002A"/>
  <outline>
    <contour>
      <point x="104.19999999999999" y="336.8" type="line"/>
      <point x="221.1" y="485.5" type="line"/>
      <point x="289.0" y="337.1" type="line"/>
      <point x="302.6" y="345.7" type="line"/>
      <point x="235.1" y="499.0" type="line"/>
      <point x="393.7" y="556.4" type="line"/>
      <point x="390.4" y="571.7" type="line"/>
      <point x="234.8" y="516.9" type="line"/>
      <point x="263.7" y="699.7" type="line"/>
      <point x="246.3" y="699.7" type="line"/>
      <point x="217.39999999999998" y="517.2" type="line"/>
      <point x="77.3" y="572.0" type="line"/>
      <point x="70.7" y="557.0" type="line"/>
      <point x="210.39999999999998" y="499.6" type="line"/>
      <point x="91.9" y="347.1" type="line"/>
    </contour>
  </outline>
</glyph>
<glyph name="plus" format="2">
  <advance width="460.4"/>
  <unicode hex="002B"/>
  <outline>
    <contour>
      <point x="189.9" y="72.0" type="line"/>
      <point x="208.2" y="72.0" type="line"/>
      <point x="240.5" y="279.7" type="line"/>
      <point x="405.6" y="279.7" type="line"/>
      <point x="408.6" y="298.0" type="line"/>
      <point x="243.5" y="298.0" type="line"/>
      <point x="276.5" y="506.0" type="line"/>
      <point x="258.2" y="506.0" type="line"/>
      <point x="225.2" y="298.0" type="line"/>
      <point x="59.8" y="298.0" type="line"/>
      <point x="56.8" y="279.7" type="line"/>
      <point x="222.2" y="279.7" type="line"/>
    </contour>
  </outline>
</glyph>
<glyph name="comma" format="2">
  <advance width="177.5"/>
  <unicode hex="002C"/>
  <outline>
    <contour>
      <point x="41.4" y="29.8" type="line"/>
      <point x="44.5" y="17.0"/>
      <point x="45.9" y="3.200000000000001"/>
      <point x="45.9" y="-10.299999999999999" type="curve" smooth="yes"/>
      <point x="45.9" y="-73.5"/>
      <point x="2.799999999999997" y="-156.2"/>
      <point x="-60.7" y="-184.5" type="curve"/>
      <point x="-54.7" y="-200.9" type="line"/>
      <point x="25.7" y="-165.8"/>
      <point x="66.3" y="-65.7"/>
      <point x="66.3" y="-4.5" type="curve" smooth="yes"/>
      <point x="66.3" y="10.7"/>
      <point x="64.19999999999999" y="24.9"/>
      <point x="60.099999999999994" y="38.2" type="curve"/>
    </contour>
  </outline>
</glyph>
<glyph name="hyphen" format="2">
  <advance width="384.1"/>
  <unicode hex="002D"/>
  <outline>
    <contour>
      <point x="58.599999999999994" y="254.4" type="line"/>
      <point x="319.2" y="254.4" type="line"/>
      <point x="322.5" y="273.4" type="line"/>
      <point x="61.9" y="273.4" type="line"/>
    </contour>
  </outline>
</glyph>
<glyph name="period" format="2">
  <advance width="177.5"/>
  <unicode hex="002E"/>
  <outline>
    <contour>
      <point x="31.0" y="10.0" type="curve" smooth="yes"/>
      <point x="30.0" y="1.3"/>
      <point x="33.099999999999994" y="0.0"/>
      <point x="43.4" y="0.0" type="curve" smooth="yes"/>
      <point x="60.8" y="0.0"/>
      <point x="61.5" y="1.0"/>
      <point x="64.5" y="24.0" type="curve" smooth="yes"/>
      <point x="65.5" y="33.0"/>
      <point x="61.8" y="34.0"/>
      <point x="51.8" y="34.0" type="curve" smooth="yes"/>
      <point x="35.0" y="34.0"/>
      <point x="34.0" y="33.0"/>
    </contour>
  </outline>
</glyph>
<glyph name="slash" format="2">
  <advance width="360.79999999999995"/>
  <unicode hex="002F"/>
  <outline>
    <contour>
      <point x="-66.7" y="-210.0" type="line"/>
      <point x="-45.9" y="-210.0" type="line"/>
      <point x="424.5" y="740.0" type="line"/>
      <point x="403.7" y="740.0" type="line"/>
    </contour>
  </outline>
</glyph>
<glyph name="zero" format="2">
  <advance width="798.8"/>
  <unicode hex="0030"/>
  <outline>
    <contour>
      <point x="379.59999999999997" y="-10.0" type="curve" smooth="yes"/>
      <point x="619.5999999999999" y="-10.0"/>
      <point x="761.0" y="205.8"/>
      <point x="761.0" y="434.0" type="curve" smooth="yes"/>
      <point x="761.0" y="617.9"/>
      <point x="645.4" y="710.0"/>
      <point x="441.9" y="710.0" type="curve" smooth="yes"/>
      <point x="201.2" y="710.0"/>
      <point x="61.199999999999996" y="495.6"/>
      <point x="61.199999999999996" y="267.4" type="curve" smooth="yes"/>
      <point x="61.199999999999996" y="83.5"/>
      <point x="177.5" y="-10.0"/>
    </contour>
    <contour>
      <point x="379.59999999999997" y="9.0" type="curve" smooth="yes"/>
      <point x="188.39999999999998" y="9.0"/>
      <point x="79.9" y="95.0"/>
      <point x="80.19999999999999" y="267.1" type="curve" smooth="yes"/>
      <point x="80.8" y="492.6"/>
      <point x="214.1" y="691.0"/>
      <point x="441.9" y="691.0" type="curve" smooth="yes"/>
      <point x="634.5" y="691.0"/>
      <point x="742.3" y="606.4"/>
      <point x="742.0" y="434.3" type="curve" smooth="yes"/>
      <point x="741.4" y="209.5"/>
      <point x="606.7" y="9.0"/>
    </contour>
  </outline>
</glyph>
<glyph name="one" format="2">
  <advance width="798.8"/>
  <unicode hex="0031"/>
  <outline>
    <contour>
      <point x="62.69999999999999" y="0.0" type="line"/>
      <point x="700.4" y="0.0" type="line"/>
      <point x="703.4" y="19.3" type="line"/>
      <point x="423.09999999999997" y="19.3" type="line"/>
      <point x="532.5" y="707.0" type="line"/>
      <point x="521.5" y="707.0" type="line"/>
      <point x="137.0" y="523.3" type="line"/>
      <point x="142.8" y="506.5" type="line"/>
      <point x="509.59999999999997" y="679.0" type="line"/>
      <point x="404.79999999999995" y="19.3" type="line"/>
      <point x="65.69999999999999" y="19.3" type="line"/>
    </contour>
  </outline>
</glyph>
<glyph name="two" format="2">
  <advance width="798.8"/>
  <unicode hex="0032"/>
  <outline>
    <contour>
      <point x="80.89999999999999" y="17.0" type="curve"/>
      <point x="81.5" y="0.0" type="line"/>
      <point x="676.7" y="0.0" type="line"/>
      <point x="677.5999999999999" y="19.0" type="line"/>
      <point x="121.1" y="19.0" type="line"/>
      <point x="528.4" y="236.9"/>
      <point x="633.7" y="372.4"/>
      <point x="633.7" y="533.8" type="curve" smooth="yes"/>
      <point x="633.7" y="656.7"/>
      <point x="531.5999999999999" y="710.0"/>
      <point x="401.7" y="710.0" type="curve" smooth="yes"/>
      <point x="324.79999999999995" y="710.0"/>
      <point x="234.2" y="686.3"/>
      <point x="170.2" y="648.6" type="curve"/>
      <point x="176.7" y="632.1" type="line"/>
      <point x="240.1" y="668.1"/>
      <point x="325.7" y="692.4"/>
      <point x="399.4" y="692.4" type="curve" smooth="yes"/>
      <point x="518.3" y="692.4"/>
      <point x="614.7" y="643.0"/>
      <point x="614.7" y="528.9" type="curve" smooth="yes"/>
      <point x="614.4" y="382.6"/>
      <point x="508.2" y="247.5"/>
    </contour>
  </outline>
</glyph>
<glyph name="three" format="2">
  <advance width="798.9999999999999"/>
  <unicode hex="0033"/>
  <outline>
    <contour>
      <point x="21.999999999999996" y="71.0" type="line"/>
      <point x="110.0" y="17.5"/>
      <point x="215.5" y="-10.0"/>
      <point x="356.99999999999994" y="-10.0" type="curve" smooth="yes"/>
      <point x="577.5" y="-10.0"/>
      <point x="693.0" y="79.5"/>
      <point x="693.0" y="216.0" type="curve" smooth="yes"/>
      <point x="693.0" y="309.0"/>
      <point x="624.0" y="359.0"/>
      <point x="520.5" y="371.0" type="curve"/>
      <point x="605.0" y="386.0"/>
      <point x="688.5" y="445.0"/>
      <point x="688.5" y="549.0" type="curve" smooth="yes"/>
      <point x="688.5" y="649.0"/>
      <point x="593.0" y="710.0"/>
      <point x="422.0" y="710.0" type="curve" smooth="yes"/>
      <point x="352.0" y="710.0"/>
      <point x="248.49999999999997" y="697.0"/>
      <point x="169.0" y="671.0" type="curve"/>
      <point x="176.0" y="654.0" type="line"/>
      <point x="254.49999999999997" y="679.5"/>
      <point x="352.0" y="691.5"/>
      <point x="420.0" y="691.5" type="curve" smooth="yes"/>
      <point x="575.0" y="691.5"/>
      <point x="669.0" y="639.0"/>
      <point x="669.0" y="549.0" type="curve" smooth="yes"/>
      <point x="669.0" y="433.5"/>
      <point x="557.5" y="378.5"/>
      <point x="447.49999999999994" y="378.5" type="curve" smooth="yes"/>
      <point x="255.49999999999997" y="378.5" type="line"/>
      <point x="252.49999999999997" y="359.5" type="line"/>
      <point x="437.49999999999994" y="359.5" type="line" smooth="yes"/>
      <point x="589.5" y="359.5"/>
      <point x="672.0" y="313.0"/>
      <point x="672.0" y="212.0" type="curve" smooth="yes"/>
      <point x="672.0" y="86.0"/>
      <point x="552.0" y="8.5"/>
      <point x="361.49999999999994" y="8.5" type="curve" smooth="yes"/>
      <point x="219.5" y="8.5"/>
      <point x="124.0" y="34.5"/>
      <point x="35.0" y="87.0" type="curve"/>
    </contour>
  </outline>
</glyph>
<glyph name="four" format="2">
  <advance width="798.9999999999999"/>
  <unicode hex="0034"/>
  <outline>
    <contour>
      <point x="61.0" y="201.5" type="line"/>
      <point x="543.0" y="201.5" type="line"/>
      <point x="510.0" y="-5.0" type="line"/>
      <point x="528.5" y="-5.0" type="line"/>
      <point x="561.0" y="201.5" type="line"/>
      <point x="723.5" y="201.5" type="line"/>
      <point x="726.5" y="221.0" type="line"/>
      <point x="564.0" y="221.0" type="line"/>
      <point x="639.0" y="695.0" type="line"/>
      <point x="628.0" y="703.5" type="line"/>
      <point x="60.0" y="218.0" type="line"/>
    </contour>
    <contour>
      <point x="90.5" y="221.0" type="line"/>
      <point x="617.5" y="670.0" type="line"/>
      <point x="546.0" y="221.0" type="line"/>
    </contour>
  </outline>
</glyph>
<glyph name="five" format="2">
  <advance width="798.8"/>
  <unicode hex="0035"/>
  <outline>
    <contour>
      <point x="49.099999999999994" y="72.3" type="line"/>
      <point x="119.69999999999999" y="21.0"/>
      <point x="205.89999999999998" y="-10.0"/>
      <point x="345.7" y="-10.0" type="curve" smooth="yes"/>
      <point x="599.7" y="-10.0"/>
      <point x="696.8" y="112.5"/>
      <point x="696.8" y="239.1" type="curve" smooth="yes"/>
      <point x="696.8" y="347.4"/>
      <point x="623.2" y="402.8"/>
      <point x="469.59999999999997" y="402.8" type="curve" smooth="yes"/>
      <point x="164.5" y="402.8" type="line"/>
      <point x="245.5" y="680.7" type="line"/>
      <point x="713.0" y="680.7" type="line"/>
      <point x="716.7" y="700.0" type="line"/>
      <point x="231.89999999999998" y="700.0" type="line"/>
      <point x="142.1" y="393.8" type="line"/>
      <point x="149.7" y="383.5" type="line"/>
      <point x="457.79999999999995" y="383.5" type="line" smooth="yes"/>
      <point x="608.5999999999999" y="383.5"/>
      <point x="676.4" y="337.6"/>
      <point x="676.4" y="234.0" type="curve" smooth="yes"/>
      <point x="676.4" y="115.1"/>
      <point x="558.5" y="9.0"/>
      <point x="349.7" y="9.0" type="curve" smooth="yes"/>
      <point x="213.0" y="9.0"/>
      <point x="130.3" y="41.6"/>
      <point x="61.9" y="88.5" type="curve"/>
    </contour>
  </outline>
</glyph>
<glyph name="six" format="2">
  <advance width="798.9999999999999"/>
  <unicode hex="0036"/>
  <note>
14
</note>
  <outline>
    <contour>
      <point x="394.5" y="-10.0" type="curve" smooth="yes"/>
      <point x="612.5" y="-10.0"/>
      <point x="736.5" y="82.0"/>
      <point x="736.5" y="230.5" type="curve" smooth="yes"/>
      <point x="736.5" y="365.0"/>
      <point x="642.5" y="428.0"/>
      <point x="466.49999999999994" y="428.0" type="curve" smooth="yes"/>
      <point x="343.0" y="428.0"/>
      <point x="192.49999999999997" y="389.5"/>
      <point x="100.49999999999999" y="320.5" type="curve"/>
      <point x="97.99999999999999" y="292.0" type="line"/>
      <point x="185.49999999999997" y="365.5"/>
      <point x="331.5" y="409.0"/>
      <point x="465.49999999999994" y="409.0" type="curve" smooth="yes"/>
      <point x="632.0" y="409.0"/>
      <point x="717.0" y="348.0"/>
      <point x="717.0" y="230.5" type="curve" smooth="yes"/>
      <point x="717.0" y="93.0"/>
      <point x="599.5" y="9.0"/>
      <point x="400.0" y="9.0" type="curve" smooth="yes"/>
      <point x="197.0" y="9.0"/>
      <point x="101.99999999999999" y="88.5"/>
      <point x="101.99999999999999" y="259.5" type="curve" smooth="yes"/>
      <point x="101.99999999999999" y="409.5"/>
      <point x="151.5" y="528.0"/>
      <point x="240.99999999999997" y="602.0" type="curve" smooth="yes"/>
      <point x="311.0" y="660.5"/>
      <point x="405.5" y="691.0"/>
      <point x="516.5" y="691.0" type="curve" smooth="yes"/>
      <point x="605.0" y="691.0"/>
      <point x="681.0" y="679.0"/>
      <point x="758.5" y="651.5" type="curve"/>
      <point x="767.0" y="670.0" type="line"/>
      <point x="691.0" y="696.5"/>
      <point x="605.5" y="710.0"/>
      <point x="519.0" y="710.0" type="curve" smooth="yes"/>
      <point x="246.99999999999997" y="710.0"/>
      <point x="81.99999999999999" y="541.0"/>
      <point x="81.99999999999999" y="253.5" type="curve" smooth="yes"/>
      <point x="81.99999999999999" y="77.5"/>
      <point x="185.0" y="-10.0"/>
    </contour>
  </outline>
</glyph>
<glyph name="seven" format="2">
  <advance width="798.8"/>
  <unicode hex="0037"/>
  <note>
9
</note>
  <outline>
    <contour>
      <point x="246.5" y="0.0" type="curve"/>
      <point x="268.29999999999995" y="0.0" type="line"/>
      <point x="291.9" y="149.3"/>
      <point x="359.3" y="240.5"/>
      <point x="524.0999999999999" y="432.8" type="curve" smooth="yes"/>
      <point x="737.8" y="682.3" type="line"/>
      <point x="740.8" y="700.0" type="line"/>
      <point x="134.8" y="700.0" type="line"/>
      <point x="131.8" y="680.0" type="line"/>
      <point x="712.5999999999999" y="680.0" type="line"/>
      <point x="509.9" y="447.0" type="line" smooth="yes"/>
      <point x="348.29999999999995" y="261.0"/>
      <point x="272.7" y="165.9"/>
    </contour>
  </outline>
</glyph>
<glyph name="eight" format="2">
  <advance width="798.9999999999999"/>
  <unicode hex="0038"/>
  <outline>
    <contour>
      <point x="363.99999999999994" y="-10.0" type="curve" smooth="yes"/>
      <point x="563.5" y="-10.0"/>
      <point x="722.0" y="46.00000000000001"/>
      <point x="722.0" y="204.0" type="curve" smooth="yes"/>
      <point x="722.0" y="466.0"/>
      <point x="159.0" y="300.0"/>
      <point x="159.0" y="530.0" type="curve" smooth="yes"/>
      <point x="159.0" y="645.0"/>
      <point x="296.5" y="691.0"/>
      <point x="458.49999999999994" y="691.0" type="curve" smooth="yes"/>
      <point x="644.0" y="691.0"/>
      <point x="724.0" y="639.0"/>
      <point x="724.0" y="554.0" type="curve" smooth="yes"/>
      <point x="724.0" y="451.5"/>
      <point x="657.5" y="399.5"/>
      <point x="539.5" y="352.0" type="curve"/>
      <point x="562.5" y="345.5" type="line"/>
      <point x="668.0" y="389.0"/>
      <point x="743.0" y="446.0"/>
      <point x="743.0" y="554.5" type="curve" smooth="yes"/>
      <point x="743.0" y="650.5"/>
      <point x="656.5" y="710.0"/>
      <point x="458.49999999999994" y="710.0" type="curve" smooth="yes"/>
      <point x="284.0" y="710.0"/>
      <point x="140.0" y="660.0"/>
      <point x="140.0" y="526.5" type="curve" smooth="yes"/>
      <point x="140.0" y="282.5"/>
      <point x="703.0" y="447.5"/>
      <point x="703.0" y="203.0" type="curve" smooth="yes"/>
      <point x="703.0" y="59.00000000000001"/>
      <point x="553.0" y="9.0"/>
      <point x="364.99999999999994" y="9.0" type="curve" smooth="yes"/>
      <point x="161.5" y="9.0"/>
      <point x="63.5" y="68.5"/>
      <point x="63.5" y="173.0" type="curve" smooth="yes"/>
      <point x="63.5" y="283.0"/>
      <point x="155.0" y="357.0"/>
      <point x="281.5" y="396.0" type="curve"/>
      <point x="254.0" y="403.5" type="line"/>
      <point x="135.0" y="361.5"/>
      <point x="44.5" y="289.5"/>
      <point x="44.5" y="168.0" type="curve" smooth="yes"/>
      <point x="44.5" y="54.5"/>
      <point x="147.0" y="-10.0"/>
    </contour>
  </outline>
</glyph>
<glyph name="nine" format="2">
  <advance width="798.9999999999999"/>
  <unicode hex="0039"/>
  <outline>
    <contour>
      <point x="435.49999999999994" y="710.0" type="curve" smooth="yes"/>
      <point x="217.5" y="710.0"/>
      <point x="98.5" y="618.0"/>
      <point x="98.5" y="469.5" type="curve" smooth="yes"/>
      <point x="98.5" y="335.0"/>
      <point x="192.5" y="272.0"/>
      <point x="368.5" y="272.0" type="curve" smooth="yes"/>
      <point x="491.99999999999994" y="272.0"/>
      <point x="642.5" y="310.5"/>
      <point x="734.5" y="379.5" type="curve"/>
      <point x="737.0" y="408.0" type="line"/>
      <point x="649.5" y="334.5"/>
      <point x="503.49999999999994" y="291.0"/>
      <point x="369.5" y="291.0" type="curve" smooth="yes"/>
      <point x="203.0" y="291.0"/>
      <point x="118.0" y="352.0"/>
      <point x="118.0" y="469.5" type="curve" smooth="yes"/>
      <point x="118.0" y="607.0"/>
      <point x="230.5" y="691.0"/>
      <point x="430.0" y="691.0" type="curve" smooth="yes"/>
      <point x="633.0" y="691.0"/>
      <point x="733.0" y="611.5"/>
      <point x="733.0" y="440.5" type="curve" smooth="yes"/>
      <point x="733.0" y="290.5"/>
      <point x="683.5" y="172.0"/>
      <point x="594.0" y="98.0" type="curve" smooth="yes"/>
      <point x="524.0" y="39.5"/>
      <point x="429.49999999999994" y="9.0"/>
      <point x="318.49999999999994" y="9.0" type="curve" smooth="yes"/>
      <point x="229.99999999999997" y="9.0"/>
      <point x="153.99999999999997" y="21.0"/>
      <point x="76.49999999999999" y="48.5" type="curve"/>
      <point x="67.99999999999999" y="30.0" type="line"/>
      <point x="143.99999999999997" y="3.4999999999999996"/>
      <point x="229.49999999999997" y="-10.0"/>
      <point x="315.99999999999994" y="-10.0" type="curve" smooth="yes"/>
      <point x="588.0" y="-10.0"/>
      <point x="753.0" y="159.0"/>
      <point x="753.0" y="446.5" type="curve" smooth="yes"/>
      <point x="753.0" y="622.5"/>
      <point x="645.0" y="710.0"/>
    </contour>
  </outline>
</glyph>
<glyph name="less" format="2">
  <advance width="461.4"/>
  <unicode hex="003C"/>
  <outline>
    <contour>
      <point x="373.5" y="75.0" type="line"/>
      <point x="376.5" y="96.3" type="line"/>
      <point x="76.6" y="289.0" type="line"/>
      <point x="437.7" y="482.0" type="line"/>
      <point x="440.7" y="504.6" type="line"/>
      <point x="60.4" y="300.2" type="line"/>
      <point x="57.099999999999994" y="279.0" type="line"/>
    </contour>
  </outline>
</glyph>
<glyph name="equal" format="2">
  <advance width="460.7"/>
  <unicode hex="003D"/>
  <outline>
    <contour>
      <point x="392.6" y="197.0" type="line"/>
      <point x="43.8" y="197.0" type="line"/>
      <point x="40.8" y="178.4" type="line"/>
      <point x="389.6" y="178.4" type="line"/>
    </contour>
    <contour>
      <point x="424.6" y="402.6" type="line"/>
      <point x="75.8" y="402.6" type="line"/>
      <point x="72.8" y="384.0" type="line"/>
      <point x="421.6" y="384.0" type="line"/>
    </contour>
  </outline>
</glyph>
<glyph name="greater" format="2">
  <advance width="461.4"/>
  <unicode hex="003E"/>
  <outline>
    <contour>
      <point x="405.6" y="278.1" type="line"/>
      <point x="408.9" y="299.3" type="line"/>
      <point x="92.2" y="504.0" type="line"/>
      <point x="89.2" y="482.7" type="line"/>
      <point x="389.4" y="289.3" type="line"/>
      <point x="28.299999999999997" y="97.3" type="line"/>
      <point x="25.0" y="74.4" type="line"/>
    </contour>
  </outline>
</glyph>
<glyph name="question" format="2">
  <advance width="528.2"/>
  <unicode hex="003F"/>
  <outline>
    <contour>
      <point x="227.79999999999998" y="261.9" type="line"/>
      <point x="245.79999999999998" y="261.9" type="line"/>
      <point x="257.1" y="331.5" type="line"/>
      <point x="439.7" y="384.6"/>
      <point x="535.5999999999999" y="453.8"/>
      <point x="535.5999999999999" y="596.3" type="curve" smooth="yes"/>
      <point x="535.5999999999999" y="713.0"/>
      <point x="433.0" y="750.0"/>
      <point x="339.29999999999995" y="750.0" type="curve" smooth="yes"/>
      <point x="252.39999999999998" y="750.0"/>
      <point x="154.3" y="723.4"/>
      <point x="74.6" y="676.0" type="curve"/>
      <point x="82.2" y="661.6" type="line"/>
      <point x="161.1" y="705.8"/>
      <point x="254.89999999999998" y="732.4"/>
      <point x="336.29999999999995" y="732.4" type="curve" smooth="yes"/>
      <point x="428.9" y="732.4"/>
      <point x="515.2" y="696.9"/>
      <point x="515.2" y="591.9" type="curve" smooth="yes"/>
      <point x="515.2" y="483.9"/>
      <point x="451.4" y="400.7"/>
      <point x="241.1" y="345.4" type="curve"/>
    </contour>
    <contour>
      <point x="187.29999999999998" y="7.9" type="curve" smooth="yes"/>
      <point x="187.0" y="1.3"/>
      <point x="190.1" y="0.0"/>
      <point x="199.7" y="0.0" type="curve" smooth="yes"/>
      <point x="215.7" y="0.0"/>
      <point x="219.89999999999998" y="1.0"/>
      <point x="220.79999999999998" y="25.4" type="curve" smooth="yes"/>
      <point x="221.1" y="33.0"/>
      <point x="217.39999999999998" y="34.0"/>
      <point x="208.1" y="34.0" type="curve" smooth="yes"/>
      <point x="192.7" y="34.0"/>
      <point x="188.2" y="33.0"/>
    </contour>
  </outline>
</glyph>
<glyph name="at" format="2">
  <advance width="871.0"/>
  <unicode hex="0040"/>
  <outline>
    <contour>
      <point x="360.0" y="-119.0" type="curve" smooth="yes"/>
      <point x="450.99999999999994" y="-119.0"/>
      <point x="544.5" y="-91.5"/>
      <point x="622.5" y="-40.5" type="curve"/>
      <point x="612.5" y="-27.5" type="line"/>
      <point x="536.5" y="-75.5"/>
      <point x="450.49999999999994" y="-100.5"/>
      <point x="363.0" y="-100.5" type="curve" smooth="yes"/>
      <point x="183.0" y="-100.5"/>
      <point x="74.5" y="6.4999999999999964"/>
      <point x="74.5" y="185.5" type="curve" smooth="yes"/>
      <point x="74.5" y="480.5"/>
      <point x="260.5" y="718.0"/>
      <point x="525.0" y="718.0" type="curve" smooth="yes"/>
      <point x="705.0" y="718.0"/>
      <point x="814.5" y="619.0"/>
      <point x="814.5" y="453.0" type="curve" smooth="yes"/>
      <point x="814.5" y="275.0"/>
      <point x="726.0" y="101.0"/>
      <point x="642.5" y="101.0" type="curve" smooth="yes"/>
      <point x="581.0" y="101.0"/>
      <point x="584.0" y="176.0"/>
      <point x="599.5" y="252.5" type="curve" smooth="yes"/>
      <point x="655.0" y="519.0" type="line"/>
      <point x="598.5" y="535.0"/>
      <point x="557.5" y="541.5"/>
      <point x="519.0" y="541.5" type="curve" smooth="yes"/>
      <point x="358.5" y="541.5"/>
      <point x="230.99999999999997" y="385.0"/>
      <point x="230.99999999999997" y="216.0" type="curve" smooth="yes"/>
      <point x="230.99999999999997" y="130.5"/>
      <point x="277.5" y="85.5"/>
      <point x="364.5" y="85.5" type="curve" smooth="yes"/>
      <point x="437.99999999999994" y="85.5"/>
      <point x="524.0" y="131.5"/>
      <point x="573.0" y="209.5" type="curve"/>
      <point x="564.0" y="131.5"/>
      <point x="584.5" y="83.5"/>
      <point x="645.5" y="83.5" type="curve" smooth="yes"/>
      <point x="741.5" y="83.5"/>
      <point x="833.0" y="270.0"/>
      <point x="833.0" y="453.5" type="curve" smooth="yes"/>
      <point x="833.0" y="630.0"/>
      <point x="714.5" y="737.5"/>
      <point x="524.0" y="737.5" type="curve" smooth="yes"/>
      <point x="254.0" y="737.5"/>
      <point x="57.0" y="497.0"/>
      <point x="57.0" y="180.5" type="curve" smooth="yes"/>
      <point x="57.0" y="-8.500000000000007"/>
      <point x="170.0" y="-119.0"/>
    </contour>
    <contour>
      <point x="369.0" y="104.5" type="curve" smooth="yes"/>
      <point x="290.5" y="104.5"/>
      <point x="249.99999999999997" y="144.0"/>
      <point x="249.99999999999997" y="219.5" type="curve" smooth="yes"/>
      <point x="249.99999999999997" y="376.5"/>
      <point x="370.0" y="523.5"/>
      <point x="510.5" y="523.5" type="curve" smooth="yes"/>
      <point x="553.5" y="523.5"/>
      <point x="588.0" y="518.5"/>
      <point x="633.0" y="504.5" type="curve"/>
      <point x="581.0" y="256.5" type="line" smooth="yes"/>
      <point x="541.5" y="167.5"/>
      <point x="449.49999999999994" y="104.5"/>
    </contour>
  </outline>
</glyph>
<glyph name="A" format="2">
  <advance width="699.5"/>
  <unicode hex="0041"/>
  <anchor x="305.722" y="0.0" name="bottom"/>
  <anchor x="639.5" y="0.0" name="ogonek"/>
  <anchor x="416.5" y="700.0" name="top"/>
  <outline>
    <contour>
      <point x="-28.0" y="0.0" type="line"/>
      <point x="-5.5" y="0.0" type="line"/>
      <point x="132.0" y="221.5" type="line"/>
      <point x="551.5" y="221.5" type="line"/>
      <point x="618.0" y="0.0" type="line"/>
      <point x="639.5" y="0.0" type="line"/>
      <point x="423.5" y="710.0" type="line"/>
      <point x="411.0" y="710.0" type="line"/>
    </contour>
    <contour>
      <point x="143.5" y="240.5" type="line"/>
      <point x="413.5" y="676.5" type="line"/>
      <point x="546.0" y="240.5" type="line"/>
    </contour>
  </outline>
</glyph>
<glyph name="B" format="2">
  <advance width="768.9"/>
  <unicode hex="0042"/>
  <outline>
    <contour>
      <point x="65.89999999999999" y="1.6999999999999993" type="line"/>
      <point x="201.29999999999998" y="-6.2"/>
      <point x="272.4" y="-10.0"/>
      <point x="363.79999999999995" y="-10.0" type="curve" smooth="yes"/>
      <point x="512.4" y="-10.0"/>
      <point x="697.7" y="38.400000000000006"/>
      <point x="697.7" y="222.0" type="curve" smooth="yes"/>
      <point x="697.7" y="305.3"/>
      <point x="630.0999999999999" y="360.5"/>
      <point x="536.9" y="367.9" type="curve"/>
      <point x="631.0" y="387.0"/>
      <point x="708.5999999999999" y="471.2"/>
      <point x="708.5999999999999" y="569.6" type="curve" smooth="yes"/>
      <point x="708.5999999999999" y="676.1"/>
      <point x="625.4" y="710.0"/>
      <point x="453.79999999999995" y="710.0" type="curve" smooth="yes"/>
      <point x="390.29999999999995" y="710.0"/>
      <point x="319.9" y="706.6"/>
      <point x="175.8" y="697.7" type="curve"/>
    </contour>
    <contour>
      <point x="143.89999999999998" y="374.5" type="line"/>
      <point x="192.1" y="680.3" type="line"/>
      <point x="280.2" y="686.1"/>
      <point x="364.5" y="692.0"/>
      <point x="450.29999999999995" y="692.0" type="curve" smooth="yes"/>
      <point x="608.3" y="692.0"/>
      <point x="688.9" y="665.1"/>
      <point x="688.9" y="566.5" type="curve" smooth="yes"/>
      <point x="688.9" y="452.9"/>
      <point x="570.0" y="374.5"/>
      <point x="466.59999999999997" y="374.5" type="curve" smooth="yes"/>
    </contour>
    <contour>
      <point x="140.89999999999998" y="356.2" type="line"/>
      <point x="477.29999999999995" y="356.2" type="line" smooth="yes"/>
      <point x="557.4" y="356.2"/>
      <point x="678.7" y="326.7"/>
      <point x="678.7" y="219.0" type="curve" smooth="yes"/>
      <point x="678.7" y="57.10000000000001"/>
      <point x="509.7" y="9.0"/>
      <point x="368.29999999999995" y="9.0" type="curve" smooth="yes"/>
      <point x="259.4" y="9.0"/>
      <point x="196.29999999999998" y="14.899999999999999"/>
      <point x="87.89999999999999" y="20.4" type="curve"/>
    </contour>
  </outline>
</glyph>
<glyph name="C" format="2">
  <advance width="773.1"/>
  <unicode hex="0043"/>
  <anchor x="426.09999999999997" y="0.0" name="bottom"/>
  <anchor x="521.2" y="700.0" name="top"/>
  <outline>
    <contour>
      <point x="437.29999999999995" y="-10.0" type="curve" smooth="yes"/>
      <point x="540.8" y="-10.0"/>
      <point x="627.4" y="2.799999999999999"/>
      <point x="693.5999999999999" y="28.099999999999998" type="curve"/>
      <point x="687.9" y="45.099999999999994" type="line"/>
      <point x="622.4" y="21.5"/>
      <point x="537.0999999999999" y="9.0"/>
      <point x="439.7" y="9.0" type="curve" smooth="yes"/>
      <point x="221.0" y="9.0"/>
      <point x="91.5" y="98.69999999999999"/>
      <point x="91.5" y="267.1" type="curve" smooth="yes"/>
      <point x="91.5" y="518.5"/>
      <point x="252.0" y="691.0"/>
      <point x="514.2" y="691.0" type="curve" smooth="yes"/>
      <point x="605.0999999999999" y="691.0"/>
      <point x="675.0" y="681.0"/>
      <point x="761.5" y="656.8" type="curve"/>
      <point x="767.8" y="674.8" type="line"/>
      <point x="681.0" y="700.0"/>
      <point x="609.9" y="710.0"/>
      <point x="517.9" y="710.0" type="curve" smooth="yes"/>
      <point x="239.0" y="710.0"/>
      <point x="72.5" y="534.5"/>
      <point x="72.5" y="266.8" type="curve" smooth="yes"/>
      <point x="72.5" y="85.4"/>
      <point x="207.1" y="-10.0"/>
    </contour>
  </outline>
</glyph>
<glyph name="D" format="2">
  <advance width="836.3"/>
  <unicode hex="0044"/>
  <anchor x="349.3" y="0.0" name="bottom"/>
  <anchor x="408.9" y="350.0" name="center"/>
  <anchor x="450.79999999999995" y="700.0" name="top"/>
  <outline>
    <contour>
      <point x="324.9" y="-10.0" type="curve" smooth="yes"/>
      <point x="580.7" y="-10.0"/>
      <point x="784.2" y="128.4"/>
      <point x="784.2" y="404.2" type="curve" smooth="yes"/>
      <point x="784.2" y="658.6"/>
      <point x="589.7" y="710.0"/>
      <point x="406.1" y="710.0" type="curve" smooth="yes"/>
      <point x="321.5" y="710.0"/>
      <point x="251.8" y="707.6"/>
      <point x="175.8" y="702.1" type="curve"/>
      <point x="64.5" y="-1.8000000000000007" type="line"/>
      <point x="158.39999999999998" y="-9.0"/>
      <point x="219.29999999999998" y="-10.0"/>
    </contour>
    <contour>
      <point x="320.59999999999997" y="8.4" type="curve" smooth="yes"/>
      <point x="230.6" y="8.4"/>
      <point x="164.6" y="10.1"/>
      <point x="86.19999999999999" y="15.6" type="curve"/>
      <point x="192.1" y="683.0" type="line"/>
      <point x="238.0" y="687.5"/>
      <point x="329.6" y="691.0"/>
      <point x="406.1" y="691.0" type="curve" smooth="yes"/>
      <point x="578.7" y="691.0"/>
      <point x="764.5" y="643.9"/>
      <point x="764.5" y="402.2" type="curve" smooth="yes"/>
      <point x="764.5" y="143.60000000000002"/>
      <point x="572.8" y="8.4"/>
    </contour>
  </outline>
</glyph>
<glyph name="E" format="2">
  <advance width="695.2"/>
  <unicode hex="0045"/>
  <anchor x="337.1" y="0.0" name="bottom"/>
  <anchor x="606.5999999999999" y="0.0" name="ogonek"/>
  <anchor x="436.5" y="700.0" name="top"/>
  <anchor x="107.4" y="700.0" name="topleft"/>
  <outline>
    <contour>
      <point x="64.8" y="0.0" type="line"/>
      <point x="606.5999999999999" y="0.0" type="line"/>
      <point x="609.5999999999999" y="19.0" type="line"/>
      <point x="86.8" y="19.0" type="line"/>
      <point x="142.6" y="368.0" type="line"/>
      <point x="618.5999999999999" y="368.0" type="line"/>
      <point x="621.5999999999999" y="387.0" type="line"/>
      <point x="144.89999999999998" y="387.0" type="line"/>
      <point x="191.5" y="681.0" type="line"/>
      <point x="692.7" y="681.0" type="line"/>
      <point x="696.0" y="700.0" type="line"/>
      <point x="175.5" y="700.0" type="line"/>
    </contour>
  </outline>
</glyph>
<glyph name="F" format="2">
  <advance width="661.0"/>
  <unicode hex="0046"/>
  <outline>
    <contour>
      <point x="64.8" y="0.0" type="line"/>
      <point x="83.5" y="0.0" type="line"/>
      <point x="134.6" y="317.8" type="line"/>
      <point x="579.3" y="317.8" type="line"/>
      <point x="581.5999999999999" y="336.8" type="line"/>
      <point x="136.9" y="336.8" type="line"/>
      <point x="191.5" y="681.0" type="line"/>
      <point x="693.0" y="681.0" type="line"/>
      <point x="696.0" y="700.0" type="line"/>
      <point x="175.5" y="700.0" type="line"/>
    </contour>
  </outline>
</glyph>
<glyph name="G" format="2">
  <advance width="789.3"/>
  <unicode hex="0047"/>
  <anchor x="391.3" y="0.0" name="bottom"/>
  <anchor x="515.0" y="700.0" name="top"/>
  <outline>
    <contour>
      <point x="417.09999999999997" y="-10.0" type="curve" smooth="yes"/>
      <point x="524.0999999999999" y="-10.0"/>
      <point x="616.3" y="11.2"/>
      <point x="675.2" y="35.5" type="curve"/>
      <point x="720.0999999999999" y="318.0" type="line"/>
      <point x="425.09999999999997" y="318.0" type="line"/>
      <point x="422.09999999999997" y="299.0" type="line"/>
      <point x="698.0999999999999" y="299.0" type="line"/>
      <point x="658.2" y="49.099999999999994" type="line"/>
      <point x="600.8" y="24.7"/>
      <point x="517.3" y="9.0"/>
      <point x="420.79999999999995" y="9.0" type="curve" smooth="yes"/>
      <point x="238.5" y="9.0"/>
      <point x="90.8" y="90.3"/>
      <point x="90.8" y="267.1" type="curve" smooth="yes"/>
      <point x="90.8" y="522.7"/>
      <point x="256.9" y="691.0"/>
      <point x="511.4" y="691.0" type="curve" smooth="yes"/>
      <point x="598.8" y="691.0"/>
      <point x="661.7" y="681.0"/>
      <point x="746.8" y="656.1" type="curve"/>
      <point x="753.0999999999999" y="673.4" type="line"/>
      <point x="684.8" y="696.6"/>
      <point x="600.8" y="710.0"/>
      <point x="515.0999999999999" y="710.0" type="curve" smooth="yes"/>
      <point x="243.6" y="710.0"/>
      <point x="71.8" y="539.4"/>
      <point x="71.8" y="263.3" type="curve" smooth="yes"/>
      <point x="71.8" y="78.4"/>
      <point x="224.6" y="-10.0"/>
    </contour>
  </outline>
</glyph>
<glyph name="H" format="2">
  <advance width="863.4"/>
  <unicode hex="0048"/>
  <anchor x="388.5108" y="0.0" name="bottom"/>
  <anchor x="444.1153" y="350.0" name="center"/>
  <anchor x="499.41909999999996" y="700.0" name="top"/>
  <anchor x="86.6191" y="700.0" name="topleft"/>
  <outline>
    <contour>
      <point x="64.8" y="0.0" type="line"/>
      <point x="84.1" y="0.0" type="line"/>
      <point x="130.1" y="291.0" type="line"/>
      <point x="737.9" y="291.0" type="line"/>
      <point x="691.9" y="0.0" type="line"/>
      <point x="710.9" y="0.0" type="line"/>
      <point x="821.9" y="700.0" type="line"/>
      <point x="802.9" y="700.0" type="line"/>
      <point x="740.9" y="310.0" type="line"/>
      <point x="132.8" y="310.0" type="line"/>
      <point x="194.8" y="700.0" type="line"/>
      <point x="175.5" y="700.0" type="line"/>
    </contour>
  </outline>
</glyph>
<glyph name="I" format="2">
  <advance width="236.29999999999998"/>
  <unicode hex="0049"/>
  <anchor x="74.8108" y="0.0" name="bottom"/>
  <anchor x="83.8" y="0.0" name="ogonek"/>
  <anchor x="185.71909999999997" y="700.0" name="top"/>
  <anchor x="107.4" y="700.0" name="topleft"/>
  <outline>
    <contour>
      <point x="64.8" y="0.0" type="line"/>
      <point x="83.8" y="0.0" type="line"/>
      <point x="194.8" y="700.0" type="line"/>
      <point x="175.5" y="700.0" type="line"/>
    </contour>
  </outline>
</glyph>
<glyph name="J" format="2">
  <advance width="571.5999999999999"/>
  <unicode hex="004A"/>
  <anchor x="225.5" y="0.0" name="bottom"/>
  <anchor x="348.79999999999995" y="700.0" name="top"/>
  <outline>
    <contour>
      <point x="-15.200000000000003" y="27.799999999999997" type="line"/>
      <point x="29.4" y="10.899999999999999"/>
      <point x="85.69999999999999" y="-10.0"/>
      <point x="192.79999999999998" y="-10.0" type="curve" smooth="yes"/>
      <point x="335.1" y="-10.0"/>
      <point x="443.09999999999997" y="61.9"/>
      <point x="469.9" y="224.89999999999998" type="curve" smooth="yes"/>
      <point x="545.0" y="700.0" type="line"/>
      <point x="144.0" y="700.0" type="line"/>
      <point x="141.0" y="681.0" type="line"/>
      <point x="523.0" y="681.0" type="line"/>
      <point x="449.9" y="224.0" type="line" smooth="yes"/>
      <point x="425.59999999999997" y="69.9"/>
      <point x="320.5" y="9.0"/>
      <point x="195.5" y="9.0" type="curve" smooth="yes"/>
      <point x="91.19999999999999" y="9.0"/>
      <point x="34.9" y="30.9"/>
      <point x="-10.200000000000003" y="47.8" type="curve"/>
    </contour>
  </outline>
</glyph>
<glyph name="K" format="2">
  <advance width="750.0"/>
  <unicode hex="004B"/>
  <anchor x="341.5" y="0.0" name="bottom"/>
  <anchor x="431.0" y="700.0" name="top"/>
  <outline>
    <contour>
      <point x="64.5" y="0.0" type="line"/>
      <point x="84.0" y="0.0" type="line"/>
      <point x="194.5" y="700.0" type="line"/>
      <point x="175.5" y="700.0" type="line"/>
    </contour>
    <contour>
      <point x="688.5" y="-9.5" type="curve" smooth="yes"/>
      <point x="692.0" y="-9.5"/>
      <point x="698.5" y="-9.5"/>
      <point x="703.5" y="-8.0" type="curve"/>
      <point x="703.0" y="10.0" type="line"/>
      <point x="699.5" y="10.0"/>
      <point x="696.0" y="9.5"/>
      <point x="692.0" y="9.5" type="curve" smooth="yes"/>
      <point x="639.0" y="9.5"/>
      <point x="604.0" y="33.5"/>
      <point x="523.5" y="106.0" type="curve" smooth="yes"/>
      <point x="145.0" y="448.0" type="line"/>
      <point x="142.0" y="424.5" type="line"/>
      <point x="484.5" y="108.5" type="line" smooth="yes"/>
      <point x="580.5" y="23.0"/>
      <point x="624.0" y="-9.5"/>
    </contour>
    <contour>
      <point x="271.0" y="319.0" type="line"/>
      <point x="402.0" y="379.0"/>
      <point x="644.0" y="516.5"/>
      <point x="775.0" y="700.0" type="curve"/>
      <point x="760.5" y="710.0" type="line"/>
      <point x="621.0" y="523.5"/>
      <point x="384.0" y="391.0"/>
      <point x="257.5" y="333.5" type="curve"/>
    </contour>
  </outline>
</glyph>
<glyph name="L" format="2">
  <advance width="618.2"/>
  <unicode hex="004C"/>
  <anchor x="313.0" y="0.0" name="bottom"/>
  <anchor x="317.9153" y="350.0" name="center"/>
  <anchor x="184.5" y="700.0" name="top"/>
  <anchor x="487.9" y="700.0" name="topright"/>
  <outline>
    <contour>
      <point x="64.5" y="0.0" type="line"/>
      <point x="560.5" y="0.0" type="line"/>
      <point x="563.5" y="19.0" type="line"/>
      <point x="86.5" y="19.0" type="line"/>
      <point x="194.5" y="700.0" type="line"/>
      <point x="175.5" y="700.0" type="line"/>
    </contour>
  </outline>
</glyph>
<glyph name="M" format="2">
  <advance width="976.9999999999999"/>
  <unicode hex="004D"/>
  <outline>
    <contour>
      <point x="64.5" y="0.0" type="line"/>
      <point x="84.99999999999999" y="0.0" type="line"/>
      <point x="190.5" y="673.0" type="line"/>
      <point x="484.5" y="288.0" type="line"/>
      <point x="495.99999999999994" y="288.0" type="line"/>
      <point x="912.9999999999999" y="672.5" type="line"/>
      <point x="805.4999999999999" y="0.0" type="line"/>
      <point x="824.4999999999999" y="0.0" type="line"/>
      <point x="935.4999999999999" y="700.0" type="line"/>
      <point x="913.9999999999999" y="700.0" type="line"/>
      <point x="492.49999999999994" y="310.0" type="line"/>
      <point x="195.0" y="700.0" type="line"/>
      <point x="175.5" y="700.0" type="line"/>
    </contour>
  </outline>
</glyph>
<glyph name="N" format="2">
  <advance width="863.9999999999999"/>
  <unicode hex="004E"/>
  <anchor x="383.49999999999994" y="0.0" name="bottom"/>
  <anchor x="500.99999999999994" y="700.0" name="top"/>
  <outline>
    <contour>
      <point x="65.0" y="0.0" type="line"/>
      <point x="85.0" y="0.0" type="line"/>
      <point x="191.5" y="678.0" type="line"/>
      <point x="692.5" y="-7.0" type="line"/>
      <point x="710.5" y="-7.0" type="line"/>
      <point x="822.5" y="700.0" type="line"/>
      <point x="803.0" y="700.0" type="line"/>
      <point x="696.5" y="22.000000000000004" type="line"/>
      <point x="196.0" y="707.0" type="line"/>
      <point x="177.0" y="707.0" type="line"/>
    </contour>
  </outline>
</glyph>
<glyph name="O" format="2">
  <advance width="885.9999999999999"/>
  <unicode hex="004F"/>
  <note>
8
</note>
  <anchor x="402.7219999999999" y="0.0" name="bottom"/>
  <anchor x="458.43949999999995" y="350.0" name="center"/>
  <anchor x="478.0" y="0.0" name="ogonek"/>
  <anchor x="500.49999999999994" y="700.0" name="top"/>
  <anchor x="96.5" y="700.0" name="topleft"/>
  <anchor x="713.0" y="667.0" name="topright"/>
  <outline>
    <contour>
      <point x="429.49999999999994" y="-10.0" type="curve" smooth="yes"/>
      <point x="683.5" y="-10.0"/>
      <point x="833.4999999999999" y="148.5"/>
      <point x="833.4999999999999" y="414.5" type="curve" smooth="yes"/>
      <point x="833.4999999999999" y="607.5"/>
      <point x="716.5" y="710.0"/>
      <point x="480.5" y="710.0" type="curve" smooth="yes"/>
      <point x="226.5" y="710.0"/>
      <point x="76.5" y="551.5"/>
      <point x="76.5" y="285.5" type="curve" smooth="yes"/>
      <point x="76.5" y="92.5"/>
      <point x="193.5" y="-10.0"/>
    </contour>
    <contour>
      <point x="428.99999999999994" y="8.5" type="curve" smooth="yes"/>
      <point x="206.0" y="8.5"/>
      <point x="95.5" y="106.5"/>
      <point x="95.5" y="288.0" type="curve" smooth="yes"/>
      <point x="95.5" y="540.0"/>
      <point x="237.5" y="691.5"/>
      <point x="481.0" y="691.5" type="curve" smooth="yes"/>
      <point x="704.0" y="691.5"/>
      <point x="814.4999999999999" y="593.5"/>
      <point x="814.4999999999999" y="412.0" type="curve" smooth="yes"/>
      <point x="814.4999999999999" y="160.0"/>
      <point x="672.5" y="8.5"/>
    </contour>
  </outline>
</glyph>
<glyph name="P" format="2">
  <advance width="752.5"/>
  <unicode hex="0050"/>
  <outline>
    <contour>
      <point x="65.0" y="0.0" type="line"/>
      <point x="84.0" y="0.0" type="line"/>
      <point x="126.0" y="263.5" type="line"/>
      <point x="222.49999999999997" y="260.5"/>
      <point x="281.0" y="259.0"/>
      <point x="379.5" y="259.0" type="curve" smooth="yes"/>
      <point x="626.0" y="259.0"/>
      <point x="735.0" y="344.0"/>
      <point x="736.5" y="518.5" type="curve" smooth="yes"/>
      <point x="737.0" y="655.0"/>
      <point x="645.5" y="710.0"/>
      <point x="423.5" y="710.0" type="curve" smooth="yes"/>
      <point x="381.5" y="710.0"/>
      <point x="335.0" y="708.0"/>
      <point x="176.0" y="701.0" type="curve"/>
    </contour>
    <contour>
      <point x="192.0" y="683.0" type="line"/>
      <point x="307.5" y="688.5"/>
      <point x="369.0" y="691.0"/>
      <point x="420.5" y="691.0" type="curve" smooth="yes"/>
      <point x="637.0" y="691.0"/>
      <point x="717.5" y="646.5"/>
      <point x="717.5" y="514.0" type="curve" smooth="yes"/>
      <point x="717.5" y="357.5"/>
      <point x="617.5" y="278.0"/>
      <point x="383.49999999999994" y="278.0" type="curve" smooth="yes"/>
      <point x="297.0" y="278.0"/>
      <point x="231.49999999999997" y="280.5"/>
      <point x="129.0" y="283.0" type="curve"/>
    </contour>
  </outline>
</glyph>
<glyph name="Q" format="2">
  <advance width="888.1999999999999"/>
  <unicode hex="0051"/>
  <note>
14
</note>
  <outline>
    <contour>
      <point x="611.5999999999999" y="-208.0" type="curve" smooth="yes"/>
      <point x="660.3" y="-208.0"/>
      <point x="698.3" y="-196.5"/>
      <point x="732.5" y="-176.5" type="curve"/>
      <point x="725.7" y="-159.5" type="line"/>
      <point x="687.8" y="-180.3"/>
      <point x="651.8" y="-189.3"/>
      <point x="611.5" y="-189.3" type="curve" smooth="yes"/>
      <point x="514.9" y="-189.3"/>
      <point x="437.09999999999997" y="-121.2"/>
      <point x="412.2" y="-3.5" type="curve"/>
      <point x="392.79999999999995" y="-3.4" type="line"/>
      <point x="424.7" y="-145.3"/>
      <point x="514.3" y="-208.0"/>
    </contour>
    <component base="O"/>
  </outline>
</glyph>
<glyph name="R" format="2">
  <advance width="782.5"/>
  <unicode hex="0052"/>
  <anchor x="373.99999999999994" y="0.0" name="bottom"/>
  <anchor x="414.5" y="700.0" name="top"/>
  <outline>
    <contour>
      <point x="65.5" y="0.0" type="line"/>
      <point x="84.5" y="0.0" type="line"/>
      <point x="134.0" y="310.0" type="line"/>
      <point x="234.99999999999997" y="307.5"/>
      <point x="322.5" y="306.0"/>
      <point x="446.0" y="306.0" type="curve"/>
      <point x="449.0" y="306.0" type="line"/>
      <point x="629.0" y="306.5"/>
      <point x="726.0" y="382.5"/>
      <point x="726.0" y="531.0" type="curve" smooth="yes"/>
      <point x="726.0" y="663.0"/>
      <point x="661.5" y="710.0"/>
      <point x="412.5" y="710.0" type="curve" smooth="yes"/>
      <point x="319.5" y="710.0"/>
      <point x="265.5" y="708.0"/>
      <point x="176.5" y="702.5" type="curve"/>
    </contour>
    <contour>
      <point x="739.9999999999999" y="-10.0" type="curve" smooth="yes"/>
      <point x="744.4999999999999" y="-10.0"/>
      <point x="749.9999999999999" y="-9.0"/>
      <point x="754.4999999999999" y="-8.0" type="curve"/>
      <point x="751.9999999999999" y="10.5" type="line"/>
      <point x="747.4999999999999" y="9.0"/>
      <point x="741.4999999999999" y="9.0"/>
      <point x="738.9999999999999" y="9.0" type="curve" smooth="yes"/>
      <point x="668.5" y="9.5"/>
      <point x="569.5" y="119.5"/>
      <point x="462.49999999999994" y="315.5" type="curve"/>
      <point x="440.99999999999994" y="314.0" type="line"/>
      <point x="548.0" y="110.5"/>
      <point x="654.0" y="-10.0"/>
    </contour>
    <contour>
      <point x="448.5" y="325.0" type="curve" smooth="yes"/>
      <point x="307.5" y="325.0"/>
      <point x="221.99999999999997" y="326.5"/>
      <point x="137.5" y="329.5" type="curve"/>
      <point x="193.0" y="684.5" type="line"/>
      <point x="280.5" y="689.5"/>
      <point x="318.5" y="691.5"/>
      <point x="410.0" y="691.5" type="curve" smooth="yes"/>
      <point x="647.5" y="691.5"/>
      <point x="706.5" y="651.0"/>
      <point x="706.5" y="531.5" type="curve" smooth="yes"/>
      <point x="706.5" y="396.5"/>
      <point x="619.5" y="325.0"/>
    </contour>
  </outline>
</glyph>
<glyph name="S" format="2">
  <advance width="699.0"/>
  <unicode hex="0053"/>
  <anchor x="300.0" y="0.0" name="bottom"/>
  <anchor x="421.0" y="700.0" name="top"/>
  <outline>
    <contour>
      <point x="658.0" y="671.5" type="line"/>
      <point x="570.5" y="698.5"/>
      <point x="511.99999999999994" y="710.0"/>
      <point x="429.5" y="710.0" type="curve" smooth="yes"/>
      <point x="218.0" y="710.0"/>
      <point x="112.0" y="635.5"/>
      <point x="112.0" y="521.5" type="curve" smooth="yes"/>
      <point x="112.0" y="288.0"/>
      <point x="607.5" y="391.0"/>
      <point x="607.0" y="172.5" type="curve" smooth="yes"/>
      <point x="607.0" y="75.0"/>
      <point x="519.5" y="9.5"/>
      <point x="318.0" y="9.5" type="curve" smooth="yes"/>
      <point x="221.0" y="9.5"/>
      <point x="99.5" y="31.499999999999996"/>
      <point x="17.0" y="61.99999999999999" type="curve"/>
      <point x="7.999999999999998" y="42.49999999999999" type="line"/>
      <point x="108.5" y="8.5"/>
      <point x="219.0" y="-10.0"/>
      <point x="315.0" y="-10.0" type="curve" smooth="yes"/>
      <point x="537.0" y="-10.0"/>
      <point x="626.5" y="61.5"/>
      <point x="626.5" y="175.0" type="curve" smooth="yes"/>
      <point x="627.0" y="409.5"/>
      <point x="131.0" y="307.0"/>
      <point x="131.0" y="525.0" type="curve" smooth="yes"/>
      <point x="131.0" y="625.5"/>
      <point x="241.5" y="691.5"/>
      <point x="426.0" y="691.5" type="curve" smooth="yes"/>
      <point x="504.99999999999994" y="691.5"/>
      <point x="577.0" y="678.5"/>
      <point x="649.5" y="652.5" type="curve"/>
    </contour>
  </outline>
</glyph>
<glyph name="T" format="2">
  <advance width="608.4"/>
  <unicode hex="0054"/>
  <anchor x="260.2" y="0.0" name="bottom"/>
  <anchor x="316.1153" y="350.0" name="center"/>
  <anchor x="371.41909999999996" y="700.0" name="top"/>
  <outline>
    <contour>
      <point x="665.3" y="681.0" type="line"/>
      <point x="668.3" y="700.0" type="line"/>
      <point x="74.1" y="700.0" type="line"/>
      <point x="71.1" y="681.0" type="line"/>
      <point x="358.9" y="681.0" type="line"/>
      <point x="250.89999999999998" y="0.0" type="line"/>
      <point x="269.9" y="0.0" type="line"/>
      <point x="377.9" y="681.0" type="line"/>
    </contour>
  </outline>
</glyph>
<glyph name="U" format="2">
  <advance width="834.6999999999999"/>
  <unicode hex="0055"/>
  <anchor x="373.7" y="0.0" name="bottom"/>
  <anchor x="428.59999999999997" y="0.0" name="ogonek"/>
  <anchor x="481.29999999999995" y="700.0" name="top"/>
  <anchor x="808.0999999999999" y="700.0" name="topright"/>
  <outline>
    <contour>
      <point x="371.7" y="-10.0" type="curve" smooth="yes"/>
      <point x="588.3" y="-10.0"/>
      <point x="708.4" y="72.4"/>
      <point x="734.9" y="238.2" type="curve" smooth="yes"/>
      <point x="808.0999999999999" y="700.0" type="line"/>
      <point x="788.8" y="700.0" type="line"/>
      <point x="714.9" y="238.2" type="line" smooth="yes"/>
      <point x="690.7" y="85.6"/>
      <point x="577.2" y="9.0"/>
      <point x="375.29999999999995" y="9.0" type="curve" smooth="yes"/>
      <point x="184.1" y="9.0"/>
      <point x="84.6" y="88.9"/>
      <point x="107.5" y="234.3" type="curve" smooth="yes"/>
      <point x="180.3" y="700.0" type="line"/>
      <point x="161.3" y="700.0" type="line"/>
      <point x="88.19999999999999" y="237.7" type="line" smooth="yes"/>
      <point x="84.8" y="214.1"/>
      <point x="84.1" y="203.7"/>
      <point x="84.1" y="190.1" type="curve" smooth="yes"/>
      <point x="84.1" y="61.099999999999994"/>
      <point x="187.5" y="-10.0"/>
    </contour>
  </outline>
</glyph>
<glyph name="V" format="2">
  <advance width="691.5"/>
  <unicode hex="0056"/>
  <outline>
    <contour>
      <point x="299.5" y="0.0" type="line"/>
      <point x="679.5" y="535.5"/>
      <point x="728.0" y="618.0"/>
      <point x="728.0" y="673.5" type="curve" smooth="yes"/>
      <point x="728.0" y="682.5"/>
      <point x="727.0" y="692.0"/>
      <point x="724.5" y="700.0" type="curve"/>
      <point x="705.5" y="700.0" type="line"/>
      <point x="708.0" y="689.5"/>
      <point x="708.5" y="680.0"/>
      <point x="708.5" y="674.0" type="curve" smooth="yes"/>
      <point x="708.5" y="622.0"/>
      <point x="665.5" y="552.5"/>
      <point x="293.0" y="23.000000000000004" type="curve"/>
      <point x="93.5" y="707.5" type="line"/>
      <point x="75.5" y="701.5" type="line"/>
      <point x="278.5" y="0.0" type="line"/>
    </contour>
  </outline>
</glyph>
<glyph name="W" format="2">
  <advance width="1070.0"/>
  <unicode hex="0057"/>
  <anchor x="484.99999999999994" y="0.0" name="bottom"/>
  <anchor x="599.0" y="700.0" name="top"/>
  <outline>
    <contour>
      <point x="756.0" y="-0.5000000000000001" type="line"/>
      <point x="1050.0" y="523.0"/>
      <point x="1108.5" y="626.5"/>
      <point x="1108.5" y="679.5" type="curve" smooth="yes"/>
      <point x="1108.5" y="686.0"/>
      <point x="1108.0" y="692.5"/>
      <point x="1106.0" y="700.0" type="curve"/>
      <point x="1086.0" y="700.0" type="line"/>
      <point x="1087.5" y="693.5"/>
      <point x="1089.0" y="689.0"/>
      <point x="1089.0" y="679.5" type="curve" smooth="yes"/>
      <point x="1089.0" y="630.5"/>
      <point x="1041.0" y="544.0"/>
      <point x="751.0" y="29.500000000000004" type="curve"/>
      <point x="597.5" y="646.5" type="line"/>
      <point x="576.0" y="646.5" type="line"/>
      <point x="468.5" y="442.0"/>
      <point x="360.5" y="235.0"/>
      <point x="252.99999999999997" y="30.000000000000004" type="curve"/>
      <point x="96.0" y="700.0" type="line"/>
      <point x="75.5" y="700.0" type="line"/>
      <point x="239.5" y="-0.5000000000000001" type="line"/>
      <point x="258.0" y="-0.5000000000000001" type="line"/>
      <point x="366.5" y="206.5"/>
      <point x="475.0" y="413.0"/>
      <point x="583.5" y="620.0" type="curve"/>
      <point x="737.5" y="-0.5000000000000001" type="line"/>
    </contour>
  </outline>
</glyph>
<glyph name="X" format="2">
  <advance width="709.0"/>
  <unicode hex="0058"/>
  <outline>
    <contour>
      <point x="652.5" y="-7.5" type="line"/>
      <point x="667.0" y="2.999999999999999" type="line"/>
      <point x="380.0" y="367.5" type="line"/>
      <point x="569.0" y="490.5"/>
      <point x="684.0" y="572.0"/>
      <point x="723.0" y="701.5" type="curve"/>
      <point x="706.5" y="707.5" type="line"/>
      <point x="663.0" y="579.5"/>
      <point x="563.0" y="511.5"/>
      <point x="369.0" y="382.5" type="curve"/>
      <point x="115.0" y="707.5" type="line"/>
      <point x="99.0" y="696.0" type="line"/>
      <point x="351.5" y="372.5" type="line"/>
      <point x="155.0" y="251.5"/>
      <point x="44.5" y="164.5"/>
      <point x="14.999999999999996" y="0.0" type="curve"/>
      <point x="35.0" y="0.0" type="line"/>
      <point x="68.0" y="157.0"/>
      <point x="164.5" y="234.5"/>
      <point x="363.0" y="357.5" type="curve"/>
    </contour>
  </outline>
</glyph>
<glyph name="Y" format="2">
  <advance width="644.0"/>
  <unicode hex="0059"/>
  <anchor x="273.5" y="0.0" name="bottom"/>
  <anchor x="394.0" y="700.0" name="top"/>
  <anchor x="80.5" y="700.0" name="topleft"/>
  <outline>
    <contour>
      <point x="278.0" y="0.0" type="line"/>
      <point x="297.0" y="0.0" type="line"/>
      <point x="348.0" y="304.5" type="line"/>
      <point x="558.5" y="467.0"/>
      <point x="634.0" y="555.5"/>
      <point x="674.0" y="659.0" type="curve" smooth="yes"/>
      <point x="679.5" y="672.5"/>
      <point x="685.0" y="686.5"/>
      <point x="689.5" y="701.0" type="curve"/>
      <point x="671.5" y="708.0" type="line"/>
      <point x="666.5" y="692.5"/>
      <point x="661.0" y="678.5"/>
      <point x="655.0" y="663.5" type="curve" smooth="yes"/>
      <point x="617.5" y="570.0"/>
      <point x="555.0" y="487.5"/>
      <point x="340.0" y="321.0" type="curve"/>
      <point x="85.5" y="708.0" type="line"/>
      <point x="69.5" y="698.0" type="line"/>
      <point x="328.0" y="304.5" type="line"/>
    </contour>
  </outline>
</glyph>
<glyph name="Z" format="2">
  <advance width="670.0"/>
  <unicode hex="005A"/>
  <anchor x="298.5" y="0.0" name="bottom"/>
  <anchor x="343.5" y="350.0" name="center"/>
  <anchor x="399.5" y="700.0" name="top"/>
  <outline>
    <contour>
      <point x="-11.500000000000004" y="0.0" type="line"/>
      <point x="608.5" y="0.0" type="line"/>
      <point x="611.5" y="19.0" type="line"/>
      <point x="22.5" y="19.0" type="line"/>
      <point x="682.0" y="685.0" type="line"/>
      <point x="684.0" y="700.0" type="line"/>
      <point x="131.5" y="700.0" type="line"/>
      <point x="128.5" y="681.0" type="line"/>
      <point x="651.0" y="681.0" type="line"/>
      <point x="-9.000000000000004" y="15.0" type="line"/>
    </contour>
  </outline>
</glyph>
<glyph name="bracketleft" format="2">
  <advance width="370.6"/>
  <unicode hex="005B"/>
  <outline>
    <contour>
      <point x="80.0" y="-192.0" type="line"/>
      <point x="225.0" y="722.7" type="line"/>
      <point x="422.7" y="722.7" type="line"/>
      <point x="425.7" y="740.0" type="line"/>
      <point x="208.7" y="740.0" type="line"/>
      <point x="58.0" y="-210.0" type="line"/>
      <point x="274.7" y="-210.0" type="line"/>
      <point x="277.7" y="-192.0" type="line"/>
    </contour>
  </outline>
</glyph>
<glyph name="bracketright" format="2">
  <advance width="370.6"/>
  <unicode hex="005D"/>
  <outline>
    <contour>
      <point x="-54.1" y="-192.0" type="line"/>
      <point x="-57.1" y="-210.0" type="line"/>
      <point x="158.6" y="-210.0" type="line"/>
      <point x="309.6" y="740.0" type="line"/>
      <point x="92.9" y="740.0" type="line"/>
      <point x="89.9" y="722.0" type="line"/>
      <point x="287.6" y="722.0" type="line"/>
      <point x="142.6" y="-192.0" type="line"/>
    </contour>
  </outline>
</glyph>
<glyph name="asciicircum" format="2">
  <advance width="459.4"/>
  <unicode hex="005E"/>
  <outline>
    <contour>
      <point x="51.5" y="276.9" type="line"/>
      <point x="71.9" y="276.9" type="line"/>
      <point x="294.9" y="685.9" type="line"/>
      <point x="389.5" y="276.9" type="line"/>
      <point x="408.5" y="276.9" type="line"/>
      <point x="307.2" y="710.0" type="line"/>
      <point x="288.6" y="710.0" type="line"/>
    </contour>
  </outline>
</glyph>
<glyph name="underscore" format="2">
  <advance width="882.5999999999999"/>
  <unicode hex="005F"/>
  <outline>
    <contour>
      <point x="-48.900000000000006" y="-136.0" type="line"/>
      <point x="801.5" y="-136.0" type="line"/>
      <point x="804.5" y="-117.4" type="line"/>
      <point x="-45.900000000000006" y="-117.4" type="line"/>
    </contour>
  </outline>
</glyph>
<glyph name="a" format="2">
  <advance width="628.5999999999999"/>
  <unicode hex="0061"/>
  <note>
15
</note>
  <anchor x="260.5" y="0.0" name="bottom"/>
  <anchor x="582.0" y="0.0" name="ogonek"/>
  <anchor x="360.6" y="530.0" name="top"/>
  <outline>
    <contour>
      <point x="541.3" y="-10.0" type="curve" smooth="yes"/>
      <point x="556.0" y="-10.0"/>
      <point x="570.0" y="-7.4"/>
      <point x="582.7" y="-2.0999999999999996" type="curve"/>
      <point x="579.8" y="14.0" type="line"/>
      <point x="569.2" y="9.7"/>
      <point x="558.0999999999999" y="7.4"/>
      <point x="545.3" y="7.4" type="curve" smooth="yes"/>
      <point x="512.0999999999999" y="7.4"/>
      <point x="496.29999999999995" y="27.299999999999997"/>
      <point x="496.29999999999995" y="68.5" type="curve" smooth="yes"/>
      <point x="496.29999999999995" y="75.8"/>
      <point x="523.4" y="246.89999999999998"/>
      <point x="564.9" y="504.4" type="curve"/>
      <point x="518.4" y="527.0"/>
      <point x="454.6" y="540.0"/>
      <point x="392.9" y="540.0" type="curve" smooth="yes"/>
      <point x="183.7" y="540.0"/>
      <point x="42.9" y="396.3"/>
      <point x="42.9" y="189.6" type="curve" smooth="yes"/>
      <point x="42.9" y="61.8"/>
      <point x="119.0" y="-10.0"/>
      <point x="251.2" y="-10.0" type="curve" smooth="yes"/>
      <point x="328.7" y="-10.0"/>
      <point x="418.79999999999995" y="18.9"/>
      <point x="479.29999999999995" y="61.699999999999996" type="curve"/>
      <point x="480.5" y="16.799999999999997"/>
      <point x="503.29999999999995" y="-10.0"/>
    </contour>
    <contour>
      <point x="477.0" y="80.5" type="line"/>
      <point x="415.79999999999995" y="37.7"/>
      <point x="329.0" y="8.7"/>
      <point x="254.39999999999998" y="8.7" type="curve" smooth="yes"/>
      <point x="132.3" y="8.7"/>
      <point x="62.599999999999994" y="75.1"/>
      <point x="62.599999999999994" y="192.3" type="curve" smooth="yes"/>
      <point x="62.599999999999994" y="388.0"/>
      <point x="197.39999999999998" y="522.3"/>
      <point x="384.9" y="522.3" type="curve" smooth="yes"/>
      <point x="448.6" y="522.3"/>
      <point x="503.4" y="512.3"/>
      <point x="542.5" y="493.0" type="curve"/>
    </contour>
  </outline>
</glyph>
<glyph name="b" format="2">
  <advance width="628.3"/>
  <unicode hex="0062"/>
  <note>
12
</note>
  <outline>
    <contour>
      <point x="193.9" y="740.0" type="line"/>
      <point x="174.9" y="740.0" type="line"/>
      <point x="60.3" y="15.899999999999999" type="line"/>
      <point x="115.19999999999999" y="1.6999999999999993"/>
      <point x="174.2" y="-10.0"/>
      <point x="243.2" y="-10.0" type="curve" smooth="yes"/>
      <point x="426.1" y="-10.0"/>
      <point x="583.7" y="136.8"/>
      <point x="583.7" y="346.7" type="curve" smooth="yes"/>
      <point x="583.7" y="466.9"/>
      <point x="520.5" y="540.0"/>
      <point x="395.7" y="540.0" type="curve" smooth="yes"/>
      <point x="302.6" y="540.0"/>
      <point x="225.8" y="499.4"/>
      <point x="147.0" y="445.3" type="curve"/>
    </contour>
    <contour>
      <point x="391.6" y="521.3" type="curve" smooth="yes"/>
      <point x="509.7" y="521.3"/>
      <point x="564.7" y="448.8"/>
      <point x="564.7" y="343.7" type="curve" smooth="yes"/>
      <point x="564.7" y="146.8"/>
      <point x="415.0" y="8.7"/>
      <point x="244.0" y="8.7" type="curve" smooth="yes"/>
      <point x="177.79999999999998" y="8.7"/>
      <point x="120.0" y="20.799999999999997"/>
      <point x="82.0" y="30.299999999999997" type="curve"/>
      <point x="144.0" y="422.2" type="line"/>
      <point x="238.8" y="490.6"/>
      <point x="314.4" y="521.3"/>
    </contour>
  </outline>
</glyph>
<glyph name="c" format="2">
  <advance width="575.5"/>
  <unicode hex="0063"/>
  <note>
10
</note>
  <anchor x="302.2" y="0.0" name="bottom"/>
  <anchor x="381.5" y="530.0" name="top"/>
  <outline>
    <contour>
      <point x="297.4" y="-10.0" type="curve" smooth="yes"/>
      <point x="387.09999999999997" y="-10.0"/>
      <point x="449.59999999999997" y="4.199999999999999"/>
      <point x="503.5" y="21.099999999999998" type="curve"/>
      <point x="499.09999999999997" y="38.5" type="line"/>
      <point x="445.4" y="21.9"/>
      <point x="387.2" y="8.4"/>
      <point x="300.7" y="8.4" type="curve" smooth="yes"/>
      <point x="158.0" y="8.4"/>
      <point x="65.9" y="79.5"/>
      <point x="65.9" y="190.39999999999998" type="curve" smooth="yes"/>
      <point x="65.9" y="388.1"/>
      <point x="195.89999999999998" y="521.0"/>
      <point x="377.9" y="521.0" type="curve" smooth="yes"/>
      <point x="441.2" y="521.0"/>
      <point x="503.09999999999997" y="511.6"/>
      <point x="565.0999999999999" y="492.6" type="curve"/>
      <point x="571.4" y="512.0" type="line"/>
      <point x="507.5" y="531.0"/>
      <point x="446.4" y="540.0"/>
      <point x="380.9" y="540.0" type="curve" smooth="yes"/>
      <point x="183.89999999999998" y="540.0"/>
      <point x="47.199999999999996" y="403.6"/>
      <point x="47.199999999999996" y="190.6" type="curve" smooth="yes"/>
      <point x="47.199999999999996" y="68.0"/>
      <point x="142.8" y="-10.0"/>
    </contour>
  </outline>
</glyph>
<glyph name="d" format="2">
  <advance width="636.0"/>
  <unicode hex="0064"/>
  <note>
17
</note>
  <anchor x="255.7" y="0.0" name="bottom"/>
  <anchor x="316.7" y="303.5" name="center"/>
  <anchor x="392.0" y="740.0" name="top"/>
  <anchor x="703.5" y="740.0" name="topright"/>
  <outline>
    <contour>
      <point x="542.8" y="-10.0" type="curve" smooth="yes"/>
      <point x="553.4" y="-10.0"/>
      <point x="566.7" y="-7.7"/>
      <point x="581.4" y="-2.0999999999999996" type="curve"/>
      <point x="576.4" y="14.0" type="line"/>
      <point x="566.4" y="10.0"/>
      <point x="554.7" y="7.4"/>
      <point x="541.5999999999999" y="7.4" type="curve" smooth="yes"/>
      <point x="510.4" y="7.4"/>
      <point x="492.9" y="27.0"/>
      <point x="492.9" y="62.199999999999996" type="curve" smooth="yes"/>
      <point x="492.9" y="68.8"/>
      <point x="569.0999999999999" y="544.7"/>
      <point x="600.0" y="740.0" type="curve"/>
      <point x="581.0" y="740.0" type="line"/>
      <point x="545.9" y="519.4" type="line"/>
      <point x="503.29999999999995" y="529.3"/>
      <point x="454.59999999999997" y="540.0"/>
      <point x="385.7" y="540.0" type="curve" smooth="yes"/>
      <point x="189.0" y="540.0"/>
      <point x="42.3" y="393.6"/>
      <point x="42.3" y="183.89999999999998" type="curve" smooth="yes"/>
      <point x="42.3" y="55.8"/>
      <point x="124.69999999999999" y="-10.0"/>
      <point x="245.39999999999998" y="-10.0" type="curve" smooth="yes"/>
      <point x="323.0" y="-10.0"/>
      <point x="421.29999999999995" y="19.5"/>
      <point x="475.2" y="55.199999999999996" type="curve"/>
      <point x="477.4" y="13.0"/>
      <point x="501.0" y="-10.0"/>
    </contour>
    <contour>
      <point x="247.5" y="9.0" type="curve" smooth="yes"/>
      <point x="137.7" y="9.0"/>
      <point x="61.7" y="70.7"/>
      <point x="61.7" y="186.2" type="curve" smooth="yes"/>
      <point x="61.7" y="376.7"/>
      <point x="200.2" y="522.3"/>
      <point x="378.9" y="522.3" type="curve" smooth="yes"/>
      <point x="452.1" y="522.3"/>
      <point x="502.7" y="510.2"/>
      <point x="542.9" y="501.0" type="curve"/>
      <point x="475.29999999999995" y="73.69999999999999" type="line"/>
      <point x="412.7" y="35.2"/>
      <point x="325.4" y="9.0"/>
    </contour>
  </outline>
</glyph>
<glyph name="e" format="2">
  <advance width="600.0"/>
  <unicode hex="0065"/>
  <note>
14 points
</note>
  <anchor x="296.6" y="0.0" name="bottom"/>
  <anchor x="425.7" y="9.1" name="ogonek"/>
  <anchor x="384.29999999999995" y="530.6" name="top"/>
  <outline>
    <contour>
      <point x="66.3" y="276.0" type="curve"/>
      <point x="62.599999999999994" y="258.7" type="line"/>
      <point x="121.5" y="250.0"/>
      <point x="198.1" y="246.0"/>
      <point x="268.5" y="250.5" type="curve" smooth="yes"/>
      <point x="466.0" y="263.1"/>
      <point x="574.5" y="317.2"/>
      <point x="574.5" y="417.4" type="curve" smooth="yes"/>
      <point x="574.5" y="495.2"/>
      <point x="498.0" y="540.0"/>
      <point x="374.7" y="540.0" type="curve" smooth="yes"/>
      <point x="179.0" y="540.0"/>
      <point x="48.7" y="411.9"/>
      <point x="48.7" y="205.7" type="curve" smooth="yes"/>
      <point x="48.7" y="74.8"/>
      <point x="140.39999999999998" y="-10.0"/>
      <point x="288.1" y="-10.0" type="curve" smooth="yes"/>
      <point x="368.79999999999995" y="-10.0"/>
      <point x="453.0" y="8.2"/>
      <point x="524.5" y="39.8" type="curve"/>
      <point x="518.5" y="56.9" type="line"/>
      <point x="440.59999999999997" y="24.6"/>
      <point x="364.29999999999995" y="8.4"/>
      <point x="289.1" y="8.4" type="curve" smooth="yes"/>
      <point x="153.6" y="8.4"/>
      <point x="67.4" y="87.0"/>
      <point x="67.4" y="206.0" type="curve" smooth="yes"/>
      <point x="67.4" y="397.4"/>
      <point x="192.6" y="521.6"/>
      <point x="373.1" y="521.6" type="curve" smooth="yes"/>
      <point x="486.59999999999997" y="521.6"/>
      <point x="555.8" y="483.7"/>
      <point x="555.8" y="414.1" type="curve" smooth="yes"/>
      <point x="555.8" y="329.3"/>
      <point x="451.79999999999995" y="280.9"/>
      <point x="272.7" y="269.5" type="curve" smooth="yes"/>
      <point x="201.2" y="265.0"/>
      <point x="126.9" y="266.6"/>
    </contour>
  </outline>
</glyph>
<glyph name="f" format="2">
  <advance width="371.4"/>
  <unicode hex="0066"/>
  <outline>
    <contour>
      <point x="-36.300000000000004" y="-220.0" type="curve" smooth="yes"/>
      <point x="42.49999999999999" y="-220.0"/>
      <point x="79.1" y="-160.0"/>
      <point x="103.89999999999999" y="-2.4000000000000057" type="curve" smooth="yes"/>
      <point x="177.0" y="465.0" type="line"/>
      <point x="410.2" y="465.0" type="line"/>
      <point x="413.2" y="484.0" type="line"/>
      <point x="180.0" y="484.0" type="line"/>
      <point x="205.9" y="654.3"/>
      <point x="265.8" y="731.0"/>
      <point x="380.29999999999995" y="731.0" type="curve" smooth="yes"/>
      <point x="443.0" y="731.0"/>
      <point x="481.79999999999995" y="720.3"/>
      <point x="536.5" y="704.0" type="curve"/>
      <point x="542.8" y="722.0" type="line"/>
      <point x="484.1" y="741.7"/>
      <point x="437.2" y="750.0"/>
      <point x="385.29999999999995" y="750.0" type="curve" smooth="yes"/>
      <point x="257.2" y="750.0"/>
      <point x="191.7" y="672.8"/>
      <point x="160.3" y="484.0" type="curve"/>
      <point x="54.0" y="478.7" type="line"/>
      <point x="52.0" y="465.0" type="line"/>
      <point x="157.3" y="465.0" type="line"/>
      <point x="83.1" y="-9.300000000000004" type="line" smooth="yes"/>
      <point x="60.99999999999999" y="-148.0"/>
      <point x="32.699999999999996" y="-203.0"/>
      <point x="-37.900000000000006" y="-203.0" type="curve" smooth="yes"/>
      <point x="-52.6" y="-203.0"/>
      <point x="-66.4" y="-200.3"/>
      <point x="-84.5" y="-193.9" type="curve"/>
      <point x="-89.9" y="-210.9" type="line"/>
      <point x="-71.0" y="-217.3"/>
      <point x="-53.900000000000006" y="-220.0"/>
    </contour>
  </outline>
</glyph>
<glyph name="g" format="2">
  <advance width="626.9"/>
  <unicode hex="0067"/>
  <note>
16
</note>
  <anchor x="214.5" y="-217.0" name="bottom"/>
  <anchor x="359.4" y="530.0" name="top"/>
  <outline>
    <contour>
      <point x="16.099999999999998" y="-182.9" type="line"/>
      <point x="79.1" y="-206.1"/>
      <point x="155.6" y="-220.0"/>
      <point x="221.5" y="-220.0" type="curve" smooth="yes"/>
      <point x="373.29999999999995" y="-220.0"/>
      <point x="460.59999999999997" y="-138.6"/>
      <point x="485.7" y="22.099999999999994" type="curve" smooth="yes"/>
      <point x="562.8" y="505.4" type="line"/>
      <point x="516.0999999999999" y="527.0"/>
      <point x="457.1" y="540.0"/>
      <point x="393.2" y="540.0" type="curve" smooth="yes"/>
      <point x="174.39999999999998" y="540.0"/>
      <point x="42.599999999999994" y="386.6"/>
      <point x="42.599999999999994" y="185.0" type="curve" smooth="yes"/>
      <point x="42.599999999999994" y="64.7"/>
      <point x="122.89999999999999" y="-10.0"/>
      <point x="252.5" y="-10.0" type="curve" smooth="yes"/>
      <point x="319.79999999999995" y="-10.0"/>
      <point x="407.4" y="17.7"/>
      <point x="472.29999999999995" y="59.699999999999996" type="curve"/>
      <point x="467.29999999999995" y="26.5" type="line" smooth="yes"/>
      <point x="445.0" y="-125.7"/>
      <point x="361.9" y="-202.3"/>
      <point x="218.79999999999998" y="-202.3" type="curve" smooth="yes"/>
      <point x="154.79999999999998" y="-202.3"/>
      <point x="80.19999999999999" y="-187.7"/>
      <point x="23.599999999999998" y="-163.8" type="curve"/>
    </contour>
    <contour>
      <point x="541.8" y="493.3" type="curve"/>
      <point x="476.7" y="82.5" type="line"/>
      <point x="417.5" y="41.5"/>
      <point x="319.0" y="8.7"/>
      <point x="254.79999999999998" y="8.7" type="curve" smooth="yes"/>
      <point x="134.8" y="8.7"/>
      <point x="62.3" y="76.4"/>
      <point x="62.3" y="188.5" type="curve" smooth="yes"/>
      <point x="62.3" y="377.7"/>
      <point x="187.89999999999998" y="521.6"/>
      <point x="389.4" y="521.6" type="curve" smooth="yes"/>
      <point x="463.2" y="521.6"/>
      <point x="505.29999999999995" y="506.7"/>
    </contour>
  </outline>
</glyph>
<glyph name="h" format="2">
  <advance width="659.0"/>
  <unicode hex="0068"/>
  <note>
16
</note>
  <anchor x="301.4" y="0.0" name="bottom"/>
  <anchor x="347.6" y="370.0" name="center"/>
  <anchor x="406.79999999999995" y="740.0" name="top"/>
  <outline>
    <contour>
      <point x="527.4" y="57.599999999999994" type="curve" smooth="yes"/>
      <point x="527.4" y="102.6"/>
      <point x="575.2" y="346.3"/>
      <point x="575.2" y="408.0" type="curve" smooth="yes"/>
      <point x="575.2" y="490.4"/>
      <point x="527.7" y="540.0"/>
      <point x="426.29999999999995" y="540.0" type="curve" smooth="yes"/>
      <point x="324.29999999999995" y="540.0"/>
      <point x="240.8" y="502.0"/>
      <point x="149.1" y="458.9" type="curve"/>
      <point x="193.9" y="740.0" type="line"/>
      <point x="174.9" y="740.0" type="line"/>
      <point x="57.9" y="0.0" type="line"/>
      <point x="76.9" y="0.0" type="line"/>
      <point x="145.8" y="436.5" type="line"/>
      <point x="242.8" y="484.4"/>
      <point x="321.6" y="521.3"/>
      <point x="421.79999999999995" y="521.3" type="curve" smooth="yes"/>
      <point x="518.2" y="521.3"/>
      <point x="555.2" y="475.6"/>
      <point x="555.2" y="407.8" type="curve" smooth="yes"/>
      <point x="555.2" y="333.4"/>
      <point x="508.7" y="103.5"/>
      <point x="508.7" y="54.599999999999994" type="curve" smooth="yes"/>
      <point x="508.7" y="11.399999999999999"/>
      <point x="535.0999999999999" y="-10.0"/>
      <point x="572.5999999999999" y="-10.0" type="curve" smooth="yes"/>
      <point x="584.7" y="-10.0"/>
      <point x="602.4" y="-8.3"/>
      <point x="617.8" y="-1.3" type="curve"/>
      <point x="613.8" y="15.8" type="line"/>
      <point x="601.0999999999999" y="10.8"/>
      <point x="586.4" y="8.4"/>
      <point x="573.4" y="8.4" type="curve" smooth="yes"/>
      <point x="545.3" y="8.4"/>
      <point x="527.4" y="25.1"/>
    </contour>
  </outline>
</glyph>
<glyph name="i" format="2">
  <advance width="221.39999999999998"/>
  <unicode hex="0069"/>
  <note>
Ajuster pts sur points
8
</note>
  <anchor x="66.19999999999999" y="0.0" name="bottom"/>
  <anchor x="76.19999999999999" y="0.0" name="ogonek"/>
  <anchor x="150.9" y="530.0" name="top"/>
  <outline>
    <contour>
      <point x="57.5" y="0.0" type="line"/>
      <point x="76.19999999999999" y="0.0" type="line"/>
      <point x="160.2" y="530.0" type="line"/>
      <point x="141.2" y="530.0" type="line"/>
    </contour>
    <contour>
      <point x="179.5" y="710.0" type="curve" smooth="yes"/>
      <point x="166.2" y="710.0"/>
      <point x="162.7" y="709.4"/>
      <point x="161.1" y="684.0" type="curve" smooth="yes"/>
      <point x="160.8" y="676.7"/>
      <point x="166.5" y="676.0"/>
      <point x="171.8" y="676.0" type="curve" smooth="yes"/>
      <point x="188.6" y="676.0"/>
      <point x="189.3" y="676.6"/>
      <point x="191.6" y="702.7" type="curve" smooth="yes"/>
      <point x="191.9" y="709.3"/>
      <point x="188.3" y="710.0"/>
    </contour>
  </outline>
</glyph>
<glyph name="j" format="2">
  <advance width="226.89999999999998"/>
  <unicode hex="006A"/>
  <note>
idem /i
12
</note>
  <outline>
    <contour>
      <point x="185.0" y="710.0" type="curve" smooth="yes"/>
      <point x="171.7" y="710.0"/>
      <point x="169.6" y="709.4"/>
      <point x="168.0" y="684.0" type="curve" smooth="yes"/>
      <point x="167.7" y="676.7"/>
      <point x="172.0" y="676.0"/>
      <point x="177.3" y="676.0" type="curve" smooth="yes"/>
      <point x="192.0" y="676.0"/>
      <point x="193.4" y="676.6"/>
      <point x="195.7" y="702.7" type="curve" smooth="yes"/>
      <point x="196.0" y="709.3"/>
      <point x="193.8" y="710.0"/>
    </contour>
    <contour>
      <point x="165.7" y="530.0" type="line"/>
      <point x="146.7" y="530.0" type="line"/>
      <point x="52.699999999999996" y="-66.0" type="line" smooth="yes"/>
      <point x="39.0" y="-152.2"/>
      <point x="12.099999999999994" y="-203.0"/>
      <point x="-48.0" y="-203.0" type="curve" smooth="yes"/>
      <point x="-63.0" y="-203.0"/>
      <point x="-81.7" y="-201.0"/>
      <point x="-104.7" y="-191.8" type="curve"/>
      <point x="-109.4" y="-208.8" type="line"/>
      <point x="-91.9" y="-217.3"/>
      <point x="-60.1" y="-220.0"/>
      <point x="-46.7" y="-220.0" type="curve" smooth="yes"/>
      <point x="21.9" y="-220.0"/>
      <point x="55.699999999999996" y="-166.6"/>
      <point x="70.69999999999999" y="-71.0" type="curve" smooth="yes"/>
    </contour>
  </outline>
</glyph>
<glyph name="l" format="2">
  <advance width="272.2"/>
  <unicode hex="006C"/>
  <anchor x="159.39999999999998" y="0.0" name="bottom"/>
  <anchor x="125.9" y="370.0" name="center"/>
  <anchor x="184.6" y="740.0" name="top"/>
  <anchor x="298.1" y="740.0" name="topright"/>
  <outline>
    <contour>
      <point x="174.9" y="740.0" type="line"/>
      <point x="77.8" y="128.3" type="line" smooth="yes"/>
      <point x="76.1" y="116.8"/>
      <point x="73.0" y="95.5"/>
      <point x="73.0" y="76.6" type="curve" smooth="yes"/>
      <point x="73.0" y="29.2"/>
      <point x="97.3" y="-10.0"/>
      <point x="161.6" y="-10.0" type="curve" smooth="yes"/>
      <point x="191.1" y="-10.0"/>
      <point x="217.6" y="-4.9"/>
      <point x="240.39999999999998" y="1.5" type="curve"/>
      <point x="235.7" y="19.3" type="line"/>
      <point x="212.29999999999998" y="12.899999999999999"/>
      <point x="190.1" y="8.1"/>
      <point x="164.6" y="8.1" type="curve" smooth="yes"/>
      <point x="106.1" y="8.1"/>
      <point x="92.39999999999999" y="44.5"/>
      <point x="92.39999999999999" y="76.8" type="curve" smooth="yes"/>
      <point x="92.39999999999999" y="99.69999999999999"/>
      <point x="96.1" y="120.69999999999999"/>
      <point x="98.69999999999999" y="135.5" type="curve" smooth="yes"/>
      <point x="194.6" y="740.0" type="line"/>
    </contour>
  </outline>
</glyph>
<glyph name="m" format="2">
  <advance width="996.9"/>
  <unicode hex="006D"/>
  <note>
24&gt;23 points
un point de trop dans la jointure avec 2e jambage
</note>
  <outline>
    <contour>
      <point x="910.5" y="-10.0" type="curve" smooth="yes"/>
      <point x="922.5999999999999" y="-10.0"/>
      <point x="940.3" y="-8.3"/>
      <point x="955.6999999999999" y="-1.3" type="curve"/>
      <point x="951.6999999999999" y="15.8" type="line"/>
      <point x="939.0" y="10.8"/>
      <point x="924.3" y="8.4"/>
      <point x="911.3" y="8.4" type="curve" smooth="yes"/>
      <point x="883.1999999999999" y="8.4"/>
      <point x="865.6999999999999" y="24.4"/>
      <point x="865.6999999999999" y="56.9" type="curve" smooth="yes"/>
      <point x="865.6999999999999" y="101.9"/>
      <point x="913.5" y="346.3"/>
      <point x="913.5" y="408.0" type="curve" smooth="yes"/>
      <point x="913.5" y="490.4"/>
      <point x="865.5999999999999" y="540.0"/>
      <point x="764.2" y="540.0" type="curve" smooth="yes"/>
      <point x="674.5999999999999" y="540.0"/>
      <point x="596.0999999999999" y="501.2"/>
      <point x="517.5" y="455.1" type="curve"/>
      <point x="501.9" y="506.3"/>
      <point x="458.8" y="540.0"/>
      <point x="383.0" y="540.0" type="curve" smooth="yes"/>
      <point x="300.79999999999995" y="540.0"/>
      <point x="226.5" y="504.5"/>
      <point x="149.9" y="460.0" type="curve"/>
      <point x="159.9" y="530.0" type="line"/>
      <point x="140.9" y="530.0" type="line"/>
      <point x="57.599999999999994" y="0.0" type="line"/>
      <point x="76.6" y="0.0" type="line"/>
      <point x="146.2" y="437.5" type="line"/>
      <point x="232.7" y="488.9"/>
      <point x="304.5" y="521.3"/>
      <point x="379.29999999999995" y="521.3" type="curve" smooth="yes"/>
      <point x="478.9" y="521.3"/>
      <point x="506.2" y="465.3"/>
      <point x="506.2" y="400.6" type="curve" smooth="yes"/>
      <point x="506.2" y="379.9"/>
      <point x="482.9" y="235.89999999999998"/>
      <point x="448.59999999999997" y="0.0" type="curve"/>
      <point x="467.9" y="0.0" type="line"/>
      <point x="502.2" y="233.79999999999998"/>
      <point x="525.5" y="384.3"/>
      <point x="525.5" y="405.1" type="curve" smooth="yes"/>
      <point x="525.5" y="415.7"/>
      <point x="524.5" y="426.3"/>
      <point x="522.8" y="436.6" type="curve"/>
      <point x="601.5999999999999" y="484.5"/>
      <point x="675.0999999999999" y="521.3"/>
      <point x="761.5999999999999" y="521.3" type="curve" smooth="yes"/>
      <point x="857.6" y="521.3"/>
      <point x="892.8" y="474.9"/>
      <point x="892.8" y="403.6" type="curve" smooth="yes"/>
      <point x="892.8" y="331.8"/>
      <point x="847.0" y="103.5"/>
      <point x="847.0" y="54.599999999999994" type="curve" smooth="yes"/>
      <point x="847.0" y="11.399999999999999"/>
      <point x="873.0" y="-10.0"/>
    </contour>
  </outline>
</glyph>
<glyph name="n" format="2">
  <advance width="658.4"/>
  <unicode hex="006E"/>
  <note>
16
</note>
  <anchor x="304.5" y="0.0" name="bottom"/>
  <anchor x="359.79999999999995" y="530.0" name="top"/>
  <outline>
    <contour>
      <point x="140.9" y="530.0" type="line"/>
      <point x="57.599999999999994" y="0.0" type="line"/>
      <point x="76.6" y="0.0" type="line"/>
      <point x="145.5" y="436.5" type="line"/>
      <point x="246.7" y="486.5"/>
      <point x="321.0" y="521.6"/>
      <point x="421.2" y="521.6" type="curve" smooth="yes"/>
      <point x="516.9" y="521.6"/>
      <point x="554.2" y="474.9"/>
      <point x="554.2" y="403.6" type="curve" smooth="yes"/>
      <point x="554.2" y="332.7"/>
      <point x="508.4" y="103.5"/>
      <point x="508.4" y="54.599999999999994" type="curve" smooth="yes"/>
      <point x="508.4" y="11.399999999999999"/>
      <point x="534.5" y="-10.0"/>
      <point x="572.0" y="-10.0" type="curve" smooth="yes"/>
      <point x="584.0999999999999" y="-10.0"/>
      <point x="601.8" y="-8.3"/>
      <point x="617.2" y="-1.3" type="curve"/>
      <point x="613.2" y="15.8" type="line"/>
      <point x="600.5" y="10.8"/>
      <point x="585.8" y="8.4"/>
      <point x="572.8" y="8.4" type="curve" smooth="yes"/>
      <point x="544.7" y="8.4"/>
      <point x="527.0999999999999" y="25.1"/>
      <point x="527.0999999999999" y="57.599999999999994" type="curve" smooth="yes"/>
      <point x="527.0999999999999" y="102.6"/>
      <point x="574.9" y="346.3"/>
      <point x="574.9" y="408.0" type="curve" smooth="yes"/>
      <point x="574.9" y="490.4"/>
      <point x="527.0999999999999" y="540.0"/>
      <point x="425.7" y="540.0" type="curve" smooth="yes"/>
      <point x="323.7" y="540.0"/>
      <point x="245.8" y="504.9"/>
      <point x="148.5" y="457.6" type="curve"/>
      <point x="159.9" y="530.0" type="line"/>
    </contour>
  </outline>
</glyph>
<glyph name="o" format="2">
  <advance width="650.5"/>
  <unicode hex="006F"/>
  <note>
8
</note>
  <anchor x="305.5" y="0.0" name="bottom"/>
  <anchor x="329.5" y="272.0" name="center"/>
  <anchor x="373.5" y="2.0" name="ogonek"/>
  <anchor x="357.0" y="530.0" name="top"/>
  <anchor x="452.0" y="527.0" name="topright"/>
  <outline>
    <contour>
      <point x="299.5" y="-10.0" type="curve" smooth="yes"/>
      <point x="490.49999999999994" y="-10.0"/>
      <point x="596.5" y="126.00000000000003"/>
      <point x="596.5" y="329.5" type="curve" smooth="yes"/>
      <point x="596.5" y="468.0"/>
      <point x="508.99999999999994" y="540.0"/>
      <point x="347.5" y="540.0" type="curve" smooth="yes"/>
      <point x="158.0" y="540.0"/>
      <point x="50.5" y="401.0"/>
      <point x="50.5" y="199.5" type="curve" smooth="yes"/>
      <point x="50.5" y="60.0"/>
      <point x="136.5" y="-10.0"/>
    </contour>
    <contour>
      <point x="300.5" y="8.5" type="curve" smooth="yes"/>
      <point x="148.5" y="8.5"/>
      <point x="69.5" y="72.0"/>
      <point x="69.5" y="201.5" type="curve" smooth="yes"/>
      <point x="69.5" y="389.5"/>
      <point x="169.0" y="521.5"/>
      <point x="347.0" y="521.5" type="curve" smooth="yes"/>
      <point x="496.99999999999994" y="521.5"/>
      <point x="577.5" y="455.5"/>
      <point x="577.5" y="327.0" type="curve" smooth="yes"/>
      <point x="577.5" y="136.50000000000003"/>
      <point x="479.99999999999994" y="8.5"/>
    </contour>
  </outline>
</glyph>
<glyph name="p" format="2">
  <advance width="629.0"/>
  <unicode hex="0070"/>
  <note>
14 point
</note>
  <outline>
    <contour>
      <point x="24.9" y="-210.0" type="line"/>
      <point x="43.599999999999994" y="-210.0" type="line"/>
      <point x="78.69999999999999" y="10.299999999999999" type="line"/>
      <point x="120.69999999999999" y="0.3999999999999986"/>
      <point x="172.89999999999998" y="-10.0"/>
      <point x="238.29999999999998" y="-10.0" type="curve" smooth="yes"/>
      <point x="441.5" y="-10.0"/>
      <point x="583.7" y="143.0"/>
      <point x="583.7" y="344.6" type="curve" smooth="yes"/>
      <point x="583.7" y="472.2"/>
      <point x="515.9" y="540.0"/>
      <point x="397.1" y="540.0" type="curve" smooth="yes"/>
      <point x="302.6" y="540.0"/>
      <point x="227.89999999999998" y="500.1"/>
      <point x="147.0" y="446.0" type="curve"/>
      <point x="159.0" y="533.0" type="line"/>
      <point x="141.5" y="533.0" type="line"/>
    </contour>
    <contour>
      <point x="238.39999999999998" y="8.7" type="curve" smooth="yes"/>
      <point x="172.2" y="8.7"/>
      <point x="120.0" y="21.2"/>
      <point x="81.69999999999999" y="30.7" type="curve"/>
      <point x="143.3" y="421.5" type="line"/>
      <point x="232.5" y="486.8"/>
      <point x="312.29999999999995" y="521.3"/>
      <point x="391.6" y="521.3" type="curve" smooth="yes"/>
      <point x="503.0" y="521.3"/>
      <point x="564.7" y="459.0"/>
      <point x="564.7" y="340.9" type="curve" smooth="yes"/>
      <point x="564.7" y="153.0"/>
      <point x="428.5" y="8.7"/>
    </contour>
  </outline>
</glyph>
<glyph name="q" format="2">
  <advance width="626.5999999999999"/>
  <unicode hex="0071"/>
  <note>
12
</note>
  <outline>
    <contour>
      <point x="563.9" y="514.1" type="line"/>
      <point x="509.59999999999997" y="527.7"/>
      <point x="449.0" y="540.0"/>
      <point x="380.0" y="540.0" type="curve" smooth="yes"/>
      <point x="162.6" y="540.0"/>
      <point x="42.3" y="362.8"/>
      <point x="42.3" y="177.6" type="curve" smooth="yes"/>
      <point x="42.3" y="66.3"/>
      <point x="118.39999999999999" y="-10.0"/>
      <point x="236.1" y="-10.0" type="curve" smooth="yes"/>
      <point x="322.7" y="-10.0"/>
      <point x="398.5" y="20.299999999999997"/>
      <point x="476.2" y="77.89999999999999" type="curve"/>
      <point x="429.4" y="-210.0" type="line"/>
      <point x="449.0" y="-210.0" type="line"/>
    </contour>
    <contour>
      <point x="542.9" y="499.6" type="curve"/>
      <point x="479.2" y="99.3" type="line"/>
      <point x="388.59999999999997" y="32.8"/>
      <point x="315.9" y="8.7"/>
      <point x="238.39999999999998" y="8.7" type="curve" smooth="yes"/>
      <point x="132.6" y="8.7"/>
      <point x="61.4" y="76.6"/>
      <point x="61.4" y="179.3" type="curve" smooth="yes"/>
      <point x="61.4" y="364.3"/>
      <point x="181.0" y="521.6"/>
      <point x="378.2" y="521.6" type="curve" smooth="yes"/>
      <point x="443.5" y="521.6"/>
      <point x="503.0" y="508.8"/>
    </contour>
  </outline>
</glyph>
<glyph name="r" format="2">
  <advance width="456.5"/>
  <unicode hex="0072"/>
  <anchor x="66.6" y="0.0" name="bottom"/>
  <anchor x="301.9" y="530.0" name="top"/>
  <outline>
    <contour>
      <point x="159.2" y="530.0" type="line"/>
      <point x="140.9" y="530.0" type="line"/>
      <point x="57.599999999999994" y="0.0" type="line"/>
      <point x="75.9" y="0.0" type="line"/>
      <point x="140.1" y="406.3" type="line"/>
      <point x="233.0" y="489.5"/>
      <point x="313.2" y="521.3"/>
      <point x="383.6" y="521.3" type="curve" smooth="yes"/>
      <point x="414.5" y="521.3"/>
      <point x="450.7" y="515.8"/>
      <point x="477.4" y="507.6" type="curve"/>
      <point x="483.7" y="525.3" type="line"/>
      <point x="461.9" y="533.1"/>
      <point x="424.4" y="540.0"/>
      <point x="383.79999999999995" y="540.0" type="curve" smooth="yes"/>
      <point x="311.1" y="540.0"/>
      <point x="237.1" y="510.4"/>
      <point x="144.1" y="434.7" type="curve"/>
    </contour>
  </outline>
</glyph>
<glyph name="s" format="2">
  <advance width="565.5"/>
  <unicode hex="0073"/>
  <anchor x="245.0" y="0.0" name="bottom"/>
  <anchor x="329.0" y="530.0" name="top"/>
  <outline>
    <contour>
      <point x="6.499999999999998" y="31.0" type="line"/>
      <point x="62.5" y="9.5"/>
      <point x="146.5" y="-10.0"/>
      <point x="243.5" y="-10.0" type="curve" smooth="yes"/>
      <point x="412.99999999999994" y="-10.0"/>
      <point x="497.99999999999994" y="49.0"/>
      <point x="497.99999999999994" y="133.0" type="curve" smooth="yes"/>
      <point x="497.99999999999994" y="316.5"/>
      <point x="104.5" y="241.0"/>
      <point x="104.5" y="403.0" type="curve" smooth="yes"/>
      <point x="104.5" y="472.5"/>
      <point x="179.0" y="521.5"/>
      <point x="327.5" y="521.5" type="curve" smooth="yes"/>
      <point x="400.0" y="521.5"/>
      <point x="462.0" y="508.5"/>
      <point x="514.0" y="491.0" type="curve"/>
      <point x="521.0" y="509.5" type="line"/>
      <point x="471.0" y="527.5"/>
      <point x="395.5" y="540.0"/>
      <point x="332.5" y="540.0" type="curve" smooth="yes"/>
      <point x="165.5" y="540.0"/>
      <point x="86.0" y="482.0"/>
      <point x="86.0" y="401.0" type="curve" smooth="yes"/>
      <point x="86.0" y="223.5"/>
      <point x="478.99999999999994" y="298.5"/>
      <point x="478.99999999999994" y="131.0" type="curve" smooth="yes"/>
      <point x="478.99999999999994" y="59.5"/>
      <point x="397.99999999999994" y="8.5"/>
      <point x="250.0" y="8.5" type="curve" smooth="yes"/>
      <point x="152.5" y="8.5"/>
      <point x="68.5" y="28.5"/>
      <point x="14.999999999999998" y="50.5" type="curve"/>
    </contour>
  </outline>
</glyph>
<glyph name="t" format="2">
  <advance width="438.09999999999997"/>
  <unicode hex="0074"/>
  <anchor x="233.6" y="0.0" name="bottom"/>
  <anchor x="212.39999999999998" y="292.4" name="center"/>
  <anchor x="199.89999999999998" y="665.0" name="top"/>
  <anchor x="413.2" y="778.5" name="topright"/>
  <outline>
    <contour>
      <point x="381.79999999999995" y="38.5" type="line"/>
      <point x="334.79999999999995" y="21.5"/>
      <point x="282.9" y="9.0"/>
      <point x="233.7" y="9.0" type="curve" smooth="yes"/>
      <point x="150.1" y="9.0"/>
      <point x="122.19999999999999" y="48.7"/>
      <point x="122.19999999999999" y="109.69999999999999" type="curve" smooth="yes"/>
      <point x="122.19999999999999" y="123.8"/>
      <point x="123.5" y="138.9"/>
      <point x="126.19999999999999" y="154.9" type="curve" smooth="yes"/>
      <point x="182.5" y="512.4" type="line"/>
      <point x="446.2" y="512.4" type="line"/>
      <point x="449.2" y="530.0" type="line"/>
      <point x="185.5" y="530.0" type="line"/>
      <point x="207.2" y="665.0" type="line"/>
      <point x="195.3" y="665.0" type="line"/>
      <point x="166.5" y="530.0" type="line"/>
      <point x="38.5" y="524.0" type="line"/>
      <point x="35.8" y="512.4" type="line"/>
      <point x="163.5" y="512.4" type="line"/>
      <point x="107.19999999999999" y="154.9" type="line" smooth="yes"/>
      <point x="104.19999999999999" y="137.2"/>
      <point x="102.5" y="117.0"/>
      <point x="102.5" y="105.1" type="curve" smooth="yes"/>
      <point x="102.5" y="25.3"/>
      <point x="147.6" y="-10.0"/>
      <point x="227.89999999999998" y="-10.0" type="curve" smooth="yes"/>
      <point x="269.29999999999995" y="-10.0"/>
      <point x="327.4" y="-1.7000000000000002"/>
      <point x="387.5" y="20.799999999999997" type="curve"/>
    </contour>
  </outline>
</glyph>
<glyph name="u" format="2">
  <advance width="640.2"/>
  <unicode hex="0075"/>
  <note>
15
</note>
  <anchor x="270.0" y="0.0" name="bottom"/>
  <anchor x="588.5" y="0.0" name="ogonek"/>
  <anchor x="348.29999999999995" y="530.0" name="top"/>
  <anchor x="570.3" y="530.0" name="topright"/>
  <outline>
    <contour>
      <point x="218.29999999999998" y="-10.0" type="curve" smooth="yes"/>
      <point x="314.6" y="-10.0"/>
      <point x="388.2" y="18.2"/>
      <point x="483.0" y="68.3" type="curve"/>
      <point x="483.9" y="11.6"/>
      <point x="507.0" y="-10.0"/>
      <point x="547.7" y="-10.0" type="curve" smooth="yes"/>
      <point x="555.7" y="-10.0"/>
      <point x="575.0999999999999" y="-6.7"/>
      <point x="588.5" y="0.0" type="curve"/>
      <point x="584.9" y="16.1" type="line"/>
      <point x="571.5" y="11.1"/>
      <point x="556.0" y="8.1"/>
      <point x="549.0" y="8.1" type="curve" smooth="yes"/>
      <point x="517.3" y="8.1"/>
      <point x="501.4" y="24.4"/>
      <point x="501.4" y="68.3" type="curve" smooth="yes"/>
      <point x="501.4" y="81.4"/>
      <point x="503.0" y="108.69999999999999"/>
      <point x="570.3" y="530.0" type="curve"/>
      <point x="550.5999999999999" y="530.0" type="line"/>
      <point x="483.4" y="87.0" type="line"/>
      <point x="387.8" y="36.599999999999994"/>
      <point x="316.7" y="8.4"/>
      <point x="222.29999999999998" y="8.4" type="curve" smooth="yes"/>
      <point x="138.0" y="8.4"/>
      <point x="96.8" y="50.7"/>
      <point x="96.8" y="114.8" type="curve" smooth="yes"/>
      <point x="96.8" y="128.8"/>
      <point x="97.8" y="150.2"/>
      <point x="157.6" y="530.0" type="curve"/>
      <point x="138.6" y="530.0" type="line"/>
      <point x="85.69999999999999" y="183.2"/>
      <point x="77.8" y="133.3"/>
      <point x="77.8" y="112.3" type="curve" smooth="yes"/>
      <point x="77.8" y="38.9"/>
      <point x="124.19999999999999" y="-10.0"/>
    </contour>
  </outline>
</glyph>
<glyph name="v" format="2">
  <advance width="532.5"/>
  <unicode hex="0076"/>
  <outline>
    <contour>
      <point x="234.49999999999997" y="-1.0000000000000004" type="line"/>
      <point x="496.99999999999994" y="404.0"/>
      <point x="544.5" y="439.0"/>
      <point x="547.0" y="530.0" type="curve"/>
      <point x="529.0" y="530.0" type="line"/>
      <point x="523.0" y="438.0"/>
      <point x="478.49999999999994" y="414.0"/>
      <point x="226.99999999999997" y="20.5" type="curve"/>
      <point x="63.5" y="537.0" type="line"/>
      <point x="46.0" y="532.0" type="line"/>
      <point x="214.99999999999997" y="-1.0000000000000004" type="line"/>
    </contour>
  </outline>
</glyph>
<glyph name="w" format="2">
  <advance width="818.0"/>
  <unicode hex="0077"/>
  <note>
15
</note>
  <anchor x="384.0" y="0.0" name="bottom"/>
  <anchor x="436.5" y="530.0" name="top"/>
  <outline>
    <contour>
      <point x="569.5" y="0.0" type="line"/>
      <point x="795.5" y="394.5"/>
      <point x="830.5" y="462.0"/>
      <point x="833.0" y="530.0" type="curve"/>
      <point x="815.0" y="530.0" type="line"/>
      <point x="811.5" y="465.0"/>
      <point x="785.5" y="415.0"/>
      <point x="563.0" y="23.5" type="curve"/>
      <point x="448.0" y="512.5" type="line"/>
      <point x="428.0" y="512.5" type="line"/>
      <point x="349.0" y="350.0"/>
      <point x="270.0" y="187.0"/>
      <point x="191.0" y="24.5" type="curve"/>
      <point x="64.0" y="537.0" type="line"/>
      <point x="46.0" y="532.0" type="line"/>
      <point x="178.5" y="0.0" type="line"/>
      <point x="198.5" y="0.0" type="line"/>
      <point x="277.5" y="162.0"/>
      <point x="356.5" y="324.0"/>
      <point x="435.5" y="486.0" type="curve"/>
      <point x="549.5" y="0.0" type="line"/>
    </contour>
  </outline>
</glyph>
<glyph name="x" format="2">
  <advance width="544.0"/>
  <unicode hex="0078"/>
  <outline>
    <contour>
      <point x="536.5" y="530.0" type="line"/>
      <point x="498.99999999999994" y="450.0"/>
      <point x="463.0" y="398.5"/>
      <point x="277.0" y="289.5" type="curve"/>
      <point x="99.5" y="539.0" type="line"/>
      <point x="84.0" y="529.0" type="line"/>
      <point x="260.0" y="282.0" type="line"/>
      <point x="70.0" y="170.5"/>
      <point x="12.999999999999998" y="92.0"/>
      <point x="-11.5" y="0.0" type="curve"/>
      <point x="7.0" y="0.0" type="line"/>
      <point x="36.0" y="85.0"/>
      <point x="67.0" y="148.0"/>
      <point x="271.0" y="267.5" type="curve"/>
      <point x="471.99999999999994" y="-7.999999999999999" type="line"/>
      <point x="485.99999999999994" y="1.9999999999999998" type="line"/>
      <point x="287.5" y="275.5" type="line"/>
      <point x="482.99999999999994" y="386.5"/>
      <point x="529.0" y="458.0"/>
      <point x="553.5" y="530.0" type="curve"/>
    </contour>
  </outline>
</glyph>
<glyph name="y" format="2">
  <advance width="542.5"/>
  <unicode hex="0079"/>
  <anchor x="292.49999999999994" y="-105.00000000000003" name="bottom"/>
  <anchor x="304.5" y="530.0" name="top"/>
  <outline>
    <contour>
      <point x="537.5" y="533.0" type="line"/>
      <point x="531.0" y="428.0"/>
      <point x="389.0" y="194.0"/>
      <point x="252.99999999999997" y="8.000000000000004" type="curve"/>
      <point x="61.0" y="540.0" type="line"/>
      <point x="43.0" y="534.5" type="line"/>
      <point x="238.5" y="-7.0" type="line"/>
      <point x="240.99999999999997" y="-7.0" type="line"/>
      <point x="180.5" y="-90.0"/>
      <point x="121.5" y="-161.5"/>
      <point x="76.5" y="-207.0" type="curve"/>
      <point x="90.0" y="-220.5" type="line"/>
      <point x="249.99999999999997" y="-60.5"/>
      <point x="557.0" y="398.0"/>
      <point x="555.5" y="532.0" type="curve"/>
    </contour>
  </outline>
</glyph>
<glyph name="z" format="2">
  <advance width="576.5"/>
  <unicode hex="007A"/>
  <anchor x="262.5" y="0.0" name="bottom"/>
  <anchor x="283.5" y="275.0" name="center"/>
  <anchor x="321.0" y="530.0" name="top"/>
  <outline>
    <contour>
      <point x="14.999999999999998" y="0.0" type="line"/>
      <point x="508.99999999999994" y="0.0" type="line"/>
      <point x="511.99999999999994" y="18.5" type="line"/>
      <point x="45.49999999999999" y="18.5" type="line"/>
      <point x="560.0" y="512.0" type="line"/>
      <point x="563.0" y="530.0" type="line"/>
      <point x="104.0" y="530.0" type="line"/>
      <point x="101.0" y="511.5" type="line"/>
      <point x="532.5" y="511.5" type="line"/>
      <point x="17.0" y="18.0" type="line"/>
    </contour>
  </outline>
</glyph>
<glyph name="braceleft" format="2">
  <advance width="377.5"/>
  <unicode hex="007B"/>
  <outline>
    <contour>
      <point x="99.3" y="-107.5" type="curve" smooth="yes"/>
      <point x="99.3" y="-163.5"/>
      <point x="126.8" y="-210.0"/>
      <point x="216.7" y="-210.0" type="curve" smooth="yes"/>
      <point x="264.79999999999995" y="-210.0" type="line"/>
      <point x="267.79999999999995" y="-190.0" type="line"/>
      <point x="219.7" y="-190.0" type="line" smooth="yes"/>
      <point x="142.6" y="-190.0"/>
      <point x="118.69999999999999" y="-151.1"/>
      <point x="118.69999999999999" y="-104.4" type="curve" smooth="yes"/>
      <point x="118.69999999999999" y="-4.4"/>
      <point x="191.6" y="86.5"/>
      <point x="191.6" y="197.8" type="curve" smooth="yes"/>
      <point x="191.6" y="229.1"/>
      <point x="180.5" y="255.9"/>
      <point x="152.5" y="267.0" type="curve"/>
      <point x="209.6" y="275.2"/>
      <point x="227.39999999999998" y="350.3"/>
      <point x="227.39999999999998" y="428.3" type="curve" smooth="yes"/>
      <point x="227.39999999999998" y="472.6"/>
      <point x="224.0" y="509.3"/>
      <point x="224.0" y="551.7" type="curve" smooth="yes"/>
      <point x="224.0" y="623.7"/>
      <point x="243.2" y="720.0"/>
      <point x="365.29999999999995" y="720.0" type="curve" smooth="yes"/>
      <point x="412.2" y="720.0" type="line"/>
      <point x="415.2" y="740.0" type="line"/>
      <point x="368.6" y="740.0" type="line" smooth="yes"/>
      <point x="230.3" y="740.0"/>
      <point x="203.89999999999998" y="632.9"/>
      <point x="203.89999999999998" y="549.0" type="curve" smooth="yes"/>
      <point x="203.89999999999998" y="509.8"/>
      <point x="207.3" y="468.3"/>
      <point x="207.3" y="426.2" type="curve" smooth="yes"/>
      <point x="207.3" y="348.7"/>
      <point x="191.3" y="277.3"/>
      <point x="127.3" y="277.3" type="curve" smooth="yes"/>
      <point x="110.8" y="277.3" type="line"/>
      <point x="107.8" y="258.3" type="line"/>
      <point x="124.39999999999999" y="258.3" type="line" smooth="yes"/>
      <point x="159.39999999999998" y="258.3"/>
      <point x="173.2" y="231.4"/>
      <point x="173.2" y="200.1" type="curve" smooth="yes"/>
      <point x="173.2" y="81.9"/>
      <point x="99.3" y="1.6000000000000014"/>
    </contour>
  </outline>
</glyph>
<glyph name="bar" format="2">
  <advance width="243.2"/>
  <unicode hex="007C"/>
  <outline>
    <contour>
      <point x="212.6" y="790.0" type="line"/>
      <point x="194.6" y="790.0" type="line"/>
      <point x="35.599999999999994" y="-210.0" type="line"/>
      <point x="53.599999999999994" y="-210.0" type="line"/>
    </contour>
  </outline>
</glyph>
<glyph name="braceright" format="2">
  <advance width="377.5"/>
  <unicode hex="007D"/>
  <outline>
    <contour>
      <point x="274.5" y="637.5" type="curve" smooth="yes"/>
      <point x="274.5" y="693.5"/>
      <point x="247.0" y="740.0"/>
      <point x="157.1" y="740.0" type="curve" smooth="yes"/>
      <point x="109.0" y="740.0" type="line"/>
      <point x="106.0" y="720.0" type="line"/>
      <point x="154.1" y="720.0" type="line" smooth="yes"/>
      <point x="231.2" y="720.0"/>
      <point x="255.1" y="681.1"/>
      <point x="255.1" y="634.4" type="curve" smooth="yes"/>
      <point x="255.1" y="534.4"/>
      <point x="182.2" y="446.2"/>
      <point x="182.2" y="334.9" type="curve" smooth="yes"/>
      <point x="182.2" y="303.6"/>
      <point x="193.3" y="276.8"/>
      <point x="221.3" y="265.7" type="curve"/>
      <point x="164.2" y="257.5"/>
      <point x="146.39999999999998" y="182.4"/>
      <point x="146.39999999999998" y="104.4" type="curve" smooth="yes"/>
      <point x="146.39999999999998" y="60.1"/>
      <point x="149.8" y="20.700000000000003"/>
      <point x="149.8" y="-21.7" type="curve" smooth="yes"/>
      <point x="149.8" y="-93.7"/>
      <point x="130.6" y="-190.0"/>
      <point x="8.5" y="-190.0" type="curve" smooth="yes"/>
      <point x="-38.4" y="-190.0" type="line"/>
      <point x="-41.4" y="-210.0" type="line"/>
      <point x="5.199999999999996" y="-210.0" type="line" smooth="yes"/>
      <point x="143.5" y="-210.0"/>
      <point x="169.89999999999998" y="-102.9"/>
      <point x="169.89999999999998" y="-19.0" type="curve" smooth="yes"/>
      <point x="169.89999999999998" y="20.200000000000003"/>
      <point x="166.5" y="64.4"/>
      <point x="166.5" y="106.5" type="curve" smooth="yes"/>
      <point x="166.5" y="184.0"/>
      <point x="182.5" y="255.4"/>
      <point x="246.5" y="255.4" type="curve" smooth="yes"/>
      <point x="263.0" y="255.4" type="line"/>
      <point x="266.0" y="274.4" type="line"/>
      <point x="249.39999999999998" y="274.4" type="line" smooth="yes"/>
      <point x="214.39999999999998" y="274.4"/>
      <point x="200.6" y="301.3"/>
      <point x="200.6" y="332.6" type="curve" smooth="yes"/>
      <point x="200.6" y="450.8"/>
      <point x="274.5" y="528.4"/>
    </contour>
  </outline>
</glyph>
<glyph name="asciitilde" format="2">
  <advance width="464.0"/>
  <unicode hex="007E"/>
  <outline>
    <contour>
      <point x="393.4" y="265.3" type="curve"/>
      <point x="397.4" y="289.6" type="line"/>
      <point x="373.5" y="267.8"/>
      <point x="349.0" y="245.6"/>
      <point x="316.7" y="245.6" type="curve" smooth="yes"/>
      <point x="249.7" y="245.6"/>
      <point x="227.2" y="353.3"/>
      <point x="153.4" y="353.3" type="curve" smooth="yes"/>
      <point x="125.8" y="353.3"/>
      <point x="98.1" y="335.2"/>
      <point x="75.2" y="315.0" type="curve"/>
      <point x="71.2" y="290.0" type="line"/>
      <point x="93.3" y="309.7"/>
      <point x="118.9" y="333.3"/>
      <point x="151.2" y="333.3" type="curve" smooth="yes"/>
      <point x="217.4" y="333.3"/>
      <point x="239.5" y="225.6"/>
      <point x="314.8" y="225.6" type="curve" smooth="yes"/>
      <point x="348.7" y="225.6"/>
      <point x="371.5" y="244.4"/>
    </contour>
  </outline>
</glyph>
<glyph name="cent" format="2">
  <advance width="798.8"/>
  <unicode hex="00A2"/>
  <outline>
    <contour>
      <point x="369.2" y="-105.0" type="line"/>
      <point x="387.2" y="-105.0" type="line"/>
      <point x="402.2" y="-9.3" type="line"/>
      <point x="500.09999999999997" y="-5.5"/>
      <point x="577.7" y="11.2"/>
      <point x="613.4" y="21.099999999999998" type="curve"/>
      <point x="609.0" y="39.2" type="line"/>
      <point x="569.0999999999999" y="28.599999999999998"/>
      <point x="473.09999999999997" y="8.4"/>
      <point x="400.79999999999995" y="8.4" type="curve" smooth="yes"/>
      <point x="252.7" y="8.4"/>
      <point x="176.1" y="73.9"/>
      <point x="176.1" y="199.5" type="curve" smooth="yes"/>
      <point x="176.1" y="383.9"/>
      <point x="290.9" y="521.0"/>
      <point x="487.79999999999995" y="521.0" type="curve" smooth="yes"/>
      <point x="568.0999999999999" y="521.0"/>
      <point x="630.5" y="506.1"/>
      <point x="675.0" y="492.3" type="curve"/>
      <point x="681.3" y="511.7" type="line"/>
      <point x="626.2" y="528.0"/>
      <point x="566.0999999999999" y="539.4"/>
      <point x="491.0" y="539.7" type="curve"/>
      <point x="506.29999999999995" y="635.0" type="line"/>
      <point x="488.29999999999995" y="635.0" type="line"/>
      <point x="473.0" y="539.0" type="line"/>
      <point x="269.29999999999995" y="531.6"/>
      <point x="157.1" y="391.3"/>
      <point x="157.1" y="199.7" type="curve" smooth="yes"/>
      <point x="157.1" y="51.599999999999994"/>
      <point x="253.6" y="-7.199999999999999"/>
      <point x="383.2" y="-9.0" type="curve"/>
    </contour>
  </outline>
</glyph>
<glyph name="sterling" format="2">
  <advance width="798.8"/>
  <unicode hex="00A3"/>
  <outline>
    <contour>
      <point x="87.3" y="0.0" type="line"/>
      <point x="672.5" y="0.0" type="line"/>
      <point x="675.5" y="20.0" type="line"/>
      <point x="118.6" y="20.0" type="line"/>
      <point x="231.1" y="107.4"/>
      <point x="278.5" y="171.8"/>
      <point x="278.5" y="267.4" type="curve" smooth="yes"/>
      <point x="278.5" y="337.0"/>
      <point x="232.7" y="394.7"/>
      <point x="232.7" y="463.6" type="curve" smooth="yes"/>
      <point x="232.7" y="618.3"/>
      <point x="360.9" y="691.4"/>
      <point x="512.3" y="691.4" type="curve" smooth="yes"/>
      <point x="584.4" y="691.4"/>
      <point x="662.0" y="682.9"/>
      <point x="745.2" y="658.2" type="curve"/>
      <point x="752.4" y="675.5" type="line"/>
      <point x="670.5" y="702.3"/>
      <point x="578.0" y="710.0"/>
      <point x="516.3" y="710.0" type="curve" smooth="yes"/>
      <point x="345.5" y="710.0"/>
      <point x="214.0" y="629.2"/>
      <point x="214.0" y="462.6" type="curve" smooth="yes"/>
      <point x="214.0" y="384.3"/>
      <point x="259.5" y="337.7"/>
      <point x="259.5" y="264.2" type="curve" smooth="yes"/>
      <point x="259.5" y="165.1"/>
      <point x="187.8" y="100.1"/>
      <point x="89.39999999999999" y="20.0" type="curve"/>
    </contour>
    <contour>
      <point x="111.0" y="365.3" type="line"/>
      <point x="622.4" y="366.7" type="line"/>
      <point x="625.4" y="384.3" type="line"/>
      <point x="114.0" y="384.3" type="line"/>
    </contour>
  </outline>
</glyph>
<glyph name="currency" format="2">
  <advance width="404.0"/>
  <unicode hex="00A4"/>
  <outline>
    <contour>
      <point x="33.6" y="113.0" type="line"/>
      <point x="112.2" y="188.0" type="line"/>
      <point x="129.9" y="168.0"/>
      <point x="154.2" y="157.0"/>
      <point x="184.2" y="157.0" type="curve" smooth="yes"/>
      <point x="213.5" y="157.0"/>
      <point x="242.5" y="168.7"/>
      <point x="266.5" y="188.0" type="curve"/>
      <point x="322.5" y="113.0" type="line"/>
      <point x="337.1" y="127.0" type="line"/>
      <point x="281.5" y="202.0" type="line"/>
      <point x="307.8" y="230.7"/>
      <point x="325.8" y="270.0"/>
      <point x="325.8" y="313.7" type="curve" smooth="yes"/>
      <point x="325.8" y="337.0"/>
      <point x="319.8" y="358.7"/>
      <point x="308.8" y="376.0" type="curve"/>
      <point x="388.1" y="451.0" type="line"/>
      <point x="377.8" y="465.0" type="line"/>
      <point x="298.5" y="390.0" type="line"/>
      <point x="281.2" y="410.0"/>
      <point x="255.5" y="422.0"/>
      <point x="226.2" y="422.0" type="curve" smooth="yes"/>
      <point x="196.2" y="422.0"/>
      <point x="167.9" y="410.0"/>
      <point x="143.9" y="390.0" type="curve"/>
      <point x="88.9" y="465.0" type="line"/>
      <point x="74.9" y="451.0" type="line"/>
      <point x="128.9" y="376.3" type="line"/>
      <point x="101.9" y="348.0"/>
      <point x="84.9" y="309.0"/>
      <point x="84.9" y="266.0" type="curve" smooth="yes"/>
      <point x="84.9" y="241.0"/>
      <point x="90.9" y="219.0"/>
      <point x="101.9" y="201.0" type="curve"/>
      <point x="23.9" y="127.0" type="line"/>
    </contour>
    <contour>
      <point x="188.2" y="177.0" type="curve" smooth="yes"/>
      <point x="138.2" y="177.0"/>
      <point x="103.6" y="217.0"/>
      <point x="103.6" y="270.4" type="curve" smooth="yes"/>
      <point x="103.6" y="341.7"/>
      <point x="162.9" y="402.0"/>
      <point x="223.2" y="402.0" type="curve" smooth="yes"/>
      <point x="273.5" y="402.0"/>
      <point x="307.8" y="362.7"/>
      <point x="307.8" y="309.7" type="curve" smooth="yes"/>
      <point x="307.8" y="238.7"/>
      <point x="250.2" y="177.0"/>
    </contour>
  </outline>
</glyph>
<glyph name="yen" format="2">
  <advance width="798.9999999999999"/>
  <unicode hex="00A5"/>
  <outline>
    <contour>
      <point x="159.5" y="365.5" type="line"/>
      <point x="409.49999999999994" y="365.5" type="line"/>
      <point x="384.49999999999994" y="205.5" type="line"/>
      <point x="135.0" y="205.5" type="line"/>
      <point x="131.0" y="186.0" type="line"/>
      <point x="380.99999999999994" y="186.0" type="line"/>
      <point x="351.99999999999994" y="0.0" type="line"/>
      <point x="369.99999999999994" y="0.0" type="line"/>
      <point x="398.99999999999994" y="186.0" type="line"/>
      <point x="651.0" y="186.0" type="line"/>
      <point x="654.5" y="205.5" type="line"/>
      <point x="402.49999999999994" y="205.5" type="line"/>
      <point x="427.49999999999994" y="365.5" type="line"/>
      <point x="679.0" y="365.5" type="line"/>
      <point x="683.0" y="385.5" type="line"/>
      <point x="431.49999999999994" y="385.5" type="line"/>
      <point x="756.0" y="694.5" type="line"/>
      <point x="745.0" y="708.0" type="line"/>
      <point x="424.49999999999994" y="403.5" type="line"/>
      <point x="191.5" y="706.0" type="line"/>
      <point x="176.0" y="694.5" type="line"/>
      <point x="412.99999999999994" y="385.5" type="line"/>
      <point x="163.5" y="385.5" type="line"/>
    </contour>
  </outline>
</glyph>
<glyph name="brokenbar" format="2">
  <advance width="243.5"/>
  <unicode hex="00A6"/>
  <outline>
    <contour>
      <point x="148.6" y="391.0" type="line"/>
      <point x="212.6" y="790.0" type="line"/>
      <point x="194.6" y="790.0" type="line"/>
      <point x="130.6" y="391.0" type="line"/>
    </contour>
    <contour>
      <point x="99.6" y="190.0" type="line"/>
      <point x="35.89999999999999" y="-210.0" type="line"/>
      <point x="53.89999999999999" y="-210.0" type="line"/>
      <point x="117.6" y="190.0" type="line"/>
    </contour>
  </outline>
</glyph>
<glyph name="section" format="2">
  <advance width="551.0"/>
  <unicode hex="00A7"/>
  <outline>
    <contour>
      <point x="6.499999999999999" y="-127.0" type="curve"/>
      <point x="-8.000000000000002" y="-143.0" type="line"/>
      <point x="44.49999999999999" y="-194.0"/>
      <point x="95.99999999999999" y="-220.0"/>
      <point x="174.5" y="-220.0" type="curve" smooth="yes"/>
      <point x="322.5" y="-220.0"/>
      <point x="470.5" y="-111.5"/>
      <point x="470.5" y="98.0" type="curve" smooth="yes"/>
      <point x="470.5" y="282.5"/>
      <point x="329.0" y="430.0"/>
      <point x="329.0" y="593.0" type="curve" smooth="yes"/>
      <point x="329.0" y="667.5"/>
      <point x="366.0" y="725.5"/>
      <point x="445.0" y="725.5" type="curve" smooth="yes"/>
      <point x="481.5" y="725.5"/>
      <point x="508.5" y="715.0"/>
      <point x="535.0" y="705.0" type="curve"/>
      <point x="543.5" y="725.0" type="line"/>
      <point x="502.0" y="741.0"/>
      <point x="451.0" y="749.5"/>
      <point x="399.0" y="749.5" type="curve" smooth="yes"/>
      <point x="244.5" y="749.5"/>
      <point x="95.0" y="629.0"/>
      <point x="95.0" y="404.5" type="curve" smooth="yes"/>
      <point x="95.0" y="214.0"/>
      <point x="231.0" y="63.5"/>
      <point x="231.0" y="-64.5" type="curve" smooth="yes"/>
      <point x="231.0" y="-143.5"/>
      <point x="175.0" y="-190.0"/>
      <point x="121.0" y="-190.0" type="curve" smooth="yes"/>
      <point x="75.5" y="-190.0"/>
      <point x="35.0" y="-159.0"/>
    </contour>
    <contour>
      <point x="397.0" y="732.5" type="curve"/>
      <point x="339.5" y="712.5"/>
      <point x="311.5" y="656.0"/>
      <point x="311.5" y="592.5" type="curve" smooth="yes"/>
      <point x="311.5" y="422.5"/>
      <point x="452.5" y="272.5"/>
      <point x="452.5" y="92.5" type="curve" smooth="yes"/>
      <point x="452.5" y="-95.49999999999999"/>
      <point x="299.5" y="-214.0"/>
      <point x="153.0" y="-201.0" type="curve"/>
      <point x="212.0" y="-184.0"/>
      <point x="249.5" y="-126.0"/>
      <point x="249.5" y="-64.0" type="curve" smooth="yes"/>
      <point x="249.5" y="80.0"/>
      <point x="115.0" y="217.0"/>
      <point x="115.0" y="402.5" type="curve" smooth="yes"/>
      <point x="115.0" y="593.0"/>
      <point x="226.0" y="722.0"/>
    </contour>
  </outline>
</glyph>
<glyph name="copyright" format="2">
  <advance width="809.5"/>
  <unicode hex="00A9"/>
  <outline>
    <contour>
      <point x="381.99999999999994" y="-9.5" type="curve" smooth="yes"/>
      <point x="623.5" y="-9.5"/>
      <point x="760.5" y="162.50000000000003"/>
      <point x="760.5" y="421.5" type="curve" smooth="yes"/>
      <point x="760.5" y="621.0"/>
      <point x="622.5" y="709.5"/>
      <point x="446.5" y="709.5" type="curve" smooth="yes"/>
      <point x="206.5" y="709.5"/>
      <point x="73.0" y="536.0"/>
      <point x="73.0" y="278.0" type="curve" smooth="yes"/>
      <point x="73.0" y="78.0"/>
      <point x="209.99999999999997" y="-9.5"/>
    </contour>
    <contour>
      <point x="406.5" y="180.0" type="curve" smooth="yes"/>
      <point x="456.5" y="180.0"/>
      <point x="495.49999999999994" y="188.5"/>
      <point x="528.5" y="199.0" type="curve"/>
      <point x="525.5" y="217.0" type="line"/>
      <point x="492.99999999999994" y="207.0"/>
      <point x="457.0" y="199.0"/>
      <point x="406.5" y="199.0" type="curve" smooth="yes"/>
      <point x="328.0" y="199.0"/>
      <point x="272.5" y="242.5"/>
      <point x="272.5" y="302.0" type="curve" smooth="yes"/>
      <point x="272.5" y="415.5"/>
      <point x="347.5" y="497.5"/>
      <point x="452.5" y="497.5" type="curve" smooth="yes"/>
      <point x="491.49999999999994" y="497.5"/>
      <point x="527.0" y="492.0"/>
      <point x="564.0" y="480.5" type="curve"/>
      <point x="570.5" y="499.5" type="line"/>
      <point x="533.0" y="511.0"/>
      <point x="494.99999999999994" y="516.5"/>
      <point x="454.5" y="516.5" type="curve" smooth="yes"/>
      <point x="336.5" y="516.5"/>
      <point x="253.99999999999997" y="432.5"/>
      <point x="253.99999999999997" y="303.5" type="curve" smooth="yes"/>
      <point x="253.99999999999997" y="227.0"/>
      <point x="311.5" y="180.0"/>
    </contour>
    <contour>
      <point x="384.49999999999994" y="9.5" type="curve" smooth="yes"/>
      <point x="221.49999999999997" y="9.5"/>
      <point x="92.0" y="91.0"/>
      <point x="92.0" y="281.5" type="curve" smooth="yes"/>
      <point x="92.0" y="521.0"/>
      <point x="216.0" y="690.5"/>
      <point x="444.5" y="690.5" type="curve" smooth="yes"/>
      <point x="610.0" y="690.5"/>
      <point x="741.5" y="609.0"/>
      <point x="741.5" y="417.0" type="curve" smooth="yes"/>
      <point x="741.5" y="176.50000000000003"/>
      <point x="614.0" y="9.5"/>
    </contour>
  </outline>
</glyph>
<glyph name="ordfeminine" format="2">
  <advance width="432.4"/>
  <unicode hex="00AA"/>
  <outline>
    <contour>
      <point x="54.0" y="283.1" type="line"/>
      <point x="366.29999999999995" y="283.1" type="line"/>
      <point x="369.29999999999995" y="300.5" type="line"/>
      <point x="57.0" y="300.5" type="line"/>
    </contour>
    <component base="a.superior" xOffset="15.6"/>
  </outline>
</glyph>
<glyph name="logicalnot" format="2">
  <advance width="460.8"/>
  <unicode hex="00AC"/>
  <outline>
    <contour>
      <point x="74.0" y="384.6" type="line"/>
      <point x="402.1" y="384.6" type="line"/>
      <point x="369.8" y="177.0" type="line"/>
      <point x="388.1" y="177.0" type="line"/>
      <point x="423.4" y="402.6" type="line"/>
      <point x="77.0" y="402.6" type="line"/>
    </contour>
  </outline>
</glyph>
<glyph name="registered" format="2">
  <advance width="766.0"/>
  <unicode hex="00AE"/>
  <outline>
    <contour>
      <point x="398.49999999999994" y="211.0" type="curve" smooth="yes"/>
      <point x="621.5" y="211.0"/>
      <point x="750.5" y="381.5"/>
      <point x="750.5" y="630.0" type="curve" smooth="yes"/>
      <point x="750.5" y="800.5"/>
      <point x="650.0" y="891.5"/>
      <point x="454.0" y="891.5" type="curve" smooth="yes"/>
      <point x="231.0" y="891.5"/>
      <point x="103.0" y="720.5"/>
      <point x="103.0" y="472.5" type="curve" smooth="yes"/>
      <point x="103.0" y="302.0"/>
      <point x="202.5" y="211.0"/>
    </contour>
    <contour>
      <point x="398.49999999999994" y="228.0" type="curve" smooth="yes"/>
      <point x="213.5" y="228.0"/>
      <point x="121.5" y="313.5"/>
      <point x="121.5" y="473.0" type="curve" smooth="yes"/>
      <point x="121.5" y="709.0"/>
      <point x="241.5" y="874.0"/>
      <point x="454.0" y="874.0" type="curve" smooth="yes"/>
      <point x="639.0" y="874.0"/>
      <point x="732.0" y="789.0"/>
      <point x="732.0" y="629.0" type="curve" smooth="yes"/>
      <point x="732.0" y="393.0"/>
      <point x="611.0" y="228.0"/>
    </contour>
    <contour>
      <point x="282.0" y="401.0" type="line"/>
      <point x="298.5" y="401.0" type="line"/>
      <point x="321.0" y="538.5" type="line"/>
      <point x="362.0" y="537.0"/>
      <point x="390.0" y="535.5"/>
      <point x="446.0" y="536.5" type="curve"/>
      <point x="453.5" y="537.5" type="line"/>
      <point x="536.5" y="545.0"/>
      <point x="566.5" y="576.5"/>
      <point x="566.5" y="636.5" type="curve" smooth="yes"/>
      <point x="566.5" y="695.0"/>
      <point x="525.5" y="713.5"/>
      <point x="434.0" y="713.5" type="curve" smooth="yes"/>
      <point x="393.0" y="713.5"/>
      <point x="370.0" y="713.0"/>
      <point x="331.0" y="709.5" type="curve"/>
    </contour>
    <contour>
      <point x="422.0" y="554.0" type="curve" smooth="yes"/>
      <point x="388.5" y="554.0"/>
      <point x="361.5" y="555.0"/>
      <point x="324.0" y="556.0" type="curve"/>
      <point x="345.0" y="691.5" type="line"/>
      <point x="382.5" y="695.0"/>
      <point x="393.0" y="695.5"/>
      <point x="432.0" y="695.5" type="curve" smooth="yes"/>
      <point x="515.5" y="695.5"/>
      <point x="549.5" y="681.0"/>
      <point x="549.5" y="635.0" type="curve" smooth="yes"/>
      <point x="549.5" y="576.0"/>
      <point x="518.5" y="554.0"/>
    </contour>
    <contour>
      <point x="575.5" y="399.5" type="curve" smooth="yes"/>
      <point x="577.0" y="399.5"/>
      <point x="580.0" y="399.5"/>
      <point x="582.5" y="400.0" type="curve"/>
      <point x="584.5" y="417.5" type="line"/>
      <point x="583.0" y="417.0"/>
      <point x="581.0" y="417.0"/>
      <point x="580.0" y="417.0" type="curve" smooth="yes"/>
      <point x="547.5" y="417.0"/>
      <point x="498.49999999999994" y="464.5"/>
      <point x="457.5" y="545.0" type="curve"/>
      <point x="437.5" y="543.0" type="line"/>
      <point x="482.99999999999994" y="448.5"/>
      <point x="537.5" y="399.5"/>
    </contour>
  </outline>
</glyph>
<glyph name="degree" format="2">
  <advance width="233.1"/>
  <unicode hex="00B0"/>
  <outline>
    <contour>
      <point x="155.4" y="520.0" type="curve" smooth="yes"/>
      <point x="210.9" y="520.0"/>
      <point x="259.4" y="572.2"/>
      <point x="259.4" y="643.0" type="curve" smooth="yes"/>
      <point x="259.4" y="690.8"/>
      <point x="231.3" y="728.0"/>
      <point x="187.7" y="728.0" type="curve" smooth="yes"/>
      <point x="132.3" y="728.0"/>
      <point x="83.7" y="671.4"/>
      <point x="83.7" y="602.0" type="curve" smooth="yes"/>
      <point x="83.7" y="555.5"/>
      <point x="111.5" y="520.0"/>
    </contour>
    <contour>
      <point x="158.4" y="540.0" type="curve" smooth="yes"/>
      <point x="123.5" y="540.0"/>
      <point x="102.4" y="568.2"/>
      <point x="102.4" y="605.4" type="curve" smooth="yes"/>
      <point x="102.4" y="662.8"/>
      <point x="140.3" y="708.0"/>
      <point x="184.7" y="708.0" type="curve" smooth="yes"/>
      <point x="221.7" y="708.0"/>
      <point x="241.4" y="678.5"/>
      <point x="241.4" y="640.6" type="curve" smooth="yes"/>
      <point x="241.4" y="585.0"/>
      <point x="202.8" y="540.0"/>
    </contour>
  </outline>
</glyph>
<glyph name="plusminus" format="2">
  <advance width="461.4"/>
  <unicode hex="00B1"/>
  <outline>
    <contour>
      <point x="373.6" y="74.0" type="line"/>
      <point x="376.6" y="92.3" type="line"/>
      <point x="211.2" y="92.3" type="line"/>
      <point x="243.5" y="299.0" type="line"/>
      <point x="408.6" y="299.0" type="line"/>
      <point x="411.6" y="317.3" type="line"/>
      <point x="246.5" y="317.3" type="line"/>
      <point x="279.5" y="518.1" type="line"/>
      <point x="261.2" y="518.1" type="line"/>
      <point x="228.5" y="317.3" type="line"/>
      <point x="62.8" y="317.3" type="line"/>
      <point x="59.8" y="299.0" type="line"/>
      <point x="225.2" y="299.0" type="line"/>
      <point x="192.9" y="92.3" type="line"/>
      <point x="27.799999999999997" y="92.3" type="line"/>
      <point x="24.799999999999997" y="74.0" type="line"/>
    </contour>
  </outline>
</glyph>
<glyph name="uni00B2" format="2">
  <advance width="480.49999999999994"/>
  <unicode hex="00B2"/>
  <outline>
    <contour>
      <point x="82.5" y="369.0" type="line"/>
      <point x="427.5" y="369.0" type="line"/>
      <point x="428.0" y="385.5" type="line"/>
      <point x="117.0" y="385.5" type="line"/>
      <point x="266.5" y="486.0"/>
      <point x="406.0" y="561.0"/>
      <point x="406.0" y="680.0" type="curve" smooth="yes"/>
      <point x="406.0" y="739.5"/>
      <point x="367.0" y="771.0"/>
      <point x="295.5" y="771.0" type="curve" smooth="yes"/>
      <point x="248.5" y="771.0"/>
      <point x="196.0" y="756.0"/>
      <point x="156.0" y="735.0" type="curve"/>
      <point x="162.5" y="720.0" type="line"/>
      <point x="202.0" y="742.0"/>
      <point x="250.0" y="755.0"/>
      <point x="294.5" y="755.0" type="curve" smooth="yes"/>
      <point x="356.0" y="755.0"/>
      <point x="389.5" y="727.5"/>
      <point x="389.5" y="677.0" type="curve" smooth="yes"/>
      <point x="389.0" y="576.5"/>
      <point x="264.5" y="500.5"/>
      <point x="82.5" y="383.0" type="curve"/>
    </contour>
  </outline>
</glyph>
<glyph name="uni00B3" format="2">
  <advance width="443.5"/>
  <unicode hex="00B3"/>
  <outline>
    <contour>
      <point x="42.5" y="411.5" type="line"/>
      <point x="90.0" y="378.5"/>
      <point x="149.5" y="364.0"/>
      <point x="228.49999999999997" y="364.0" type="curve" smooth="yes"/>
      <point x="363.5" y="364.0"/>
      <point x="430.5" y="409.0"/>
      <point x="430.5" y="487.5" type="curve" smooth="yes"/>
      <point x="430.5" y="536.0"/>
      <point x="397.0" y="571.0"/>
      <point x="342.5" y="580.0" type="curve"/>
      <point x="393.0" y="594.0"/>
      <point x="428.5" y="626.0"/>
      <point x="428.5" y="673.5" type="curve" smooth="yes"/>
      <point x="428.5" y="732.5"/>
      <point x="374.5" y="771.0"/>
      <point x="275.5" y="771.0" type="curve" smooth="yes"/>
      <point x="231.5" y="771.0"/>
      <point x="175.0" y="763.0"/>
      <point x="125.5" y="748.0" type="curve"/>
      <point x="131.5" y="733.0" type="line"/>
      <point x="178.0" y="747.0"/>
      <point x="233.0" y="755.0"/>
      <point x="274.0" y="755.0" type="curve" smooth="yes"/>
      <point x="360.0" y="755.0"/>
      <point x="411.5" y="725.0"/>
      <point x="411.5" y="672.5" type="curve" smooth="yes"/>
      <point x="411.5" y="617.0"/>
      <point x="351.5" y="586.5"/>
      <point x="288.5" y="586.5" type="curve" smooth="yes"/>
      <point x="176.0" y="586.5" type="line"/>
      <point x="174.0" y="571.0" type="line"/>
      <point x="281.5" y="571.0" type="line" smooth="yes"/>
      <point x="367.0" y="571.0"/>
      <point x="413.5" y="544.0"/>
      <point x="413.5" y="484.5" type="curve" smooth="yes"/>
      <point x="413.5" y="416.0"/>
      <point x="349.0" y="380.0"/>
      <point x="226.99999999999997" y="380.0" type="curve" smooth="yes"/>
      <point x="151.5" y="380.0"/>
      <point x="99.5" y="394.5"/>
      <point x="54.0" y="425.5" type="curve"/>
    </contour>
  </outline>
</glyph>
<glyph name="uni00B5" format="2">
  <advance width="642.5"/>
  <unicode hex="00B5"/>
  <outline>
    <contour>
      <point x="25.9" y="-210.0" type="line"/>
      <point x="44.599999999999994" y="-210.0" type="line"/>
      <point x="88.3" y="70.19999999999999" type="line"/>
      <point x="102.89999999999999" y="19.7"/>
      <point x="146.8" y="-10.0"/>
      <point x="220.6" y="-10.0" type="curve" smooth="yes"/>
      <point x="316.9" y="-10.0"/>
      <point x="390.5" y="18.2"/>
      <point x="485.29999999999995" y="68.3" type="curve"/>
      <point x="486.2" y="11.6"/>
      <point x="509.29999999999995" y="-10.0"/>
      <point x="550.0" y="-10.0" type="curve" smooth="yes"/>
      <point x="558.0" y="-10.0"/>
      <point x="577.4" y="-6.7"/>
      <point x="590.8" y="0.0" type="curve"/>
      <point x="587.2" y="16.1" type="line"/>
      <point x="573.8" y="11.1"/>
      <point x="558.3" y="8.1"/>
      <point x="551.3" y="8.1" type="curve" smooth="yes"/>
      <point x="519.5999999999999" y="8.1"/>
      <point x="503.7" y="24.4"/>
      <point x="503.7" y="68.3" type="curve" smooth="yes"/>
      <point x="503.7" y="81.4"/>
      <point x="505.29999999999995" y="108.69999999999999"/>
      <point x="572.5999999999999" y="530.0" type="curve"/>
      <point x="552.9" y="530.0" type="line"/>
      <point x="485.7" y="87.0" type="line"/>
      <point x="390.09999999999997" y="36.599999999999994"/>
      <point x="316.6" y="8.4"/>
      <point x="224.0" y="8.4" type="curve" smooth="yes"/>
      <point x="139.7" y="8.4"/>
      <point x="98.8" y="49.2"/>
      <point x="98.8" y="113.3" type="curve" smooth="yes"/>
      <point x="98.8" y="128.5"/>
      <point x="106.4" y="191.0"/>
      <point x="159.9" y="530.0" type="curve"/>
      <point x="140.9" y="530.0" type="line"/>
    </contour>
  </outline>
</glyph>
<glyph name="paragraph" format="2">
  <advance width="613.5"/>
  <unicode hex="00B6"/>
  <outline>
    <contour>
      <point x="414.29999999999995" y="-210.0" type="line"/>
      <point x="432.29999999999995" y="-210.0" type="line"/>
      <point x="582.3" y="740.0" type="line"/>
      <point x="564.3" y="740.0" type="line"/>
    </contour>
    <contour>
      <point x="254.5" y="201.3" type="line"/>
      <point x="159.5" y="212.5"/>
      <point x="93.1" y="283.2"/>
      <point x="93.1" y="390.0" type="curve" smooth="yes"/>
      <point x="93.1" y="575.5"/>
      <point x="200.3" y="720.2"/>
      <point x="408.7" y="724.1" type="curve"/>
      <point x="261.7" y="-210.0" type="line"/>
      <point x="279.7" y="-210.0" type="line"/>
      <point x="429.7" y="740.0" type="line"/>
      <point x="417.79999999999995" y="740.0" type="line" smooth="yes"/>
      <point x="197.7" y="740.0"/>
      <point x="73.69999999999999" y="594.8"/>
      <point x="73.69999999999999" y="385.8" type="curve" smooth="yes"/>
      <point x="73.69999999999999" y="270.7"/>
      <point x="144.8" y="194.8"/>
      <point x="249.5" y="182.7" type="curve"/>
    </contour>
  </outline>
</glyph>
<glyph name="periodcentered" format="2">
  <advance width="177.5"/>
  <unicode hex="00B7"/>
  <outline>
    <contour>
      <point x="74.3" y="282.1" type="curve" smooth="yes"/>
      <point x="73.0" y="271.6"/>
      <point x="76.1" y="270.0"/>
      <point x="86.69999999999999" y="270.0" type="curve" smooth="yes"/>
      <point x="102.9" y="270.0"/>
      <point x="103.9" y="271.0"/>
      <point x="106.6" y="291.9" type="curve" smooth="yes"/>
      <point x="107.9" y="302.1"/>
      <point x="105.1" y="304.0"/>
      <point x="94.5" y="304.0" type="curve" smooth="yes"/>
      <point x="78.3" y="304.0"/>
      <point x="77.0" y="303.0"/>
    </contour>
  </outline>
</glyph>
<glyph name="uni00B9" format="2">
  <advance width="417.79999999999995"/>
  <unicode hex="00B9"/>
  <outline>
    <contour>
      <point x="41.1" y="370.0" type="line"/>
      <point x="415.0" y="370.0" type="line"/>
      <point x="417.0" y="386.3" type="line"/>
      <point x="255.89999999999998" y="386.3" type="line"/>
      <point x="317.6" y="768.6" type="line"/>
      <point x="307.3" y="768.6" type="line"/>
      <point x="86.4" y="665.3" type="line"/>
      <point x="90.2" y="649.9" type="line"/>
      <point x="297.7" y="743.8" type="line"/>
      <point x="238.89999999999998" y="386.3" type="line"/>
      <point x="42.7" y="386.3" type="line"/>
    </contour>
  </outline>
</glyph>
<glyph name="ordmasculine" format="2">
  <advance width="402.1"/>
  <unicode hex="00BA"/>
  <outline>
    <contour>
      <point x="45.9" y="283.1" type="line"/>
      <point x="352.2" y="283.1" type="line"/>
      <point x="354.9" y="300.5" type="line"/>
      <point x="48.6" y="300.5" type="line"/>
    </contour>
    <component base="o.superior" xOffset="11.0"/>
  </outline>
</glyph>
<glyph name="AE" format="2">
  <advance width="1106.6999999999998"/>
  <unicode hex="00C6"/>
  <anchor x="514.6107999999999" y="0.0" name="bottom"/>
  <anchor x="620.7" y="700.0" name="top"/>
  <outline>
    <contour>
      <point x="476.29999999999995" y="0.0" type="line"/>
      <point x="1018.0999999999999" y="0.0" type="line"/>
      <point x="1021.0999999999999" y="19.0" type="line"/>
      <point x="498.29999999999995" y="19.0" type="line"/>
      <point x="549.4" y="343.1" type="line"/>
      <point x="1006.8" y="343.1" type="line"/>
      <point x="1009.8" y="362.1" type="line"/>
      <point x="552.4" y="362.1" type="line"/>
      <point x="603.0" y="681.0" type="line"/>
      <point x="1104.1999999999998" y="681.0" type="line"/>
      <point x="1107.5" y="700.0" type="line"/>
      <point x="577.0999999999999" y="700.0" type="line"/>
      <point x="-38.1" y="0.0" type="line"/>
      <point x="-12.9" y="0.0" type="line"/>
      <point x="289.7" y="343.1" type="line"/>
      <point x="530.4" y="343.1" type="line"/>
    </contour>
    <contour>
      <point x="306.1" y="362.1" type="line"/>
      <point x="583.7" y="680.1" type="line"/>
      <point x="533.4" y="362.1" type="line"/>
    </contour>
  </outline>
</glyph>
<glyph name="multiply" format="2">
  <advance width="455.1"/>
  <unicode hex="00D7"/>
  <outline>
    <contour>
      <point x="47.9" y="77.0" type="line"/>
      <point x="228.0" y="270.9" type="line"/>
      <point x="343.2" y="81.2" type="line"/>
      <point x="357.7" y="93.7" type="line"/>
      <point x="241.0" y="287.3" type="line"/>
      <point x="425.8" y="485.7" type="line"/>
      <point x="413.3" y="498.9" type="line"/>
      <point x="231.2" y="304.4" type="line"/>
      <point x="112.5" y="498.9" type="line"/>
      <point x="98.0" y="486.4" type="line"/>
      <point x="217.89999999999998" y="288.3" type="line"/>
      <point x="35.4" y="90.2" type="line"/>
    </contour>
  </outline>
</glyph>
<glyph name="Oslash" format="2">
  <advance width="885.9999999999999"/>
  <unicode hex="00D8"/>
  <anchor x="493.99999999999994" y="700.0" name="top"/>
  <outline>
    <contour>
      <point x="911.9999999999999" y="710.0" type="line"/>
      <point x="882.9999999999999" y="710.0" type="line"/>
      <point x="758.5" y="608.0" type="line"/>
      <point x="758.0" y="608.0" type="line"/>
      <point x="144.5" y="107.0" type="line"/>
      <point x="144.0" y="107.0" type="line"/>
      <point x="1.5" y="-10.0" type="line"/>
      <point x="30.0" y="-10.0" type="line"/>
      <point x="156.5" y="93.5" type="line"/>
      <point x="157.0" y="93.5" type="line"/>
      <point x="771.5" y="595.5" type="line"/>
      <point x="772.0" y="595.5" type="line"/>
    </contour>
    <contour>
      <point x="430.99999999999994" y="-10.0" type="curve" smooth="yes"/>
      <point x="685.0" y="-10.0"/>
      <point x="834.9999999999999" y="148.5"/>
      <point x="834.9999999999999" y="414.5" type="curve" smooth="yes"/>
      <point x="834.9999999999999" y="607.5"/>
      <point x="718.0" y="710.0"/>
      <point x="482.0" y="710.0" type="curve" smooth="yes"/>
      <point x="228.0" y="710.0"/>
      <point x="78.0" y="551.5"/>
      <point x="78.0" y="285.5" type="curve" smooth="yes"/>
      <point x="78.0" y="92.5"/>
      <point x="195.0" y="-10.0"/>
    </contour>
    <contour>
      <point x="430.49999999999994" y="8.5" type="curve" smooth="yes"/>
      <point x="207.5" y="8.5"/>
      <point x="97.0" y="106.5"/>
      <point x="97.0" y="288.0" type="curve" smooth="yes"/>
      <point x="97.0" y="540.0"/>
      <point x="239.0" y="691.5"/>
      <point x="482.5" y="691.5" type="curve" smooth="yes"/>
      <point x="705.5" y="691.5"/>
      <point x="815.9999999999999" y="593.5"/>
      <point x="815.9999999999999" y="412.0" type="curve" smooth="yes"/>
      <point x="815.9999999999999" y="160.0"/>
      <point x="674.0" y="8.5"/>
    </contour>
  </outline>
</glyph>
<glyph name="Thorn" format="2">
  <advance width="753.0"/>
  <unicode hex="00DE"/>
  <outline>
    <contour>
      <point x="65.5" y="0.0" type="line"/>
      <point x="84.5" y="0.0" type="line"/>
      <point x="112.5" y="175.0" type="line"/>
      <point x="212.99999999999997" y="172.0"/>
      <point x="274.5" y="171.5"/>
      <point x="372.99999999999994" y="171.5" type="curve" smooth="yes"/>
      <point x="609.0" y="171.5"/>
      <point x="722.5" y="251.5"/>
      <point x="722.5" y="439.5" type="curve" smooth="yes"/>
      <point x="722.5" y="560.5"/>
      <point x="633.5" y="621.5"/>
      <point x="418.0" y="621.5" type="curve" smooth="yes"/>
      <point x="374.0" y="621.5"/>
      <point x="315.5" y="620.0"/>
      <point x="180.5" y="613.5" type="curve"/>
      <point x="194.5" y="700.0" type="line"/>
      <point x="175.5" y="700.0" type="line"/>
    </contour>
    <contour>
      <point x="371.49999999999994" y="189.5" type="curve" smooth="yes"/>
      <point x="268.0" y="189.5"/>
      <point x="212.99999999999997" y="190.5"/>
      <point x="115.5" y="194.5" type="curve"/>
      <point x="178.5" y="594.5" type="line"/>
      <point x="314.5" y="601.0"/>
      <point x="368.5" y="602.5"/>
      <point x="415.0" y="602.5" type="curve" smooth="yes"/>
      <point x="625.0" y="602.5"/>
      <point x="703.5" y="551.0"/>
      <point x="703.5" y="435.0" type="curve" smooth="yes"/>
      <point x="703.5" y="264.0"/>
      <point x="602.0" y="189.5"/>
    </contour>
  </outline>
</glyph>
<glyph name="germandbls" format="2">
  <advance width="688.5"/>
  <unicode hex="00DF"/>
  <outline>
    <contour>
      <point x="72.5" y="-66.0" type="line" smooth="yes"/>
      <point x="58.5" y="-152.0"/>
      <point x="32.5" y="-203.5"/>
      <point x="-27.500000000000007" y="-203.5" type="curve" smooth="yes"/>
      <point x="-42.50000000000001" y="-203.5"/>
      <point x="-61.50000000000001" y="-201.5"/>
      <point x="-84.5" y="-192.5" type="curve"/>
      <point x="-89.0" y="-209.0" type="line"/>
      <point x="-71.5" y="-217.5"/>
      <point x="-40.00000000000001" y="-220.0"/>
      <point x="-26.500000000000007" y="-220.0" type="curve" smooth="yes"/>
      <point x="42.0" y="-220.0"/>
      <point x="75.5" y="-166.5"/>
      <point x="90.5" y="-71.0" type="curve" smooth="yes"/>
      <point x="182.0" y="504.0" type="line" smooth="yes"/>
      <point x="208.0" y="662.5"/>
      <point x="276.0" y="733.0"/>
      <point x="433.0" y="733.0" type="curve" smooth="yes"/>
      <point x="539.5" y="733.0"/>
      <point x="592.5" y="701.5"/>
      <point x="592.5" y="642.5" type="curve" smooth="yes"/>
      <point x="592.5" y="589.0"/>
      <point x="555.5" y="559.0"/>
      <point x="443.0" y="531.0" type="curve" smooth="yes"/>
      <point x="316.5" y="500.0"/>
      <point x="268.5" y="464.0"/>
      <point x="268.5" y="390.0" type="curve" smooth="yes"/>
      <point x="268.5" y="319.0"/>
      <point x="320.5" y="287.5"/>
      <point x="471.0" y="255.0" type="curve" smooth="yes"/>
      <point x="595.0" y="227.0"/>
      <point x="641.0" y="198.5"/>
      <point x="641.0" y="135.0" type="curve" smooth="yes"/>
      <point x="641.0" y="57.5"/>
      <point x="553.0" y="9.0"/>
      <point x="411.0" y="9.0" type="curve" smooth="yes"/>
      <point x="344.0" y="9.0"/>
      <point x="257.5" y="26.0"/>
      <point x="192.0" y="51.0" type="curve"/>
      <point x="183.0" y="32.0" type="line"/>
      <point x="249.99999999999997" y="5.999999999999998"/>
      <point x="339.5" y="-10.5"/>
      <point x="408.5" y="-10.5" type="curve" smooth="yes"/>
      <point x="568.5" y="-10.5"/>
      <point x="660.5" y="43.0"/>
      <point x="660.5" y="138.5" type="curve" smooth="yes"/>
      <point x="660.5" y="205.5"/>
      <point x="609.0" y="242.5"/>
      <point x="468.0" y="274.0" type="curve" smooth="yes"/>
      <point x="330.5" y="304.0"/>
      <point x="287.5" y="331.0"/>
      <point x="287.5" y="393.0" type="curve" smooth="yes"/>
      <point x="287.5" y="455.0"/>
      <point x="329.0" y="485.0"/>
      <point x="445.5" y="514.5" type="curve" smooth="yes"/>
      <point x="574.5" y="548.0"/>
      <point x="611.5" y="580.5"/>
      <point x="611.5" y="646.5" type="curve" smooth="yes"/>
      <point x="611.5" y="714.0"/>
      <point x="552.0" y="750.0"/>
      <point x="429.0" y="750.0" type="curve" smooth="yes"/>
      <point x="268.5" y="750.0"/>
      <point x="193.0" y="677.5"/>
      <point x="164.5" y="510.0" type="curve" smooth="yes"/>
      <point x="161.0" y="484.0" type="line"/>
      <point x="37.5" y="476.0" type="line"/>
      <point x="34.5" y="464.0" type="line"/>
      <point x="156.0" y="464.0" type="line"/>
    </contour>
  </outline>
</glyph>
<glyph name="ae" format="2">
  <advance width="1064.5"/>
  <unicode hex="00E6"/>
  <anchor x="490.49999999999994" y="0.0" name="bottom"/>
  <anchor x="560.5" y="530.0" name="top"/>
  <outline>
    <contour>
      <point x="251.49999999999997" y="-10.0" type="curve" smooth="yes"/>
      <point x="336.5" y="-10.0"/>
      <point x="421.99999999999994" y="22.5"/>
      <point x="475.99999999999994" y="58.5" type="curve"/>
      <point x="465.99999999999994" y="-2.500000000000001" type="line"/>
      <point x="484.49999999999994" y="-2.500000000000001" type="line"/>
      <point x="507.99999999999994" y="146.5" type="line"/>
      <point x="525.5" y="44.0"/>
      <point x="602.0" y="-10.0"/>
      <point x="731.0" y="-10.0" type="curve" smooth="yes"/>
      <point x="813.0" y="-10.0"/>
      <point x="917.4999999999999" y="10.5"/>
      <point x="988.9999999999999" y="40.0" type="curve"/>
      <point x="982.4999999999999" y="57.0" type="line"/>
      <point x="904.4999999999999" y="27.0"/>
      <point x="807.5" y="8.5"/>
      <point x="732.5" y="8.5" type="curve" smooth="yes"/>
      <point x="597.0" y="8.5"/>
      <point x="521.5" y="76.0"/>
      <point x="521.5" y="194.5" type="curve" smooth="yes"/>
      <point x="521.5" y="385.5"/>
      <point x="649.5" y="521.5"/>
      <point x="844.0" y="521.5" type="curve" smooth="yes"/>
      <point x="957.4999999999999" y="521.5"/>
      <point x="1017.4999999999999" y="485.0"/>
      <point x="1017.4999999999999" y="419.5" type="curve" smooth="yes"/>
      <point x="1017.4999999999999" y="336.5"/>
      <point x="913.9999999999999" y="281.0"/>
      <point x="735.0" y="270.0" type="curve" smooth="yes"/>
      <point x="660.0" y="264.5"/>
      <point x="581.0" y="268.5"/>
      <point x="518.5" y="279.0" type="curve"/>
      <point x="515.5" y="260.0" type="line"/>
      <point x="575.5" y="249.5"/>
      <point x="657.0" y="245.5"/>
      <point x="730.5" y="251.0" type="curve" smooth="yes"/>
      <point x="927.9999999999999" y="263.0"/>
      <point x="1036.0" y="324.0"/>
      <point x="1036.0" y="422.5" type="curve" smooth="yes"/>
      <point x="1036.0" y="496.5"/>
      <point x="965.9999999999999" y="540.0"/>
      <point x="845.5" y="540.0" type="curve" smooth="yes"/>
      <point x="709.0" y="540.0"/>
      <point x="598.5" y="479.0"/>
      <point x="543.5" y="372.0" type="curve"/>
      <point x="569.0" y="533.0" type="line"/>
      <point x="550.5" y="533.0" type="line"/>
      <point x="544.0" y="494.0" type="line"/>
      <point x="495.49999999999994" y="523.5"/>
      <point x="432.5" y="540.0"/>
      <point x="372.5" y="540.0" type="curve" smooth="yes"/>
      <point x="193.0" y="540.0"/>
      <point x="43.5" y="412.5"/>
      <point x="43.5" y="189.5" type="curve" smooth="yes"/>
      <point x="43.5" y="62.0"/>
      <point x="119.99999999999999" y="-10.0"/>
    </contour>
    <contour>
      <point x="254.99999999999997" y="8.5" type="curve" smooth="yes"/>
      <point x="134.5" y="8.5"/>
      <point x="63.0" y="73.0"/>
      <point x="63.0" y="190.0" type="curve" smooth="yes"/>
      <point x="63.0" y="410.5"/>
      <point x="217.0" y="522.5"/>
      <point x="370.0" y="522.5" type="curve" smooth="yes"/>
      <point x="433.0" y="522.5"/>
      <point x="490.49999999999994" y="507.5"/>
      <point x="541.5" y="474.0" type="curve"/>
      <point x="479.49999999999994" y="81.0" type="line"/>
      <point x="416.99999999999994" y="38.0"/>
      <point x="330.0" y="8.5"/>
    </contour>
  </outline>
</glyph>
<glyph name="eth" format="2">
  <advance width="703.5"/>
  <unicode hex="00F0"/>
  <outline>
    <contour>
      <point x="651.0" y="421.0" type="curve"/>
      <point x="654.5" y="440.0" type="line"/>
      <point x="596.0" y="502.0"/>
      <point x="492.49999999999994" y="534.5"/>
      <point x="379.0" y="534.5" type="curve" smooth="yes"/>
      <point x="187.5" y="534.5"/>
      <point x="53.0" y="413.0"/>
      <point x="53.0" y="212.5" type="curve" smooth="yes"/>
      <point x="53.0" y="53.0"/>
      <point x="160.0" y="-10.0"/>
      <point x="310.0" y="-10.0" type="curve" smooth="yes"/>
      <point x="494.49999999999994" y="-10.0"/>
      <point x="614.5" y="90.5"/>
      <point x="650.0" y="305.0" type="curve" smooth="yes"/>
      <point x="658.5" y="351.5"/>
      <point x="661.5" y="388.0"/>
      <point x="661.5" y="424.5" type="curve" smooth="yes"/>
      <point x="661.5" y="605.0"/>
      <point x="532.0" y="710.0"/>
      <point x="310.0" y="710.0" type="curve" smooth="yes"/>
      <point x="246.5" y="710.0"/>
      <point x="199.5" y="703.0"/>
      <point x="140.0" y="692.0" type="curve"/>
      <point x="143.0" y="673.5" type="line"/>
      <point x="201.5" y="684.0"/>
      <point x="244.5" y="691.5"/>
      <point x="309.0" y="691.5" type="curve" smooth="yes"/>
      <point x="522.0" y="691.5"/>
      <point x="641.5" y="594.5"/>
      <point x="641.5" y="423.0" type="curve" smooth="yes"/>
      <point x="641.5" y="384.0"/>
      <point x="638.5" y="346.5"/>
      <point x="630.5" y="305.5" type="curve" smooth="yes"/>
      <point x="595.0" y="103.5"/>
      <point x="487.99999999999994" y="8.5"/>
      <point x="312.5" y="8.5" type="curve" smooth="yes"/>
      <point x="172.5" y="8.5"/>
      <point x="72.0" y="64.0"/>
      <point x="72.0" y="213.0" type="curve" smooth="yes"/>
      <point x="72.0" y="399.0"/>
      <point x="199.5" y="516.5"/>
      <point x="378.0" y="516.5" type="curve" smooth="yes"/>
      <point x="490.49999999999994" y="516.5"/>
      <point x="588.0" y="484.0"/>
    </contour>
    <contour>
      <point x="227.5" y="564.5" type="line"/>
      <point x="514.5" y="655.0" type="line"/>
      <point x="511.99999999999994" y="655.5" type="line"/>
      <point x="705.0" y="719.0" type="line"/>
      <point x="651.0" y="719.0" type="line"/>
      <point x="493.99999999999994" y="667.5" type="line"/>
      <point x="496.99999999999994" y="667.0" type="line"/>
      <point x="173.5" y="564.5" type="line"/>
    </contour>
  </outline>
</glyph>
<glyph name="divide" format="2">
  <advance width="461.1"/>
  <unicode hex="00F7"/>
  <outline>
    <contour>
      <point x="183.8" y="81.3" type="curve" smooth="yes"/>
      <point x="182.8" y="72.6"/>
      <point x="185.9" y="71.3"/>
      <point x="196.2" y="71.3" type="curve" smooth="yes"/>
      <point x="213.6" y="71.3"/>
      <point x="214.3" y="72.3"/>
      <point x="217.3" y="95.3" type="curve" smooth="yes"/>
      <point x="218.3" y="104.3"/>
      <point x="214.6" y="105.3"/>
      <point x="204.6" y="105.3" type="curve" smooth="yes"/>
      <point x="187.8" y="105.3"/>
      <point x="186.8" y="104.3"/>
    </contour>
    <contour>
      <point x="248.5" y="482.7" type="curve" smooth="yes"/>
      <point x="247.5" y="474.0"/>
      <point x="250.6" y="472.7"/>
      <point x="260.9" y="472.7" type="curve" smooth="yes"/>
      <point x="278.3" y="472.7"/>
      <point x="279.0" y="473.7"/>
      <point x="282.0" y="496.7" type="curve" smooth="yes"/>
      <point x="283.0" y="505.7"/>
      <point x="279.3" y="506.7"/>
      <point x="269.3" y="506.7" type="curve" smooth="yes"/>
      <point x="252.5" y="506.7"/>
      <point x="251.5" y="505.7"/>
    </contour>
    <contour>
      <point x="56.8" y="279.0" type="line"/>
      <point x="405.6" y="279.0" type="line"/>
      <point x="409.3" y="299.0" type="line"/>
      <point x="60.5" y="299.0" type="line"/>
    </contour>
  </outline>
</glyph>
<glyph name="oslash" format="2">
  <advance width="650.5"/>
  <unicode hex="00F8"/>
  <anchor x="355.0" y="530.0" name="top"/>
  <outline>
    <contour>
      <point x="608.5" y="540.0" type="line"/>
      <point x="535.5" y="473.0" type="line"/>
      <point x="535.0" y="473.0" type="line"/>
      <point x="103.49999999999999" y="71.5" type="line"/>
      <point x="102.99999999999999" y="71.5" type="line"/>
      <point x="14.999999999999998" y="-10.0" type="line"/>
      <point x="41.99999999999999" y="-10.0" type="line"/>
      <point x="116.0" y="58.0" type="line"/>
      <point x="116.5" y="58.0" type="line"/>
      <point x="547.5" y="459.0" type="line"/>
      <point x="548.0" y="459.0" type="line"/>
      <point x="635.5" y="540.0" type="line"/>
    </contour>
    <contour>
      <point x="301.5" y="-10.0" type="curve" smooth="yes"/>
      <point x="492.49999999999994" y="-10.0"/>
      <point x="598.5" y="126.00000000000003"/>
      <point x="598.5" y="329.5" type="curve" smooth="yes"/>
      <point x="598.5" y="468.0"/>
      <point x="510.99999999999994" y="540.0"/>
      <point x="349.5" y="540.0" type="curve" smooth="yes"/>
      <point x="160.0" y="540.0"/>
      <point x="52.5" y="401.0"/>
      <point x="52.5" y="199.5" type="curve" smooth="yes"/>
      <point x="52.5" y="60.0"/>
      <point x="138.5" y="-10.0"/>
    </contour>
    <contour>
      <point x="302.5" y="8.5" type="curve" smooth="yes"/>
      <point x="150.5" y="8.5"/>
      <point x="71.5" y="72.0"/>
      <point x="71.5" y="201.5" type="curve" smooth="yes"/>
      <point x="71.5" y="389.5"/>
      <point x="171.0" y="521.5"/>
      <point x="349.0" y="521.5" type="curve" smooth="yes"/>
      <point x="498.99999999999994" y="521.5"/>
      <point x="579.5" y="455.5"/>
      <point x="579.5" y="327.0" type="curve" smooth="yes"/>
      <point x="579.5" y="136.50000000000003"/>
      <point x="481.99999999999994" y="8.5"/>
    </contour>
  </outline>
</glyph>
<glyph name="Dcroat" format="2">
  <advance width="838.4"/>
  <unicode hex="0110"/>
  <outline>
    <contour>
      <point x="24.1" y="352.3" type="line"/>
      <point x="316.5" y="352.3" type="line"/>
      <point x="319.5" y="370.0" type="line"/>
      <point x="28.5" y="370.0" type="line"/>
    </contour>
    <component base="D" xOffset="2.1000000000000005"/>
  </outline>
</glyph>
<glyph name="dcroat" format="2">
  <advance width="629.9"/>
  <unicode hex="0111"/>
  <outline>
    <contour>
      <point x="368.9" y="618.9" type="line"/>
      <point x="696.0" y="618.9" type="line"/>
      <point x="699.0" y="636.0" type="line"/>
      <point x="371.9" y="636.0" type="line"/>
    </contour>
    <component base="d"/>
  </outline>
</glyph>
<glyph name="Hbar" format="2">
  <advance width="865.9"/>
  <unicode hex="0126"/>
  <outline>
    <contour>
      <point x="64.4" y="500.6" type="line"/>
      <point x="873.5" y="500.6" type="line"/>
      <point x="876.1999999999999" y="519.1" type="line"/>
      <point x="67.1" y="519.1" type="line"/>
    </contour>
    <component base="H" xOffset="1.0"/>
  </outline>
</glyph>
<glyph name="hbar" format="2">
  <advance width="659.0"/>
  <unicode hex="0127"/>
  <outline>
    <contour>
      <point x="52.8" y="618.9" type="line"/>
      <point x="386.7" y="618.9" type="line"/>
      <point x="389.7" y="636.0" type="line"/>
      <point x="55.8" y="636.0" type="line"/>
    </contour>
    <component base="h"/>
  </outline>
</glyph>
<glyph name="Idotaccent" format="2">
  <advance width="237.5"/>
  <unicode hex="0130"/>
  <outline>
    <contour>
      <point x="212.6" y="862.0" type="curve" smooth="yes"/>
      <point x="199.3" y="862.0"/>
      <point x="195.8" y="861.4"/>
      <point x="194.2" y="836.0" type="curve" smooth="yes"/>
      <point x="193.89999999999998" y="828.7"/>
      <point x="199.6" y="828.0"/>
      <point x="204.89999999999998" y="828.0" type="curve" smooth="yes"/>
      <point x="221.7" y="828.0"/>
      <point x="222.39999999999998" y="828.6"/>
      <point x="224.7" y="854.7" type="curve" smooth="yes"/>
      <point x="225.0" y="861.3"/>
      <point x="221.39999999999998" y="862.0"/>
    </contour>
    <component base="I"/>
  </outline>
</glyph>
<glyph name="dotlessi" format="2">
  <advance width="220.8"/>
  <unicode hex="0131"/>
  <anchor x="65.9" y="0.0" name="bottom"/>
  <anchor x="75.9" y="0.0" name="ogonek"/>
  <anchor x="150.6" y="530.0" name="top"/>
  <outline>
    <contour>
      <point x="75.9" y="0.0" type="line"/>
      <point x="159.9" y="530.0" type="line"/>
      <point x="140.9" y="530.0" type="line"/>
      <point x="57.199999999999996" y="0.0" type="line"/>
    </contour>
  </outline>
</glyph>
<glyph name="kgreenlandic" format="2">
  <advance width="575.5"/>
  <unicode hex="0138"/>
  <anchor x="258.5" y="0.0" name="bottom"/>
  <anchor x="331.0" y="530.0" name="top"/>
  <outline>
    <contour>
      <point x="58.0" y="0.0" type="line"/>
      <point x="77.5" y="0.0" type="line"/>
      <point x="160.5" y="530.0" type="line"/>
      <point x="141.0" y="530.0" type="line"/>
    </contour>
    <contour>
      <point x="522.0" y="-10.0" type="curve" smooth="yes"/>
      <point x="530.5" y="-10.0"/>
      <point x="540.5" y="-7.5"/>
      <point x="547.0" y="-4.0" type="curve"/>
      <point x="541.5" y="10.5" type="line"/>
      <point x="535.5" y="8.0"/>
      <point x="528.0" y="7.0"/>
      <point x="522.5" y="7.0" type="curve" smooth="yes"/>
      <point x="489.49999999999994" y="7.0"/>
      <point x="446.99999999999994" y="44.0"/>
      <point x="325.0" y="173.5" type="curve" smooth="yes"/>
      <point x="127.5" y="379.0" type="line"/>
      <point x="121.5" y="358.0" type="line"/>
      <point x="321.0" y="147.5" type="line" smooth="yes"/>
      <point x="438.49999999999994" y="24.5"/>
      <point x="477.49999999999994" y="-10.0"/>
    </contour>
    <contour>
      <point x="229.99999999999997" y="258.5" type="line"/>
      <point x="384.5" y="324.5"/>
      <point x="507.99999999999994" y="422.0"/>
      <point x="575.0" y="529.0" type="curve"/>
      <point x="560.5" y="539.5" type="line"/>
      <point x="478.99999999999994" y="423.0"/>
      <point x="399.0" y="354.5"/>
      <point x="217.0" y="272.5" type="curve"/>
    </contour>
  </outline>
</glyph>
<glyph name="Ldot" format="2">
  <advance width="618.2"/>
  <unicode hex="013F"/>
  <outline>
    <contour>
      <point x="434.2" y="360.5" type="curve" smooth="yes"/>
      <point x="432.9" y="350.0"/>
      <point x="436.0" y="348.4"/>
      <point x="446.59999999999997" y="348.4" type="curve" smooth="yes"/>
      <point x="462.79999999999995" y="348.4"/>
      <point x="463.79999999999995" y="349.4"/>
      <point x="466.5" y="370.3" type="curve" smooth="yes"/>
      <point x="467.79999999999995" y="380.5"/>
      <point x="465.0" y="382.4"/>
      <point x="454.4" y="382.4" type="curve" smooth="yes"/>
      <point x="438.2" y="382.4"/>
      <point x="436.9" y="381.4"/>
    </contour>
    <component base="L"/>
  </outline>
</glyph>
<glyph name="ldot" format="2">
  <advance width="284.8"/>
  <unicode hex="0140"/>
  <outline>
    <contour>
      <point x="251.6" y="352.1" type="curve" smooth="yes"/>
      <point x="250.3" y="341.6"/>
      <point x="253.39999999999998" y="340.0"/>
      <point x="264.0" y="340.0" type="curve" smooth="yes"/>
      <point x="280.2" y="340.0"/>
      <point x="281.2" y="341.0"/>
      <point x="283.9" y="361.9" type="curve" smooth="yes"/>
      <point x="285.2" y="372.1"/>
      <point x="282.4" y="374.0"/>
      <point x="271.8" y="374.0" type="curve" smooth="yes"/>
      <point x="255.6" y="374.0"/>
      <point x="254.3" y="373.0"/>
    </contour>
    <component base="l"/>
  </outline>
</glyph>
<glyph name="Lslash" format="2">
  <advance width="620.0"/>
  <unicode hex="0141"/>
  <outline>
    <contour>
      <point x="66.3" y="0.0" type="line"/>
      <point x="562.3" y="0.0" type="line"/>
      <point x="565.3" y="19.0" type="line"/>
      <point x="88.3" y="19.0" type="line"/>
      <point x="125.1" y="252.6" type="line"/>
      <point x="437.4" y="437.3" type="line"/>
      <point x="441.4" y="460.5" type="line"/>
      <point x="129.1" y="275.8" type="line"/>
      <point x="196.3" y="700.0" type="line"/>
      <point x="177.3" y="700.0" type="line"/>
      <point x="107.8" y="261.4" type="line"/>
      <point x="28.099999999999998" y="213.0" type="line"/>
      <point x="23.799999999999997" y="189.5" type="line"/>
      <point x="103.5" y="237.9" type="line"/>
    </contour>
  </outline>
</glyph>
<glyph name="lslash" format="2">
  <advance width="272.2"/>
  <unicode hex="0142"/>
  <outline>
    <contour>
      <point x="15.899999999999999" y="163.2" type="line"/>
      <point x="256.3" y="406.5" type="line"/>
      <point x="260.3" y="434.5" type="line"/>
      <point x="19.9" y="191.2" type="line"/>
    </contour>
    <component base="l"/>
  </outline>
</glyph>
<glyph name="Eng" format="2">
  <advance width="863.9999999999999"/>
  <unicode hex="014A"/>
  <outline>
    <contour>
      <point x="65.0" y="0.0" type="line"/>
      <point x="85.0" y="0.0" type="line"/>
      <point x="191.5" y="677.5" type="line"/>
      <point x="689.0" y="-3.4999999999999996" type="line"/>
      <point x="656.5" y="-136.5"/>
      <point x="560.0" y="-173.5"/>
      <point x="458.0" y="-173.5" type="curve" smooth="yes"/>
      <point x="413.0" y="-173.5"/>
      <point x="365.99999999999994" y="-166.0"/>
      <point x="325.99999999999994" y="-157.5" type="curve"/>
      <point x="321.49999999999994" y="-177.5" type="line"/>
      <point x="362.49999999999994" y="-186.0"/>
      <point x="409.0" y="-192.5"/>
      <point x="455.5" y="-192.5" type="curve" smooth="yes"/>
      <point x="597.5" y="-192.5"/>
      <point x="691.0" y="-122.5"/>
      <point x="715.0" y="25.0" type="curve" smooth="yes"/>
      <point x="822.5" y="700.0" type="line"/>
      <point x="803.0" y="700.0" type="line"/>
      <point x="696.5" y="20.000000000000004" type="line"/>
      <point x="196.0" y="707.0" type="line"/>
      <point x="177.0" y="707.0" type="line"/>
    </contour>
  </outline>
</glyph>
<glyph name="eng" format="2">
  <advance width="656.3"/>
  <unicode hex="014B"/>
  <outline>
    <contour>
      <point x="498.29999999999995" y="-75.2" type="curve" smooth="yes"/>
      <point x="523.8" y="88.60000000000002"/>
      <point x="574.9" y="386.9"/>
      <point x="574.9" y="411.9" type="curve" smooth="yes"/>
      <point x="574.9" y="492.2"/>
      <point x="525.9" y="540.0"/>
      <point x="426.0" y="540.0" type="curve" smooth="yes"/>
      <point x="324.0" y="540.0"/>
      <point x="245.8" y="504.9"/>
      <point x="148.5" y="457.6" type="curve"/>
      <point x="159.9" y="530.0" type="line"/>
      <point x="140.9" y="530.0" type="line"/>
      <point x="57.599999999999994" y="0.0" type="line"/>
      <point x="76.3" y="0.0" type="line"/>
      <point x="145.5" y="436.5" type="line"/>
      <point x="246.7" y="486.5"/>
      <point x="321.29999999999995" y="521.6"/>
      <point x="421.5" y="521.6" type="curve" smooth="yes"/>
      <point x="515.7" y="521.6"/>
      <point x="554.5" y="477.9"/>
      <point x="554.5" y="406.9" type="curve" smooth="yes"/>
      <point x="554.5" y="379.1"/>
      <point x="505.5" y="90.90000000000003"/>
      <point x="480.29999999999995" y="-70.2" type="curve" smooth="yes"/>
      <point x="466.59999999999997" y="-156.4"/>
      <point x="439.7" y="-207.2"/>
      <point x="379.59999999999997" y="-207.2" type="curve" smooth="yes"/>
      <point x="366.09999999999997" y="-207.2"/>
      <point x="348.59999999999997" y="-205.5"/>
      <point x="327.4" y="-197.2" type="curve"/>
      <point x="322.4" y="-214.2" type="line"/>
      <point x="338.7" y="-221.8"/>
      <point x="369.29999999999995" y="-224.2"/>
      <point x="380.9" y="-224.2" type="curve" smooth="yes"/>
      <point x="449.5" y="-224.2"/>
      <point x="483.29999999999995" y="-170.8"/>
    </contour>
  </outline>
</glyph>
<glyph name="OE" format="2">
  <advance width="1293.0"/>
  <unicode hex="0152"/>
  <outline>
    <contour>
      <point x="1204.4" y="0.0" type="line"/>
      <point x="1207.4" y="19.0" type="line"/>
      <point x="685.3" y="19.0" type="line"/>
      <point x="740.4" y="368.0" type="line"/>
      <point x="1216.4" y="368.0" type="line"/>
      <point x="1219.4" y="387.0" type="line"/>
      <point x="743.4" y="387.0" type="line"/>
      <point x="790.0" y="681.0" type="line"/>
      <point x="1290.5" y="681.0" type="line"/>
      <point x="1293.8" y="700.0" type="line"/>
      <point x="791.5" y="700.0" type="line"/>
      <point x="698.3" y="705.8"/>
      <point x="593.3" y="710.0"/>
      <point x="525.5999999999999" y="710.0" type="curve" smooth="yes"/>
      <point x="246.7" y="710.0"/>
      <point x="72.1" y="543.1"/>
      <point x="72.1" y="264.1" type="curve" smooth="yes"/>
      <point x="72.1" y="74.69999999999999"/>
      <point x="188.89999999999998" y="-10.0"/>
      <point x="432.9" y="-10.0" type="curve" smooth="yes"/>
      <point x="511.2" y="-10.0"/>
      <point x="587.9" y="-6.7"/>
      <point x="681.4" y="0.0" type="curve"/>
    </contour>
    <contour>
      <point x="666.0" y="18.2" type="line"/>
      <point x="583.0999999999999" y="11.8"/>
      <point x="519.3" y="8.7"/>
      <point x="441.0" y="8.7" type="curve" smooth="yes"/>
      <point x="200.0" y="8.7"/>
      <point x="91.8" y="91.5"/>
      <point x="91.8" y="268.3" type="curve" smooth="yes"/>
      <point x="91.8" y="526.5"/>
      <point x="262.6" y="691.6"/>
      <point x="529.4" y="691.6" type="curve" smooth="yes"/>
      <point x="566.0" y="691.6"/>
      <point x="728.5999999999999" y="687.3"/>
      <point x="771.3" y="683.2" type="curve"/>
    </contour>
  </outline>
</glyph>
<glyph name="oe" format="2">
  <advance width="1128.5"/>
  <unicode hex="0153"/>
  <outline>
    <contour>
      <point x="304.0" y="-10.0" type="curve" smooth="yes"/>
      <point x="434.99999999999994" y="-10.0"/>
      <point x="527.0" y="53.0"/>
      <point x="568.5" y="168.5" type="curve"/>
      <point x="579.0" y="52.0"/>
      <point x="657.5" y="-10.0"/>
      <point x="795.0" y="-10.0" type="curve" smooth="yes"/>
      <point x="876.9999999999999" y="-10.0"/>
      <point x="981.4999999999999" y="10.5"/>
      <point x="1053.0" y="40.0" type="curve"/>
      <point x="1046.5" y="57.0" type="line"/>
      <point x="968.4999999999999" y="27.0"/>
      <point x="871.4999999999999" y="8.5"/>
      <point x="796.5" y="8.5" type="curve" smooth="yes"/>
      <point x="661.5" y="8.5"/>
      <point x="585.5" y="75.5"/>
      <point x="585.5" y="194.0" type="curve" smooth="yes"/>
      <point x="585.5" y="385.5"/>
      <point x="715.0" y="521.5"/>
      <point x="907.9999999999999" y="521.5" type="curve" smooth="yes"/>
      <point x="1020.4999999999999" y="521.5"/>
      <point x="1081.5" y="485.5"/>
      <point x="1081.5" y="419.0" type="curve" smooth="yes"/>
      <point x="1081.5" y="336.5"/>
      <point x="977.4999999999999" y="281.0"/>
      <point x="799.0" y="269.5" type="curve" smooth="yes"/>
      <point x="728.5" y="265.0"/>
      <point x="646.5" y="268.5"/>
      <point x="584.0" y="278.0" type="curve"/>
      <point x="580.5" y="258.5" type="line"/>
      <point x="645.0" y="250.0"/>
      <point x="728.5" y="246.5"/>
      <point x="794.5" y="250.5" type="curve" smooth="yes"/>
      <point x="991.9999999999999" y="263.0"/>
      <point x="1100.0" y="324.5"/>
      <point x="1100.0" y="422.5" type="curve" smooth="yes"/>
      <point x="1100.0" y="496.5"/>
      <point x="1030.0" y="540.0"/>
      <point x="909.4999999999999" y="540.0" type="curve" smooth="yes"/>
      <point x="757.0" y="540.0"/>
      <point x="643.0" y="466.0"/>
      <point x="595.0" y="346.0" type="curve"/>
      <point x="589.5" y="472.0"/>
      <point x="501.49999999999994" y="540.0"/>
      <point x="342.0" y="540.0" type="curve" smooth="yes"/>
      <point x="163.5" y="540.0"/>
      <point x="49.99999999999999" y="401.0"/>
      <point x="49.99999999999999" y="199.5" type="curve" smooth="yes"/>
      <point x="49.99999999999999" y="60.0"/>
      <point x="136.0" y="-10.0"/>
    </contour>
    <contour>
      <point x="305.0" y="8.5" type="curve" smooth="yes"/>
      <point x="148.0" y="8.5"/>
      <point x="69.0" y="72.0"/>
      <point x="69.0" y="201.5" type="curve" smooth="yes"/>
      <point x="69.0" y="389.5"/>
      <point x="174.5" y="521.5"/>
      <point x="341.5" y="521.5" type="curve" smooth="yes"/>
      <point x="497.99999999999994" y="521.5"/>
      <point x="577.0" y="455.5"/>
      <point x="577.0" y="327.0" type="curve" smooth="yes"/>
      <point x="577.0" y="136.50000000000003"/>
      <point x="473.49999999999994" y="8.5"/>
    </contour>
  </outline>
</glyph>
<glyph name="uni0162" format="2">
  <advance width="607.2"/>
  <unicode hex="0162"/>
  <anchor x="259.6" y="0.0" name="_bottom"/>
  <anchor x="220.29999999999998" y="-220.0" name="bottom"/>
  <outline>
    <contour>
      <point x="119.3" y="-189.0" type="line"/>
      <point x="152.39999999999998" y="-211.0"/>
      <point x="183.29999999999998" y="-220.0"/>
      <point x="226.6" y="-220.0" type="curve" smooth="yes"/>
      <point x="297.6" y="-220.0"/>
      <point x="337.0" y="-169.7"/>
      <point x="337.0" y="-105.5" type="curve" smooth="yes"/>
      <point x="337.0" y="-55.5"/>
      <point x="308.2" y="-17.200000000000003"/>
      <point x="265.5" y="3.5" type="curve"/>
      <point x="250.29999999999998" y="0.0" type="line"/>
      <point x="295.79999999999995" y="-27.4"/>
      <point x="317.6" y="-58.8"/>
      <point x="317.6" y="-106.6" type="curve" smooth="yes"/>
      <point x="317.6" y="-166.3"/>
      <point x="282.4" y="-202.3"/>
      <point x="224.5" y="-202.3" type="curve" smooth="yes"/>
      <point x="187.79999999999998" y="-202.3"/>
      <point x="159.5" y="-191.6"/>
      <point x="127.99999999999999" y="-172.6" type="curve"/>
    </contour>
    <component base="T"/>
  </outline>
</glyph>
<glyph name="Tbar" format="2">
  <advance width="608.4"/>
  <unicode hex="0166"/>
  <outline>
    <contour>
      <point x="665.3" y="681.0" type="line"/>
      <point x="668.3" y="700.0" type="line"/>
      <point x="74.1" y="700.0" type="line"/>
      <point x="71.1" y="681.0" type="line"/>
      <point x="358.9" y="681.0" type="line"/>
      <point x="312.6" y="390.0" type="line"/>
      <point x="113.19999999999999" y="390.0" type="line"/>
      <point x="110.19999999999999" y="372.3" type="line"/>
      <point x="309.9" y="372.3" type="line"/>
      <point x="250.89999999999998" y="0.0" type="line"/>
      <point x="269.9" y="0.0" type="line"/>
      <point x="328.9" y="372.3" type="line"/>
      <point x="534.8" y="372.3" type="line"/>
      <point x="537.8" y="390.0" type="line"/>
      <point x="331.9" y="390.0" type="line"/>
      <point x="377.9" y="681.0" type="line"/>
    </contour>
  </outline>
</glyph>
<glyph name="uogonek" format="2">
  <advance width="632.0999999999999"/>
  <unicode hex="0173"/>
  <outline>
    <contour>
      <point x="517.5" y="-220.0" type="curve" smooth="yes"/>
      <point x="537.8" y="-220.0"/>
      <point x="556.0999999999999" y="-216.4"/>
      <point x="570.8" y="-210.8" type="curve"/>
      <point x="567.2" y="-195.0" type="line"/>
      <point x="552.0999999999999" y="-199.7"/>
      <point x="538.5" y="-202.3"/>
      <point x="520.0999999999999" y="-202.3" type="curve" smooth="yes"/>
      <point x="485.7" y="-202.3"/>
      <point x="460.2" y="-185.7"/>
      <point x="460.2" y="-145.4" type="curve" smooth="yes"/>
      <point x="460.2" y="-95.0"/>
      <point x="502.5" y="-42.2"/>
      <point x="585.7" y="0.0" type="curve"/>
      <point x="582.0999999999999" y="16.1" type="line"/>
      <point x="568.7" y="11.1"/>
      <point x="553.2" y="8.1"/>
      <point x="546.2" y="8.1" type="curve" smooth="yes"/>
      <point x="514.5" y="8.1"/>
      <point x="498.59999999999997" y="24.4"/>
      <point x="498.59999999999997" y="68.3" type="curve" smooth="yes"/>
      <point x="498.59999999999997" y="81.4"/>
      <point x="500.2" y="108.69999999999999"/>
      <point x="567.5" y="530.0" type="curve"/>
      <point x="547.8" y="530.0" type="line"/>
      <point x="480.59999999999997" y="87.0" type="line"/>
      <point x="385.0" y="36.599999999999994"/>
      <point x="311.5" y="8.4"/>
      <point x="218.89999999999998" y="8.4" type="curve" smooth="yes"/>
      <point x="134.6" y="8.4"/>
      <point x="93.69999999999999" y="49.2"/>
      <point x="93.69999999999999" y="113.3" type="curve" smooth="yes"/>
      <point x="93.69999999999999" y="127.3"/>
      <point x="95.0" y="150.2"/>
      <point x="154.8" y="530.0" type="curve"/>
      <point x="135.8" y="530.0" type="line"/>
      <point x="82.0" y="183.2"/>
      <point x="75.0" y="132.7"/>
      <point x="75.0" y="111.69999999999999" type="curve" smooth="yes"/>
      <point x="75.0" y="38.3"/>
      <point x="121.39999999999999" y="-10.0"/>
      <point x="215.5" y="-10.0" type="curve" smooth="yes"/>
      <point x="311.79999999999995" y="-10.0"/>
      <point x="385.4" y="18.2"/>
      <point x="480.2" y="68.3" type="curve"/>
      <point x="481.09999999999997" y="16.5"/>
      <point x="500.7" y="-10.0"/>
      <point x="542.8" y="-10.0" type="curve" smooth="yes"/>
      <point x="549.5999999999999" y="-10.0"/>
      <point x="556.0" y="-4.800000000000001"/>
      <point x="557.8" y="0.3999999999999986" type="curve"/>
      <point x="489.0" y="-38.1"/>
      <point x="441.5" y="-87.80000000000001"/>
      <point x="441.5" y="-146.9" type="curve" smooth="yes"/>
      <point x="441.5" y="-200.3"/>
      <point x="477.59999999999997" y="-220.0"/>
    </contour>
  </outline>
</glyph>
<glyph name="longs" format="2">
  <advance width="271.4"/>
  <unicode hex="017F"/>
  <outline>
    <contour>
      <point x="-36.300000000000004" y="-220.0" type="curve" smooth="yes"/>
      <point x="42.8" y="-220.0"/>
      <point x="78.8" y="-160.0"/>
      <point x="103.6" y="-2.4000000000000057" type="curve" smooth="yes"/>
      <point x="179.7" y="484.0" type="line" smooth="yes"/>
      <point x="206.3" y="654.3"/>
      <point x="265.5" y="731.0"/>
      <point x="380.0" y="731.0" type="curve" smooth="yes"/>
      <point x="442.7" y="731.0"/>
      <point x="481.5" y="720.3"/>
      <point x="536.2" y="704.0" type="curve"/>
      <point x="542.5" y="722.0" type="line"/>
      <point x="483.79999999999995" y="741.7"/>
      <point x="436.9" y="750.0"/>
      <point x="385.0" y="750.0" type="curve" smooth="yes"/>
      <point x="256.9" y="750.0"/>
      <point x="191.39999999999998" y="672.8"/>
      <point x="160.0" y="484.0" type="curve"/>
      <point x="53.7" y="478.7" type="line"/>
      <point x="51.7" y="465.0" type="line"/>
      <point x="157.0" y="465.0" type="line"/>
      <point x="82.8" y="-9.300000000000004" type="line" smooth="yes"/>
      <point x="60.699999999999996" y="-148.0"/>
      <point x="33.0" y="-203.6"/>
      <point x="-37.6" y="-203.6" type="curve" smooth="yes"/>
      <point x="-52.6" y="-203.6"/>
      <point x="-66.4" y="-200.9"/>
      <point x="-84.5" y="-194.5" type="curve"/>
      <point x="-89.9" y="-210.9" type="line"/>
      <point x="-71.0" y="-217.3"/>
      <point x="-53.900000000000006" y="-220.0"/>
    </contour>
  </outline>
</glyph>
<glyph name="uni018F" format="2">
  <advance width="773.0"/>
  <unicode hex="018F"/>
  <outline>
    <contour>
      <point x="300.0" y="-10.0" type="curve" smooth="yes"/>
      <point x="538.0" y="-10.0"/>
      <point x="729.0" y="192.0"/>
      <point x="729.0" y="460.0" type="curve" smooth="yes"/>
      <point x="729.0" y="633.0"/>
      <point x="622.5" y="710.0"/>
      <point x="439.5" y="710.0" type="curve" smooth="yes"/>
      <point x="305.5" y="710.0"/>
      <point x="184.0" y="682.5"/>
      <point x="97.0" y="642.5" type="curve"/>
      <point x="105.0" y="623.5" type="line"/>
      <point x="196.0" y="664.5"/>
      <point x="307.0" y="691.5"/>
      <point x="439.5" y="691.5" type="curve" smooth="yes"/>
      <point x="609.0" y="691.5"/>
      <point x="710.0" y="620.5"/>
      <point x="710.0" y="457.5" type="curve" smooth="yes"/>
      <point x="710.0" y="203.0"/>
      <point x="524.0" y="8.5"/>
      <point x="297.5" y="8.5" type="curve" smooth="yes"/>
      <point x="149.0" y="8.5"/>
      <point x="53.49999999999999" y="68.0"/>
      <point x="53.49999999999999" y="155.5" type="curve" smooth="yes"/>
      <point x="53.49999999999999" y="282.0"/>
      <point x="203.0" y="359.5"/>
      <point x="448.5" y="359.5" type="curve" smooth="yes"/>
      <point x="533.5" y="359.5"/>
      <point x="630.5" y="349.5"/>
      <point x="703.0" y="333.0" type="curve"/>
      <point x="707.5" y="352.5" type="line"/>
      <point x="639.5" y="365.5"/>
      <point x="543.5" y="378.0"/>
      <point x="454.5" y="378.0" type="curve" smooth="yes"/>
      <point x="181.0" y="378.0"/>
      <point x="34.49999999999999" y="294.0"/>
      <point x="34.49999999999999" y="151.0" type="curve" smooth="yes"/>
      <point x="34.49999999999999" y="51.5"/>
      <point x="131.5" y="-10.0"/>
    </contour>
  </outline>
</glyph>
<glyph name="florin" format="2">
  <advance width="798.8"/>
  <unicode hex="0192"/>
  <outline>
    <contour>
      <point x="273.2" y="366.0" type="line"/>
      <point x="653.8" y="366.0" type="line"/>
      <point x="656.8" y="385.4" type="line"/>
      <point x="276.2" y="385.4" type="line"/>
      <point x="281.29999999999995" y="413.9" type="line" smooth="yes"/>
      <point x="309.29999999999995" y="591.2"/>
      <point x="418.29999999999995" y="692.0"/>
      <point x="571.2" y="692.0" type="curve" smooth="yes"/>
      <point x="637.9" y="692.0"/>
      <point x="697.7" y="680.2"/>
      <point x="732.9" y="671.3" type="curve"/>
      <point x="739.5" y="689.0" type="line"/>
      <point x="703.7" y="698.2"/>
      <point x="643.0" y="710.0"/>
      <point x="579.8" y="710.0" type="curve" smooth="yes"/>
      <point x="407.6" y="710.0"/>
      <point x="294.9" y="611.5"/>
      <point x="264.0" y="415.3" type="curve" smooth="yes"/>
      <point x="258.9" y="385.4" type="line"/>
      <point x="136.89999999999998" y="385.4" type="line"/>
      <point x="133.89999999999998" y="366.0" type="line"/>
      <point x="255.89999999999998" y="366.0" type="line"/>
      <point x="165.2" y="-210.0" type="line"/>
      <point x="182.5" y="-210.0" type="line"/>
    </contour>
  </outline>
</glyph>
<glyph name="uni0237" format="2">
  <advance width="226.6"/>
  <unicode hex="0237"/>
  <anchor x="-43.300000000000004" y="-210.0" name="bottom"/>
  <anchor x="156.4" y="530.0" name="top"/>
  <outline>
    <contour>
      <point x="165.7" y="530.0" type="line"/>
      <point x="146.7" y="530.0" type="line"/>
      <point x="52.699999999999996" y="-66.0" type="line" smooth="yes"/>
      <point x="39.0" y="-152.2"/>
      <point x="12.099999999999994" y="-203.0"/>
      <point x="-48.0" y="-203.0" type="curve" smooth="yes"/>
      <point x="-63.0" y="-203.0"/>
      <point x="-81.7" y="-201.0"/>
      <point x="-104.7" y="-191.8" type="curve"/>
      <point x="-109.4" y="-208.8" type="line"/>
      <point x="-91.9" y="-217.3"/>
      <point x="-60.1" y="-220.0"/>
      <point x="-46.7" y="-220.0" type="curve" smooth="yes"/>
      <point x="21.9" y="-220.0"/>
      <point x="55.699999999999996" y="-166.6"/>
      <point x="70.69999999999999" y="-71.0" type="curve" smooth="yes"/>
    </contour>
  </outline>
</glyph>
<glyph name="uni0259" format="2">
  <advance width="619.5"/>
  <unicode hex="0259"/>
  <outline>
    <contour>
      <point x="553.0" y="255.5" type="curve"/>
      <point x="556.0" y="274.0" type="line"/>
      <point x="489.49999999999994" y="283.0"/>
      <point x="404.5" y="286.0"/>
      <point x="338.0" y="281.5" type="curve" smooth="yes"/>
      <point x="140.0" y="269.0"/>
      <point x="32.5" y="207.5"/>
      <point x="32.5" y="108.5" type="curve" smooth="yes"/>
      <point x="32.5" y="34.0"/>
      <point x="99.99999999999999" y="-9.5"/>
      <point x="216.99999999999997" y="-9.5" type="curve" smooth="yes"/>
      <point x="428.49999999999994" y="-9.5"/>
      <point x="568.0" y="130.0"/>
      <point x="568.0" y="336.0" type="curve" smooth="yes"/>
      <point x="568.0" y="467.5"/>
      <point x="490.49999999999994" y="540.5"/>
      <point x="342.5" y="540.5" type="curve" smooth="yes"/>
      <point x="241.49999999999997" y="540.5"/>
      <point x="157.0" y="522.0"/>
      <point x="84.0" y="491.0" type="curve"/>
      <point x="90.5" y="473.5" type="line"/>
      <point x="163.5" y="505.0"/>
      <point x="245.99999999999997" y="522.5"/>
      <point x="340.0" y="522.5" type="curve" smooth="yes"/>
      <point x="475.99999999999994" y="522.5"/>
      <point x="549.5" y="455.5"/>
      <point x="549.5" y="336.0" type="curve" smooth="yes"/>
      <point x="549.5" y="140.5"/>
      <point x="416.49999999999994" y="9.0"/>
      <point x="218.49999999999997" y="9.0" type="curve" smooth="yes"/>
      <point x="110.0" y="9.0"/>
      <point x="51.5" y="45.0"/>
      <point x="51.5" y="112.0" type="curve" smooth="yes"/>
      <point x="51.5" y="196.0"/>
      <point x="154.5" y="252.0"/>
      <point x="334.0" y="263.5" type="curve" smooth="yes"/>
      <point x="402.0" y="268.5"/>
      <point x="484.99999999999994" y="265.0"/>
    </contour>
  </outline>
</glyph>
<glyph name="gravecomb" format="2">
  <unicode hex="0300"/>
  <anchor x="-294.9" y="530.0" name="_top"/>
  <anchor x="-342.5" y="724.0" name="top"/>
  <outline>
    <contour>
      <point x="-285.7" y="596.0" type="line"/>
      <point x="-264.79999999999995" y="596.0" type="line"/>
      <point x="-406.59999999999997" y="790.0" type="line"/>
      <point x="-430.79999999999995" y="790.0" type="line"/>
    </contour>
  </outline>
</glyph>
<glyph name="acutecomb" format="2">
  <unicode hex="0301"/>
  <anchor x="-294.9" y="530.0" name="_top"/>
  <anchor x="-182.2" y="724.0" name="top"/>
  <outline>
    <contour>
      <point x="-303.5" y="596.0" type="line"/>
      <point x="-281.2" y="596.0" type="line"/>
      <point x="-71.39999999999999" y="790.0" type="line"/>
      <point x="-99.39999999999999" y="790.0" type="line"/>
    </contour>
  </outline>
</glyph>
<glyph name="uni0302" format="2">
  <unicode hex="0302"/>
  <anchor x="-294.9" y="530.0" name="_top"/>
  <anchor x="-264.1" y="722.0" name="top"/>
  <anchor x="-128.5" y="663.6" name="top_viet"/>
  <outline>
    <contour>
      <point x="-459.29999999999995" y="596.0" type="line"/>
      <point x="-437.0" y="596.0" type="line"/>
      <point x="-254.5" y="772.6" type="line"/>
      <point x="-127.69999999999999" y="596.0" type="line"/>
      <point x="-107.1" y="596.0" type="line"/>
      <point x="-238.29999999999998" y="790.0" type="line"/>
      <point x="-266.4" y="790.0" type="line"/>
    </contour>
  </outline>
</glyph>
<glyph name="tildecomb" format="2">
  <unicode hex="0303"/>
  <anchor x="-294.9" y="530.0" name="_top"/>
  <anchor x="-275.29999999999995" y="670.7" name="top"/>
  <outline>
    <contour>
      <point x="-455.59999999999997" y="609.6" type="curve"/>
      <point x="-437.79999999999995" y="609.6" type="line"/>
      <point x="-437.79999999999995" y="613.3"/>
      <point x="-442.7" y="563.4"/>
      <point x="-435.7" y="632.9" type="curve" smooth="yes"/>
      <point x="-431.5" y="679.8"/>
      <point x="-402.2" y="711.7"/>
      <point x="-365.4" y="711.7" type="curve" smooth="yes"/>
      <point x="-296.79999999999995" y="711.7"/>
      <point x="-269.6" y="609.6"/>
      <point x="-185.29999999999998" y="609.6" type="curve" smooth="yes"/>
      <point x="-136.29999999999998" y="609.6"/>
      <point x="-97.39999999999999" y="652.7"/>
      <point x="-92.49999999999999" y="708.7" type="curve" smooth="yes"/>
      <point x="-89.69999999999999" y="728.9"/>
      <point x="-90.39999999999999" y="725.7"/>
      <point x="-90.39999999999999" y="730.5" type="curve"/>
      <point x="-108.19999999999999" y="730.5" type="line"/>
      <point x="-108.19999999999999" y="725.4"/>
      <point x="-107.49999999999999" y="728.3"/>
      <point x="-110.3" y="707.8" type="curve" smooth="yes"/>
      <point x="-113.8" y="669.2"/>
      <point x="-142.1" y="627.6"/>
      <point x="-182.29999999999998" y="627.6" type="curve" smooth="yes"/>
      <point x="-260.9" y="627.6"/>
      <point x="-284.0" y="728.4"/>
      <point x="-362.4" y="728.4" type="curve" smooth="yes"/>
      <point x="-412.9" y="728.4"/>
      <point x="-448.59999999999997" y="690.5"/>
      <point x="-453.5" y="633.8" type="curve" smooth="yes"/>
      <point x="-460.5" y="564.0"/>
      <point x="-455.59999999999997" y="613.6"/>
    </contour>
  </outline>
</glyph>
<glyph name="uni0304" format="2">
  <unicode hex="0304"/>
  <anchor x="-294.9" y="530.0" name="_top"/>
  <anchor x="-266.9" y="703.6" name="top"/>
  <outline>
    <contour>
      <point x="-423.4" y="685.0" type="line"/>
      <point x="-116.39999999999999" y="685.0" type="line"/>
      <point x="-113.39999999999999" y="703.6" type="line"/>
      <point x="-420.4" y="703.6" type="line"/>
    </contour>
  </outline>
</glyph>
<glyph name="uni0306" format="2">
  <unicode hex="0306"/>
  <anchor x="-294.9" y="530.0" name="_top"/>
  <anchor x="-266.1" y="717.7" name="top"/>
  <outline>
    <contour>
      <point x="-283.6" y="613.1" type="curve" smooth="yes"/>
      <point x="-175.0" y="613.1"/>
      <point x="-107.1" y="646.6"/>
      <point x="-84.89999999999999" y="760.0" type="curve"/>
      <point x="-102.3" y="761.4" type="line"/>
      <point x="-124.3" y="663.9"/>
      <point x="-180.7" y="630.8"/>
      <point x="-280.6" y="630.8" type="curve" smooth="yes"/>
      <point x="-368.59999999999997" y="630.8"/>
      <point x="-414.4" y="652.5"/>
      <point x="-418.59999999999997" y="728.4" type="curve" smooth="yes"/>
      <point x="-418.59999999999997" y="739.5"/>
      <point x="-418.29999999999995" y="750.1"/>
      <point x="-416.7" y="761.4" type="curve"/>
      <point x="-433.79999999999995" y="760.0" type="line"/>
      <point x="-435.4" y="751.8"/>
      <point x="-436.0" y="741.2"/>
      <point x="-436.0" y="731.9" type="curve" smooth="yes"/>
      <point x="-436.0" y="643.1"/>
      <point x="-386.2" y="613.1"/>
    </contour>
  </outline>
</glyph>
<glyph name="uni0307" format="2">
  <unicode hex="0307"/>
  <anchor x="-294.9" y="530.0" name="_top"/>
  <anchor x="-274.7" y="653.0" name="top"/>
  <outline>
    <contour>
      <point x="-271.2" y="676.0" type="curve" smooth="yes"/>
      <point x="-258.9" y="676.0"/>
      <point x="-253.5" y="685.6"/>
      <point x="-253.5" y="699.7" type="curve" smooth="yes"/>
      <point x="-253.5" y="707.7"/>
      <point x="-256.9" y="712.0"/>
      <point x="-266.9" y="712.0" type="curve" smooth="yes"/>
      <point x="-279.6" y="712.0"/>
      <point x="-285.0" y="702.1"/>
      <point x="-285.0" y="687.7" type="curve" smooth="yes"/>
      <point x="-285.0" y="680.0"/>
      <point x="-281.29999999999995" y="676.0"/>
    </contour>
  </outline>
</glyph>
<glyph name="uni0308" format="2">
  <unicode hex="0308"/>
  <anchor x="-294.9" y="530.0" name="_top"/>
  <anchor x="-276.1" y="653.0" name="top"/>
  <outline>
    <contour>
      <point x="-150.29999999999998" y="676.0" type="curve" smooth="yes"/>
      <point x="-140.0" y="676.0"/>
      <point x="-133.89999999999998" y="684.2"/>
      <point x="-133.89999999999998" y="700.0" type="curve" smooth="yes"/>
      <point x="-133.89999999999998" y="707.7"/>
      <point x="-136.6" y="712.0"/>
      <point x="-145.29999999999998" y="712.0" type="curve" smooth="yes"/>
      <point x="-157.0" y="712.0"/>
      <point x="-162.39999999999998" y="702.5"/>
      <point x="-162.39999999999998" y="686.7" type="curve" smooth="yes"/>
      <point x="-162.39999999999998" y="680.0"/>
      <point x="-159.0" y="676.0"/>
    </contour>
    <contour>
      <point x="-393.4" y="676.0" type="curve" smooth="yes"/>
      <point x="-383.09999999999997" y="676.0"/>
      <point x="-377.0" y="684.2"/>
      <point x="-377.0" y="700.0" type="curve" smooth="yes"/>
      <point x="-377.0" y="707.7"/>
      <point x="-379.7" y="712.0"/>
      <point x="-388.4" y="712.0" type="curve" smooth="yes"/>
      <point x="-400.4" y="712.0"/>
      <point x="-405.5" y="701.6"/>
      <point x="-405.5" y="686.7" type="curve" smooth="yes"/>
      <point x="-405.5" y="680.0"/>
      <point x="-402.09999999999997" y="676.0"/>
    </contour>
  </outline>
</glyph>
<glyph name="hookabovecomb" format="2">
  <unicode hex="0309"/>
  <anchor x="-294.9" y="530.0" name="_top"/>
  <anchor x="-254.5" y="794.0" name="top"/>
  <outline>
    <contour>
      <point x="-286.7" y="603.8" type="line"/>
      <point x="-210.89999999999998" y="633.9"/>
      <point x="-177.7" y="670.3"/>
      <point x="-177.7" y="721.1" type="curve" smooth="yes"/>
      <point x="-177.7" y="767.3"/>
      <point x="-209.29999999999998" y="794.0"/>
      <point x="-261.9" y="794.0" type="curve" smooth="yes"/>
      <point x="-296.7" y="794.0"/>
      <point x="-329.0" y="781.4"/>
      <point x="-357.59999999999997" y="753.8" type="curve"/>
      <point x="-346.3" y="741.7" type="line"/>
      <point x="-319.29999999999995" y="767.1"/>
      <point x="-293.7" y="777.0"/>
      <point x="-262.5" y="777.0" type="curve" smooth="yes"/>
      <point x="-222.39999999999998" y="777.0"/>
      <point x="-196.39999999999998" y="755.0"/>
      <point x="-196.39999999999998" y="720.5" type="curve" smooth="yes"/>
      <point x="-196.39999999999998" y="677.4"/>
      <point x="-225.89999999999998" y="643.8"/>
      <point x="-292.79999999999995" y="617.3" type="curve"/>
    </contour>
  </outline>
</glyph>
<glyph name="uni030A" format="2">
  <unicode hex="030A"/>
  <anchor x="-294.9" y="530.0" name="_top"/>
  <anchor x="-261.2" y="743.2" name="top"/>
  <outline>
    <contour>
      <point x="-281.29999999999995" y="618.4" type="curve" smooth="yes"/>
      <point x="-219.0" y="618.4"/>
      <point x="-180.2" y="652.3"/>
      <point x="-180.2" y="711.2" type="curve" smooth="yes"/>
      <point x="-180.2" y="751.9"/>
      <point x="-207.79999999999998" y="774.4"/>
      <point x="-256.2" y="774.4" type="curve" smooth="yes"/>
      <point x="-318.79999999999995" y="774.4"/>
      <point x="-357.29999999999995" y="740.2"/>
      <point x="-357.29999999999995" y="680.7" type="curve" smooth="yes"/>
      <point x="-357.29999999999995" y="640.6"/>
      <point x="-329.7" y="618.4"/>
    </contour>
    <contour>
      <point x="-278.29999999999995" y="635.4" type="curve" smooth="yes"/>
      <point x="-318.4" y="635.4"/>
      <point x="-338.6" y="651.2"/>
      <point x="-338.6" y="681.6" type="curve" smooth="yes"/>
      <point x="-338.6" y="729.0"/>
      <point x="-309.4" y="757.4"/>
      <point x="-259.2" y="757.4" type="curve" smooth="yes"/>
      <point x="-219.1" y="757.4"/>
      <point x="-198.89999999999998" y="741.3"/>
      <point x="-198.89999999999998" y="710.6" type="curve" smooth="yes"/>
      <point x="-198.89999999999998" y="663.5"/>
      <point x="-228.39999999999998" y="635.4"/>
    </contour>
  </outline>
</glyph>
<glyph name="uni030B" format="2">
  <unicode hex="030B"/>
  <anchor x="-294.9" y="530.0" name="_top"/>
  <anchor x="-182.7" y="790.0" name="top"/>
  <outline>
    <contour>
      <point x="-228.89999999999998" y="596.0" type="line"/>
      <point x="-206.6" y="596.0" type="line"/>
      <point x="2.3000000000000114" y="790.0" type="line"/>
      <point x="-25.39999999999999" y="790.0" type="line"/>
    </contour>
    <contour>
      <point x="-398.0" y="596.0" type="line"/>
      <point x="-375.7" y="596.0" type="line"/>
      <point x="-166.79999999999998" y="790.0" type="line"/>
      <point x="-194.5" y="790.0" type="line"/>
    </contour>
  </outline>
</glyph>
<glyph name="uni030F" format="2">
  <unicode hex="030F"/>
  <anchor x="-294.9" y="530.0" name="_top"/>
  <anchor x="-338.3" y="790.0" name="top"/>
  <outline>
    <contour>
      <point x="-377.09999999999997" y="596.0" type="line"/>
      <point x="-356.2" y="596.0" type="line"/>
      <point x="-481.0" y="790.0" type="line"/>
      <point x="-505.2" y="790.0" type="line"/>
    </contour>
    <contour>
      <point x="-223.7" y="596.0" type="line"/>
      <point x="-202.79999999999998" y="596.0" type="line"/>
      <point x="-327.59999999999997" y="790.0" type="line"/>
      <point x="-351.79999999999995" y="790.0" type="line"/>
    </contour>
  </outline>
</glyph>
<glyph name="uni0312" format="2">
  <unicode hex="0312"/>
  <anchor x="-294.9" y="530.0" name="_top"/>
  <outline>
    <contour>
      <point x="-275.29999999999995" y="595.0" type="line"/>
      <point x="-288.5" y="609.9"/>
      <point x="-295.5" y="627.9"/>
      <point x="-295.5" y="647.3" type="curve" smooth="yes"/>
      <point x="-295.5" y="696.9"/>
      <point x="-270.4" y="742.9"/>
      <point x="-216.0" y="790.0" type="curve"/>
      <point x="-236.89999999999998" y="790.0" type="line"/>
      <point x="-289.5" y="743.9"/>
      <point x="-313.9" y="696.0"/>
      <point x="-313.9" y="645.3" type="curve" smooth="yes"/>
      <point x="-313.9" y="625.2"/>
      <point x="-307.6" y="606.1"/>
      <point x="-297.2" y="595.0" type="curve"/>
    </contour>
  </outline>
</glyph>
<glyph name="uni031B" format="2">
  <unicode hex="031B"/>
  <anchor x="-201.79999999999998" y="530.0" name="_topright"/>
  <anchor x="-8.599999999999994" y="690.6" name="topright"/>
  <outline>
    <contour>
      <point x="-203.89999999999998" y="513.0" type="line"/>
      <point x="-173.79999999999998" y="513.0" type="line" smooth="yes"/>
      <point x="-29.5" y="513.0"/>
      <point x="-13.299999999999997" y="606.7"/>
      <point x="-49.3" y="693.1" type="curve"/>
      <point x="-68.3" y="688.0" type="line"/>
      <point x="-32.599999999999994" y="604.9"/>
      <point x="-54.8" y="530.0"/>
      <point x="-172.39999999999998" y="530.0" type="curve" smooth="yes"/>
      <point x="-210.39999999999998" y="530.0" type="line"/>
    </contour>
  </outline>
</glyph>
<glyph name="uni0326" format="2">
  <unicode hex="0326"/>
  <anchor x="-346.6" y="0.0" name="_bottom"/>
  <anchor x="-403.5" y="-220.0" name="bottom"/>
  <outline>
    <contour>
      <point x="-369.29999999999995" y="-73.0" type="line"/>
      <point x="-364.4" y="-81.6"/>
      <point x="-362.6" y="-92.6"/>
      <point x="-363.2" y="-107.1" type="curve" smooth="yes"/>
      <point x="-365.0" y="-140.0"/>
      <point x="-382.6" y="-179.5"/>
      <point x="-414.6" y="-220.0" type="curve"/>
      <point x="-394.2" y="-220.0" type="line"/>
      <point x="-364.1" y="-182.3"/>
      <point x="-346.6" y="-143.7"/>
      <point x="-344.5" y="-105.0" type="curve" smooth="yes"/>
      <point x="-343.9" y="-95.1"/>
      <point x="-344.29999999999995" y="-86.2"/>
      <point x="-347.1" y="-73.0" type="curve"/>
    </contour>
  </outline>
</glyph>
